G04 #@! TF.GenerationSoftware,KiCad,Pcbnew,(6.0.11-0)*
G04 #@! TF.CreationDate,2023-08-22T00:26:59+09:00*
G04 #@! TF.ProjectId,SYMMETRIA,53594d4d-4554-4524-9941-2e6b69636164,rev?*
G04 #@! TF.SameCoordinates,Original*
G04 #@! TF.FileFunction,Profile,NP*
%FSLAX46Y46*%
G04 Gerber Fmt 4.6, Leading zero omitted, Abs format (unit mm)*
G04 Created by KiCad (PCBNEW (6.0.11-0)) date 2023-08-22 00:26:59*
%MOMM*%
%LPD*%
G01*
G04 APERTURE LIST*
G04 #@! TA.AperFunction,Profile*
%ADD10C,0.100000*%
G04 #@! TD*
G04 #@! TA.AperFunction,Profile*
%ADD11C,0.150000*%
G04 #@! TD*
G04 #@! TA.AperFunction,Profile*
%ADD12C,0.010000*%
G04 #@! TD*
G04 APERTURE END LIST*
D10*
X325625000Y-17250000D02*
X17275000Y-17250000D01*
X17275000Y-17250000D02*
G75*
G03*
X14275000Y-20250000I0J-3000000D01*
G01*
X328625000Y-20250000D02*
G75*
G03*
X325625000Y-17250000I-3000000J0D01*
G01*
X325625000Y-116050000D02*
G75*
G03*
X328625000Y-113050000I0J3000000D01*
G01*
X14275000Y-20250000D02*
X14275000Y-113050000D01*
X328625000Y-113050000D02*
X328625000Y-20250000D01*
X17275000Y-116050000D02*
X325625000Y-116050000D01*
X14275000Y-113050000D02*
G75*
G03*
X17275000Y-116050000I3000000J0D01*
G01*
D11*
X137865454Y-64188305D02*
X123842695Y-62714454D01*
X123842695Y-62714454D02*
X125316546Y-48691695D01*
X125316546Y-48691695D02*
X139339305Y-50165546D01*
X139339305Y-50165546D02*
X137865454Y-64188305D01*
X238662160Y-60064220D02*
X224699380Y-62026560D01*
X222737040Y-48063780D02*
X236699820Y-46101440D01*
X224699380Y-62026560D02*
X222737040Y-48063780D01*
X236699820Y-46101440D02*
X238662160Y-60064220D01*
X37590000Y-21500000D02*
X37590000Y-35600000D01*
X23490000Y-35600000D02*
X23490000Y-21500000D01*
X37590000Y-35600000D02*
X23490000Y-35600000D01*
X23490000Y-21500000D02*
X37590000Y-21500000D01*
X217589804Y-48691695D02*
X219063655Y-62714454D01*
X219063655Y-62714454D02*
X205040896Y-64188305D01*
X203567045Y-50165546D02*
X217589804Y-48691695D01*
X205040896Y-64188305D02*
X203567045Y-50165546D01*
X28668750Y-76410000D02*
X28668750Y-62310000D01*
X42768750Y-76410000D02*
X28668750Y-76410000D01*
X42768750Y-62310000D02*
X42768750Y-76410000D01*
X28668750Y-62310000D02*
X42768750Y-62310000D01*
X100446640Y-39985220D02*
X102408980Y-26022440D01*
X102408980Y-26022440D02*
X116371760Y-27984780D01*
X116371760Y-27984780D02*
X114409420Y-41947560D01*
X114409420Y-41947560D02*
X100446640Y-39985220D01*
X279390121Y-22382390D02*
X280373688Y-36448043D01*
X280373688Y-36448043D02*
X266308035Y-37431610D01*
X265324468Y-23365957D02*
X279390121Y-22382390D01*
X266308035Y-37431610D02*
X265324468Y-23365957D01*
X187645568Y-31515957D02*
X201711221Y-30532390D01*
X201711221Y-30532390D02*
X202694788Y-44598043D01*
X188629135Y-45581610D02*
X187645568Y-31515957D01*
X202694788Y-44598043D02*
X188629135Y-45581610D01*
D12*
X17175000Y-21550000D02*
G75*
G03*
X17175000Y-21550000I-1100000J0D01*
G01*
D11*
X28668750Y-107062500D02*
X28668750Y-92962500D01*
X42768750Y-107062500D02*
X28668750Y-107062500D01*
X28668750Y-92962500D02*
X42768750Y-92962500D01*
X42768750Y-92962500D02*
X42768750Y-107062500D01*
X241911043Y-106844610D02*
X227845390Y-105861043D01*
X228828957Y-91795390D02*
X242894610Y-92778957D01*
X242894610Y-92778957D02*
X241911043Y-106844610D01*
X227845390Y-105861043D02*
X228828957Y-91795390D01*
X318993750Y-21500000D02*
X318993750Y-35600000D01*
X304893750Y-35600000D02*
X304893750Y-21500000D01*
X304893750Y-21500000D02*
X318993750Y-21500000D01*
X318993750Y-35600000D02*
X304893750Y-35600000D01*
X303900000Y-41575000D02*
X318000000Y-41575000D01*
X318000000Y-41575000D02*
X318000000Y-55675000D01*
X303900000Y-55675000D02*
X303900000Y-41575000D01*
X318000000Y-55675000D02*
X303900000Y-55675000D01*
X256357954Y-43937695D02*
X257831805Y-57960454D01*
X257831805Y-57960454D02*
X243809046Y-59434305D01*
X242335195Y-45411546D02*
X256357954Y-43937695D01*
X243809046Y-59434305D02*
X242335195Y-45411546D01*
X66825957Y-42460390D02*
X80891610Y-43443957D01*
X79908043Y-57509610D02*
X65842390Y-56526043D01*
X65842390Y-56526043D02*
X66825957Y-42460390D01*
X80891610Y-43443957D02*
X79908043Y-57509610D01*
D12*
X327925000Y-111750000D02*
G75*
G03*
X327925000Y-111750000I-1100000J0D01*
G01*
D11*
X285059971Y-22090336D02*
X299151382Y-21598253D01*
X299151382Y-21598253D02*
X299643465Y-35689664D01*
X299643465Y-35689664D02*
X285552054Y-36181747D01*
X285552054Y-36181747D02*
X285059971Y-22090336D01*
X82750746Y-23856695D02*
X96773505Y-25330546D01*
X81276895Y-37879454D02*
X82750746Y-23856695D01*
X96773505Y-25330546D02*
X95299654Y-39353305D01*
X95299654Y-39353305D02*
X81276895Y-37879454D01*
X112768940Y-80800220D02*
X114731280Y-66837440D01*
X128694060Y-68799780D02*
X126731720Y-82762560D01*
X126731720Y-82762560D02*
X112768940Y-80800220D01*
X114731280Y-66837440D02*
X128694060Y-68799780D01*
X121519346Y-28611695D02*
X135542105Y-30085546D01*
X120045495Y-42634454D02*
X121519346Y-28611695D01*
X134068254Y-44108305D02*
X120045495Y-42634454D01*
X135542105Y-30085546D02*
X134068254Y-44108305D01*
X213071235Y-105180000D02*
X198971235Y-105180000D01*
X213071235Y-91080000D02*
X213071235Y-105180000D01*
X198971235Y-105180000D02*
X198971235Y-91080000D01*
X198971235Y-91080000D02*
X213071235Y-91080000D01*
D12*
X17175000Y-66650000D02*
G75*
G03*
X17175000Y-66650000I-1100000J0D01*
G01*
D11*
X247715554Y-64671695D02*
X249189405Y-78694454D01*
X249189405Y-78694454D02*
X235166646Y-80168305D01*
X233692795Y-66145546D02*
X247715554Y-64671695D01*
X235166646Y-80168305D02*
X233692795Y-66145546D01*
X198401093Y-50610390D02*
X199384660Y-64676043D01*
X184335440Y-51593957D02*
X198401093Y-50610390D01*
X185319007Y-65659610D02*
X184335440Y-51593957D01*
X199384660Y-64676043D02*
X185319007Y-65659610D01*
X210421405Y-83452454D02*
X196398646Y-84926305D01*
X194924795Y-70903546D02*
X208947554Y-69429695D01*
X208947554Y-69429695D02*
X210421405Y-83452454D01*
X196398646Y-84926305D02*
X194924795Y-70903546D01*
X74367390Y-77261043D02*
X75350957Y-63195390D01*
X75350957Y-63195390D02*
X89416610Y-64178957D01*
X88433043Y-78244610D02*
X74367390Y-77261043D01*
X89416610Y-64178957D02*
X88433043Y-78244610D01*
X93599095Y-78694454D02*
X95072946Y-64671695D01*
X95072946Y-64671695D02*
X109095705Y-66145546D01*
X109095705Y-66145546D02*
X107621854Y-80168305D01*
X107621854Y-80168305D02*
X93599095Y-78694454D01*
D12*
X327925000Y-66650000D02*
G75*
G03*
X327925000Y-66650000I-1100000J0D01*
G01*
D11*
X281750353Y-42165336D02*
X295841764Y-41673253D01*
X282242436Y-56256747D02*
X281750353Y-42165336D01*
X295841764Y-41673253D02*
X296333847Y-55764664D01*
X296333847Y-55764664D02*
X282242436Y-56256747D01*
X178500000Y-51989946D02*
X178500000Y-66089946D01*
X164400000Y-66089946D02*
X164400000Y-51989946D01*
X178500000Y-66089946D02*
X164400000Y-66089946D01*
X164400000Y-51989946D02*
X178500000Y-51989946D01*
X300020000Y-76410000D02*
X300020000Y-62310000D01*
X314120000Y-76410000D02*
X300020000Y-76410000D01*
X314120000Y-62310000D02*
X314120000Y-76410000D01*
X300020000Y-62310000D02*
X314120000Y-62310000D01*
X247119174Y-39353305D02*
X245645323Y-25330546D01*
X245645323Y-25330546D02*
X259668082Y-23856695D01*
X259668082Y-23856695D02*
X261141933Y-37879454D01*
X261141933Y-37879454D02*
X247119174Y-39353305D01*
X222373903Y-42634454D02*
X208351144Y-44108305D01*
X220900052Y-28611695D02*
X222373903Y-42634454D01*
X206877293Y-30085546D02*
X220900052Y-28611695D01*
X208351144Y-44108305D02*
X206877293Y-30085546D01*
X60663764Y-56256747D02*
X46572353Y-55764664D01*
X61155847Y-42165336D02*
X60663764Y-56256747D01*
X46572353Y-55764664D02*
X47064436Y-41673253D01*
X47064436Y-41673253D02*
X61155847Y-42165336D01*
X55589436Y-62408253D02*
X69680847Y-62900336D01*
X69188764Y-76991747D02*
X55097353Y-76499664D01*
X55097353Y-76499664D02*
X55589436Y-62408253D01*
X69680847Y-62900336D02*
X69188764Y-76991747D01*
X144505957Y-50610390D02*
X158571610Y-51593957D01*
X157588043Y-65659610D02*
X143522390Y-64676043D01*
X143522390Y-64676043D02*
X144505957Y-50610390D01*
X158571610Y-51593957D02*
X157588043Y-65659610D01*
X114821610Y-105861043D02*
X100755957Y-106844610D01*
X113838043Y-91795390D02*
X114821610Y-105861043D01*
X99772390Y-92778957D02*
X113838043Y-91795390D01*
X100755957Y-106844610D02*
X99772390Y-92778957D01*
X99096804Y-59434305D02*
X85074045Y-57960454D01*
X100570655Y-45411546D02*
X99096804Y-59434305D01*
X86547896Y-43937695D02*
X100570655Y-45411546D01*
X85074045Y-57960454D02*
X86547896Y-43937695D01*
X228057320Y-66837440D02*
X230019660Y-80800220D01*
X230019660Y-80800220D02*
X216056880Y-82762560D01*
X214094540Y-68799780D02*
X228057320Y-66837440D01*
X216056880Y-82762560D02*
X214094540Y-68799780D01*
X314231250Y-107062500D02*
X300131250Y-107062500D01*
X300131250Y-92962500D02*
X314231250Y-92962500D01*
X300131250Y-107062500D02*
X300131250Y-92962500D01*
X314231250Y-92962500D02*
X314231250Y-107062500D01*
X272068055Y-95495546D02*
X270594204Y-109518305D01*
X270594204Y-109518305D02*
X256571445Y-108044454D01*
X256571445Y-108044454D02*
X258045296Y-94021695D01*
X258045296Y-94021695D02*
X272068055Y-95495546D01*
X273599936Y-76991747D02*
X273107853Y-62900336D01*
X273107853Y-62900336D02*
X287199264Y-62408253D01*
X287199264Y-62408253D02*
X287691347Y-76499664D01*
X287691347Y-76499664D02*
X273599936Y-76991747D01*
X147864305Y-70903546D02*
X146390454Y-84926305D01*
X133841546Y-69429695D02*
X147864305Y-70903546D01*
X132367695Y-83452454D02*
X133841546Y-69429695D01*
X146390454Y-84926305D02*
X132367695Y-83452454D01*
X153030657Y-71350390D02*
X167096310Y-72333957D01*
X167096310Y-72333957D02*
X166112743Y-86399610D01*
X152047090Y-85416043D02*
X153030657Y-71350390D01*
X166112743Y-86399610D02*
X152047090Y-85416043D01*
X267437643Y-63195390D02*
X268421210Y-77261043D01*
X254355557Y-78244610D02*
X253371990Y-64178957D01*
X268421210Y-77261043D02*
X254355557Y-78244610D01*
X253371990Y-64178957D02*
X267437643Y-63195390D01*
D12*
X327925000Y-21550000D02*
G75*
G03*
X327925000Y-21550000I-1100000J0D01*
G01*
D11*
X24906250Y-55675000D02*
X24906250Y-41575000D01*
X39006250Y-55675000D02*
X24906250Y-55675000D01*
X24906250Y-41575000D02*
X39006250Y-41575000D01*
X39006250Y-41575000D02*
X39006250Y-55675000D01*
X84621654Y-94021695D02*
X86095505Y-108044454D01*
X72072746Y-109518305D02*
X70598895Y-95495546D01*
X70598895Y-95495546D02*
X84621654Y-94021695D01*
X86095505Y-108044454D02*
X72072746Y-109518305D01*
D12*
X17175000Y-111750000D02*
G75*
G03*
X17175000Y-111750000I-1100000J0D01*
G01*
D11*
X118206820Y-62026560D02*
X104244040Y-60064220D01*
X104244040Y-60064220D02*
X106206380Y-46101440D01*
X120169160Y-48063780D02*
X118206820Y-62026560D01*
X106206380Y-46101440D02*
X120169160Y-48063780D01*
X262997957Y-57509610D02*
X262014390Y-43443957D01*
X277063610Y-56526043D02*
X262997957Y-57509610D01*
X262014390Y-43443957D02*
X276080043Y-42460390D01*
X276080043Y-42460390D02*
X277063610Y-56526043D01*
X143695750Y-91080000D02*
X143695750Y-105180000D01*
X129595750Y-105180000D02*
X129595750Y-91080000D01*
X143695750Y-105180000D02*
X129595750Y-105180000D01*
X129595750Y-91080000D02*
X143695750Y-91080000D01*
X76110643Y-37431610D02*
X62044990Y-36448043D01*
X62044990Y-36448043D02*
X63028557Y-22382390D01*
X77094210Y-23365957D02*
X76110643Y-37431610D01*
X63028557Y-22382390D02*
X77094210Y-23365957D01*
X240009828Y-26022440D02*
X241972168Y-39985220D01*
X228009388Y-41947560D02*
X226047048Y-27984780D01*
X226047048Y-27984780D02*
X240009828Y-26022440D01*
X241972168Y-39985220D02*
X228009388Y-41947560D01*
X42774853Y-35689664D02*
X43266936Y-21598253D01*
X56866264Y-36181747D02*
X42774853Y-35689664D01*
X43266936Y-21598253D02*
X57358347Y-22090336D01*
X57358347Y-22090336D02*
X56866264Y-36181747D01*
X190742330Y-85416043D02*
X176676677Y-86399610D01*
X189758763Y-71350390D02*
X190742330Y-85416043D01*
X175693110Y-72333957D02*
X189758763Y-71350390D01*
X176676677Y-86399610D02*
X175693110Y-72333957D01*
X139724890Y-44598043D02*
X140708457Y-30532390D01*
X154774110Y-31515957D02*
X153790543Y-45581610D01*
X140708457Y-30532390D02*
X154774110Y-31515957D01*
X153790543Y-45581610D02*
X139724890Y-44598043D01*
M02*
