G04 #@! TF.GenerationSoftware,KiCad,Pcbnew,(6.0.11-0)*
G04 #@! TF.CreationDate,2023-08-22T00:26:59+09:00*
G04 #@! TF.ProjectId,SYMMETRIA,53594d4d-4554-4524-9941-2e6b69636164,rev?*
G04 #@! TF.SameCoordinates,Original*
G04 #@! TF.FileFunction,Legend,Bot*
G04 #@! TF.FilePolarity,Positive*
%FSLAX46Y46*%
G04 Gerber Fmt 4.6, Leading zero omitted, Abs format (unit mm)*
G04 Created by KiCad (PCBNEW (6.0.11-0)) date 2023-08-22 00:26:59*
%MOMM*%
%LPD*%
G01*
G04 APERTURE LIST*
%ADD10C,0.150000*%
G04 APERTURE END LIST*
D10*
X299894047Y-113752380D02*
X299894047Y-114466666D01*
X299941666Y-114609523D01*
X300036904Y-114704761D01*
X300179761Y-114752380D01*
X300275000Y-114752380D01*
X298941666Y-114752380D02*
X299417857Y-114752380D01*
X299417857Y-113752380D01*
X298036904Y-114657142D02*
X298084523Y-114704761D01*
X298227380Y-114752380D01*
X298322619Y-114752380D01*
X298465476Y-114704761D01*
X298560714Y-114609523D01*
X298608333Y-114514285D01*
X298655952Y-114323809D01*
X298655952Y-114180952D01*
X298608333Y-113990476D01*
X298560714Y-113895238D01*
X298465476Y-113800000D01*
X298322619Y-113752380D01*
X298227380Y-113752380D01*
X298084523Y-113800000D01*
X298036904Y-113847619D01*
X297322619Y-113752380D02*
X297322619Y-114466666D01*
X297370238Y-114609523D01*
X297465476Y-114704761D01*
X297608333Y-114752380D01*
X297703571Y-114752380D01*
X296370238Y-114752380D02*
X296846428Y-114752380D01*
X296846428Y-113752380D01*
X295465476Y-114657142D02*
X295513095Y-114704761D01*
X295655952Y-114752380D01*
X295751190Y-114752380D01*
X295894047Y-114704761D01*
X295989285Y-114609523D01*
X296036904Y-114514285D01*
X296084523Y-114323809D01*
X296084523Y-114180952D01*
X296036904Y-113990476D01*
X295989285Y-113895238D01*
X295894047Y-113800000D01*
X295751190Y-113752380D01*
X295655952Y-113752380D01*
X295513095Y-113800000D01*
X295465476Y-113847619D01*
X294751190Y-113752380D02*
X294751190Y-114466666D01*
X294798809Y-114609523D01*
X294894047Y-114704761D01*
X295036904Y-114752380D01*
X295132142Y-114752380D01*
X293798809Y-114752380D02*
X294275000Y-114752380D01*
X294275000Y-113752380D01*
X292894047Y-114657142D02*
X292941666Y-114704761D01*
X293084523Y-114752380D01*
X293179761Y-114752380D01*
X293322619Y-114704761D01*
X293417857Y-114609523D01*
X293465476Y-114514285D01*
X293513095Y-114323809D01*
X293513095Y-114180952D01*
X293465476Y-113990476D01*
X293417857Y-113895238D01*
X293322619Y-113800000D01*
X293179761Y-113752380D01*
X293084523Y-113752380D01*
X292941666Y-113800000D01*
X292894047Y-113847619D01*
X292179761Y-113752380D02*
X292179761Y-114466666D01*
X292227380Y-114609523D01*
X292322619Y-114704761D01*
X292465476Y-114752380D01*
X292560714Y-114752380D01*
X291227380Y-114752380D02*
X291703571Y-114752380D01*
X291703571Y-113752380D01*
X290322619Y-114657142D02*
X290370238Y-114704761D01*
X290513095Y-114752380D01*
X290608333Y-114752380D01*
X290751190Y-114704761D01*
X290846428Y-114609523D01*
X290894047Y-114514285D01*
X290941666Y-114323809D01*
X290941666Y-114180952D01*
X290894047Y-113990476D01*
X290846428Y-113895238D01*
X290751190Y-113800000D01*
X290608333Y-113752380D01*
X290513095Y-113752380D01*
X290370238Y-113800000D01*
X290322619Y-113847619D01*
M02*
