M48
; DRILL file {KiCad (6.0.11-0)} date 
; FORMAT={-:-/ absolute / metric / decimal}
; #@! TF.CreationDate,2023-08-21T21:02:41+09:00
; #@! TF.GenerationSoftware,Kicad,Pcbnew,(6.0.11-0)
; #@! TF.FileFunction,NonPlated,1,2,NPTH
FMAT,2
METRIC
; #@! TA.AperFunction,NonPlated,NPTH,ComponentDrill
T1C2.000
; #@! TA.AperFunction,NonPlated,NPTH,ComponentDrill
T2C3.000
; #@! TA.AperFunction,NonPlated,NPTH,ComponentDrill
T3C4.000
%
G90
G05
T1
X25.46Y-28.55
X26.876Y-48.625
X30.639Y-69.36
X35.62Y-28.55
X37.036Y-48.625
X40.799Y-69.36
X44.99Y-28.713
X49.642Y-48.788
X55.144Y-29.067
X58.189Y-69.523
X59.796Y-49.142
X64.502Y-29.553
X68.343Y-69.877
X68.855Y-49.631
X73.295Y-102.301
X74.637Y-30.261
X77.412Y-70.366
X78.99Y-50.339
X83.399Y-101.239
X84.232Y-31.074
X87.547Y-71.074
X88.045Y-51.155
X94.337Y-32.136
X96.643Y-71.889
X98.15Y-52.217
X102.229Y-99.674
X103.379Y-33.278
X106.748Y-72.951
X107.176Y-53.357
X112.365Y-98.966
X113.44Y-34.692
X115.708Y-74.093
X117.237Y-54.771
X123.024Y-35.829
X125.769Y-75.507
X126.878Y-55.909
X131.566Y-98.13
X133.128Y-36.891
X135.386Y-76.647
X136.983Y-56.971
X141.726Y-98.13
X142.84Y-37.703
X145.49Y-77.709
X146.574Y-57.781
X152.975Y-38.411
X155.116Y-78.521
X156.709Y-58.489
X165.251Y-79.229
X178.15Y-79.229
X186.792Y-58.489
X188.285Y-78.521
X190.103Y-38.411
X196.928Y-57.781
X197.621Y-77.709
X200.238Y-37.703
X200.941Y-98.13
X206.263Y-56.971
X207.725Y-76.647
X209.573Y-36.891
X211.101Y-98.13
X216.368Y-55.909
X217.027Y-75.507
X219.678Y-35.829
X225.669Y-54.771
X227.088Y-74.093
X228.979Y-34.692
X230.302Y-98.966
X235.73Y-53.357
X236.389Y-72.951
X239.04Y-33.278
X240.438Y-99.674
X245.031Y-52.217
X246.493Y-71.889
X248.341Y-32.136
X255.136Y-51.155
X255.829Y-71.074
X258.446Y-31.074
X259.268Y-101.239
X264.471Y-50.339
X265.964Y-70.366
X267.781Y-30.261
X269.372Y-102.301
X274.607Y-49.631
X275.323Y-69.877
X277.917Y-29.553
X283.965Y-49.142
X285.477Y-69.523
X287.275Y-29.067
X294.119Y-48.788
X297.429Y-28.713
X301.99Y-69.36
X305.87Y-48.625
X306.864Y-28.55
X312.15Y-69.36
X316.03Y-48.625
X317.024Y-28.55
T2
X28.0Y-33.63
X29.416Y-53.705
X33.179Y-74.44
X34.35Y-31.09
X35.766Y-51.165
X39.529Y-71.9
X47.351Y-33.878
X52.003Y-53.953
X53.786Y-31.561
X58.438Y-51.636
X60.55Y-74.688
X66.681Y-34.797
X66.985Y-72.371
X71.035Y-54.875
X73.193Y-32.707
X76.352Y-107.088
X77.546Y-52.785
X79.591Y-75.61
X82.402Y-103.898
X86.103Y-73.52
X86.227Y-36.392
X90.04Y-56.473
X92.808Y-34.529
X96.621Y-54.61
X98.638Y-77.207
X105.118Y-104.565
X105.187Y-38.662
X105.219Y-75.344
X108.984Y-58.741
X111.275Y-101.588
X111.829Y-37.031
X115.626Y-57.11
X117.516Y-79.477
X124.158Y-77.846
X125.019Y-41.147
X128.873Y-61.227
X131.6Y-39.284
X134.106Y-103.21
X135.454Y-59.364
X137.381Y-81.965
X140.456Y-100.67
X143.962Y-80.102
X145.019Y-42.947
X148.753Y-63.025
X151.531Y-40.857
X155.265Y-60.935
X157.295Y-83.765
X163.807Y-81.675
X168.91Y-64.12
X175.26Y-61.58
X181.038Y-84.12
X187.196Y-81.143
X189.681Y-63.38
X192.991Y-43.302
X195.838Y-60.403
X199.148Y-40.325
X200.678Y-82.496
X203.481Y-103.21
X206.728Y-79.306
X209.32Y-61.758
X209.831Y-100.67
X212.631Y-41.678
X215.37Y-58.568
X218.68Y-38.488
X220.249Y-80.184
X226.184Y-76.785
X228.891Y-59.448
X232.201Y-39.369
X232.482Y-104.21
X234.826Y-56.049
X238.136Y-35.97
X238.994Y-102.12
X239.446Y-77.738
X245.496Y-74.548
X248.088Y-57.004
X251.399Y-36.923
X254.138Y-53.814
X257.448Y-33.733
X258.717Y-75.965
X261.263Y-106.557
X264.875Y-72.988
X267.36Y-55.23
X267.843Y-104.694
X270.67Y-35.152
X273.517Y-52.253
X276.827Y-32.175
X278.038Y-74.866
X284.296Y-72.105
X286.681Y-54.131
X289.991Y-34.056
X292.938Y-51.37
X296.248Y-31.295
X304.53Y-74.44
X308.41Y-53.705
X309.404Y-33.63
X310.88Y-71.9
X314.76Y-51.165
X315.754Y-31.09
T3
X30.54Y-28.55
X31.956Y-48.625
X35.719Y-69.36
X50.067Y-28.89
X54.719Y-48.965
X63.266Y-69.7
X69.57Y-29.907
X73.923Y-49.985
X78.347Y-101.77
X82.48Y-70.72
X89.284Y-31.605
X93.097Y-51.686
X101.695Y-72.42
X107.297Y-99.32
X108.409Y-33.985
X112.207Y-54.064
X120.738Y-74.8
X128.076Y-36.36
X131.93Y-56.44
X136.646Y-98.13
X140.438Y-77.178
X147.907Y-38.057
X151.641Y-58.135
X160.183Y-78.875
X171.45Y-59.04
X183.218Y-78.875
X191.86Y-58.135
X195.17Y-38.057
X202.673Y-77.178
X206.021Y-98.13
X211.315Y-56.44
X214.626Y-36.36
X222.057Y-74.8
X230.7Y-54.064
X234.01Y-33.985
X235.37Y-99.32
X241.441Y-72.42
X250.083Y-51.686
X253.394Y-31.605
X260.897Y-70.72
X264.32Y-101.77
X269.539Y-49.985
X272.849Y-29.907
X280.4Y-69.7
X289.042Y-48.965
X292.352Y-28.89
X307.07Y-69.36
X310.95Y-48.625
X311.944Y-28.55
T0
M30
