G04 #@! TF.GenerationSoftware,KiCad,Pcbnew,(6.0.11-0)*
G04 #@! TF.CreationDate,2023-08-21T21:01:56+09:00*
G04 #@! TF.ProjectId,SYMMETRIA,53594d4d-4554-4524-9941-2e6b69636164,rev?*
G04 #@! TF.SameCoordinates,Original*
G04 #@! TF.FileFunction,Profile,NP*
%FSLAX46Y46*%
G04 Gerber Fmt 4.6, Leading zero omitted, Abs format (unit mm)*
G04 Created by KiCad (PCBNEW (6.0.11-0)) date 2023-08-21 21:01:56*
%MOMM*%
%LPD*%
G01*
G04 APERTURE LIST*
G04 #@! TA.AperFunction,Profile*
%ADD10C,0.100000*%
G04 #@! TD*
G04 #@! TA.AperFunction,Profile*
%ADD11C,0.120000*%
G04 #@! TD*
G04 APERTURE END LIST*
D10*
X320625000Y-17250000D02*
X22275000Y-17250000D01*
X323625000Y-20250000D02*
G75*
G03*
X320625000Y-17250000I-3000000J0D01*
G01*
X19275000Y-20250000D02*
X19275000Y-113050000D01*
X320625000Y-116050000D02*
G75*
G03*
X323625000Y-113050000I0J3000000D01*
G01*
X22275000Y-17250000D02*
G75*
G03*
X19275000Y-20250000I0J-3000000D01*
G01*
X323625000Y-20250000D02*
X323625000Y-113050000D01*
X22275000Y-116050000D02*
X320625000Y-116050000D01*
X19275000Y-113050000D02*
G75*
G03*
X22275000Y-116050000I3000000J0D01*
G01*
D11*
X68319173Y-22878824D02*
X71810647Y-23122971D01*
X71587427Y-26315176D02*
X68095953Y-26071029D01*
X68095953Y-26071029D02*
X68319173Y-22878824D01*
X71810647Y-23122971D02*
X71587427Y-26315176D01*
X207786800Y-90843200D02*
X207786800Y-94043200D01*
X207786800Y-94043200D02*
X204286800Y-94043200D01*
X204286800Y-90843200D02*
X207786800Y-90843200D01*
X204286800Y-94043200D02*
X204286800Y-90843200D01*
X33981700Y-65275800D02*
X33981700Y-62075800D01*
X37481700Y-65275800D02*
X33981700Y-65275800D01*
X37481700Y-62075800D02*
X37481700Y-65275800D01*
X33981700Y-62075800D02*
X37481700Y-62075800D01*
X312716000Y-41346000D02*
X312716000Y-44546000D01*
X309216000Y-41346000D02*
X312716000Y-41346000D01*
X309216000Y-44546000D02*
X309216000Y-41346000D01*
X312716000Y-44546000D02*
X309216000Y-44546000D01*
X234149673Y-91933024D02*
X237641147Y-92177171D01*
X237641147Y-92177171D02*
X237417927Y-95369376D01*
X233926453Y-95125229D02*
X234149673Y-91933024D01*
X237417927Y-95369376D02*
X233926453Y-95125229D01*
X100356141Y-68538210D02*
X100690632Y-65355740D01*
X103836968Y-68904060D02*
X100356141Y-68538210D01*
X104171459Y-65721590D02*
X103836968Y-68904060D01*
X100690632Y-65355740D02*
X104171459Y-65721590D01*
X290665973Y-44823151D02*
X287168105Y-44945299D01*
X287056427Y-41747249D02*
X290554295Y-41625101D01*
X287168105Y-44945299D02*
X287056427Y-41747249D01*
X290554295Y-41625101D02*
X290665973Y-44823151D01*
X231723308Y-30184382D02*
X231277954Y-27015524D01*
X234743892Y-26528418D02*
X235189246Y-29697276D01*
X231277954Y-27015524D02*
X234743892Y-26528418D01*
X235189246Y-29697276D02*
X231723308Y-30184382D01*
X212309668Y-49013540D02*
X212644159Y-52196010D01*
X208828841Y-49379390D02*
X212309668Y-49013540D01*
X209163332Y-52561860D02*
X208828841Y-49379390D01*
X212644159Y-52196010D02*
X209163332Y-52561860D01*
X266498468Y-97888160D02*
X263017641Y-97522310D01*
X266832959Y-94705690D02*
X266498468Y-97888160D01*
X263017641Y-97522310D02*
X263352132Y-94339840D01*
X263352132Y-94339840D02*
X266832959Y-94705690D01*
X108550327Y-91933224D02*
X108773547Y-95125429D01*
X108773547Y-95125429D02*
X105282073Y-95369576D01*
X105282073Y-95369576D02*
X105058853Y-92177371D01*
X105058853Y-92177371D02*
X108550327Y-91933224D01*
X110681392Y-30550382D02*
X107215454Y-30063276D01*
X111126746Y-27381524D02*
X110681392Y-30550382D01*
X107660808Y-26894418D02*
X111126746Y-27381524D01*
X107215454Y-30063276D02*
X107660808Y-26894418D01*
X81040253Y-66525729D02*
X81263473Y-63333524D01*
X81263473Y-63333524D02*
X84754947Y-63577671D01*
X84531727Y-66769876D02*
X81040253Y-66525729D01*
X84754947Y-63577671D02*
X84531727Y-66769876D01*
X75859141Y-94703590D02*
X79339968Y-94337740D01*
X76193632Y-97886060D02*
X75859141Y-94703590D01*
X79339968Y-94337740D02*
X79674459Y-97520210D01*
X79674459Y-97520210D02*
X76193632Y-97886060D01*
X28800900Y-21635100D02*
X32300900Y-21635100D01*
X28800900Y-24835100D02*
X28800900Y-21635100D01*
X32300900Y-24835100D02*
X28800900Y-24835100D01*
X32300900Y-21635100D02*
X32300900Y-24835100D01*
X65281473Y-62483449D02*
X65169795Y-65681499D01*
X61783605Y-62361301D02*
X65281473Y-62483449D01*
X61671927Y-65559351D02*
X61783605Y-62361301D01*
X65169795Y-65681499D02*
X61671927Y-65559351D01*
X72672773Y-42953624D02*
X76164247Y-43197771D01*
X72449553Y-46145829D02*
X72672773Y-42953624D01*
X76164247Y-43197771D02*
X75941027Y-46389976D01*
X75941027Y-46389976D02*
X72449553Y-46145829D01*
X270831073Y-25960276D02*
X270607853Y-22768071D01*
X274099327Y-22523924D02*
X274322547Y-25716129D01*
X274322547Y-25716129D02*
X270831073Y-25960276D01*
X270607853Y-22768071D02*
X274099327Y-22523924D01*
X239291932Y-68528560D02*
X238957441Y-65346090D01*
X242772759Y-68162710D02*
X239291932Y-68528560D01*
X238957441Y-65346090D02*
X242438268Y-64980240D01*
X242438268Y-64980240D02*
X242772759Y-68162710D01*
X247928132Y-47810660D02*
X247593641Y-44628190D01*
X251074468Y-44262340D02*
X251408959Y-47444810D01*
X247593641Y-44628190D02*
X251074468Y-44262340D01*
X251408959Y-47444810D02*
X247928132Y-47810660D01*
X158713453Y-75046529D02*
X158936673Y-71854324D01*
X162204927Y-75290676D02*
X158713453Y-75046529D01*
X158936673Y-71854324D02*
X162428147Y-72098471D01*
X162428147Y-72098471D02*
X162204927Y-75290676D01*
X126733441Y-32476810D02*
X127067932Y-29294340D01*
X130548759Y-29660190D02*
X130214268Y-32842660D01*
X127067932Y-29294340D02*
X130548759Y-29660190D01*
X130214268Y-32842660D02*
X126733441Y-32476810D01*
X51968795Y-25232899D02*
X48470927Y-25110751D01*
X48470927Y-25110751D02*
X48582605Y-21912701D01*
X52080473Y-22034849D02*
X51968795Y-25232899D01*
X48582605Y-21912701D02*
X52080473Y-22034849D01*
X228412108Y-50262982D02*
X227966754Y-47094124D01*
X227966754Y-47094124D02*
X231432692Y-46607018D01*
X231878046Y-49775876D02*
X228412108Y-50262982D01*
X231432692Y-46607018D02*
X231878046Y-49775876D01*
X134078168Y-52931960D02*
X130597341Y-52566110D01*
X134412659Y-49749490D02*
X134078168Y-52931960D01*
X130931832Y-49383640D02*
X134412659Y-49749490D01*
X130597341Y-52566110D02*
X130931832Y-49383640D01*
X30216400Y-41712700D02*
X33716400Y-41712700D01*
X30216400Y-44912700D02*
X30216400Y-41712700D01*
X33716400Y-44912700D02*
X30216400Y-44912700D01*
X33716400Y-41712700D02*
X33716400Y-44912700D01*
X87951541Y-27723710D02*
X88286032Y-24541240D01*
X91432368Y-28089560D02*
X87951541Y-27723710D01*
X88286032Y-24541240D02*
X91766859Y-24907090D01*
X91766859Y-24907090D02*
X91432368Y-28089560D01*
X184696447Y-74675529D02*
X181204973Y-74919676D01*
X180981753Y-71727471D02*
X184473227Y-71483324D01*
X184473227Y-71483324D02*
X184696447Y-74675529D01*
X181204973Y-74919676D02*
X180981753Y-71727471D01*
X196635447Y-33856529D02*
X193143973Y-34100676D01*
X193143973Y-34100676D02*
X192920753Y-30908471D01*
X196412227Y-30664324D02*
X196635447Y-33856529D01*
X192920753Y-30908471D02*
X196412227Y-30664324D01*
X114913646Y-47457024D02*
X114468292Y-50625882D01*
X111447708Y-46969918D02*
X114913646Y-47457024D01*
X111002354Y-50138776D02*
X111447708Y-46969918D01*
X114468292Y-50625882D02*
X111002354Y-50138776D01*
X254387868Y-24178240D02*
X254722359Y-27360710D01*
X254722359Y-27360710D02*
X251241532Y-27726560D01*
X251241532Y-27726560D02*
X250907041Y-24544090D01*
X250907041Y-24544090D02*
X254387868Y-24178240D01*
X267525073Y-46036176D02*
X267301853Y-42843971D01*
X267301853Y-42843971D02*
X270793327Y-42599824D01*
X270793327Y-42599824D02*
X271016547Y-45792029D01*
X271016547Y-45792029D02*
X267525073Y-46036176D01*
X149922927Y-34483776D02*
X146431453Y-34239629D01*
X150146147Y-31291571D02*
X149922927Y-34483776D01*
X146431453Y-34239629D02*
X146654673Y-31047424D01*
X146654673Y-31047424D02*
X150146147Y-31291571D01*
X282019873Y-65555351D02*
X278522005Y-65677499D01*
X281908195Y-62357301D02*
X282019873Y-65555351D01*
X278522005Y-65677499D02*
X278410327Y-62479449D01*
X278410327Y-62479449D02*
X281908195Y-62357301D01*
X310206400Y-21265900D02*
X313706400Y-21265900D01*
X310206400Y-24465900D02*
X310206400Y-21265900D01*
X313706400Y-24465900D02*
X310206400Y-24465900D01*
X313706400Y-21265900D02*
X313706400Y-24465900D01*
X95242368Y-48168060D02*
X91761541Y-47802210D01*
X95576859Y-44985590D02*
X95242368Y-48168060D01*
X91761541Y-47802210D02*
X92096032Y-44619740D01*
X92096032Y-44619740D02*
X95576859Y-44985590D01*
X308834300Y-65269800D02*
X305334300Y-65269800D01*
X308834300Y-62069800D02*
X308834300Y-65269800D01*
X305334300Y-62069800D02*
X308834300Y-62069800D01*
X305334300Y-65269800D02*
X305334300Y-62069800D01*
X293856795Y-21551601D02*
X293968473Y-24749651D01*
X290470605Y-24871799D02*
X290358927Y-21673749D01*
X293968473Y-24749651D02*
X290470605Y-24871799D01*
X290358927Y-21673749D02*
X293856795Y-21551601D01*
X204002559Y-72938310D02*
X200521732Y-73304160D01*
X200187241Y-70121690D02*
X203668068Y-69755840D01*
X200521732Y-73304160D02*
X200187241Y-70121690D01*
X203668068Y-69755840D02*
X204002559Y-72938310D01*
X153887147Y-51357871D02*
X153663927Y-54550076D01*
X150395673Y-51113724D02*
X153887147Y-51357871D01*
X153663927Y-54550076D02*
X150172453Y-54305929D01*
X150172453Y-54305929D02*
X150395673Y-51113724D01*
X134911700Y-94052300D02*
X134911700Y-90852300D01*
X138411700Y-94052300D02*
X134911700Y-94052300D01*
X138411700Y-90852300D02*
X138411700Y-94052300D01*
X134911700Y-90852300D02*
X138411700Y-90852300D01*
X56725573Y-42110049D02*
X56613895Y-45308099D01*
X56613895Y-45308099D02*
X53116027Y-45185951D01*
X53116027Y-45185951D02*
X53227705Y-41987901D01*
X53227705Y-41987901D02*
X56725573Y-42110049D01*
X123003592Y-71366582D02*
X119537654Y-70879476D01*
X123448946Y-68197724D02*
X123003592Y-71366582D01*
X119537654Y-70879476D02*
X119983008Y-67710618D01*
X119983008Y-67710618D02*
X123448946Y-68197724D01*
X193111927Y-50744924D02*
X193335147Y-53937129D01*
X193335147Y-53937129D02*
X189843673Y-54181276D01*
X189843673Y-54181276D02*
X189620453Y-50989071D01*
X189620453Y-50989071D02*
X193111927Y-50744924D01*
X215622468Y-28927840D02*
X215956959Y-32110310D01*
X212476132Y-32476160D02*
X212141641Y-29293690D01*
X212141641Y-29293690D02*
X215622468Y-28927840D01*
X215956959Y-32110310D02*
X212476132Y-32476160D01*
X142957259Y-70116590D02*
X142622768Y-73299060D01*
X139141941Y-72933210D02*
X139476432Y-69750740D01*
X139476432Y-69750740D02*
X142957259Y-70116590D01*
X142622768Y-73299060D02*
X139141941Y-72933210D01*
X258878273Y-66770976D02*
X258655053Y-63578771D01*
X258655053Y-63578771D02*
X262146527Y-63334624D01*
X262146527Y-63334624D02*
X262369747Y-66526829D01*
X262369747Y-66526829D02*
X258878273Y-66770976D01*
X219771008Y-70993382D02*
X219325654Y-67824524D01*
X223236946Y-70506276D02*
X219771008Y-70993382D01*
X219325654Y-67824524D02*
X222791592Y-67337418D01*
X222791592Y-67337418D02*
X223236946Y-70506276D01*
M02*
