G04 #@! TF.GenerationSoftware,KiCad,Pcbnew,(6.0.11-0)*
G04 #@! TF.CreationDate,2023-08-21T21:01:56+09:00*
G04 #@! TF.ProjectId,SYMMETRIA,53594d4d-4554-4524-9941-2e6b69636164,rev?*
G04 #@! TF.SameCoordinates,Original*
G04 #@! TF.FileFunction,Copper,L2,Bot*
G04 #@! TF.FilePolarity,Positive*
%FSLAX46Y46*%
G04 Gerber Fmt 4.6, Leading zero omitted, Abs format (unit mm)*
G04 Created by KiCad (PCBNEW (6.0.11-0)) date 2023-08-21 21:01:56*
%MOMM*%
%LPD*%
G01*
G04 APERTURE LIST*
G04 Aperture macros list*
%AMRoundRect*
0 Rectangle with rounded corners*
0 $1 Rounding radius*
0 $2 $3 $4 $5 $6 $7 $8 $9 X,Y pos of 4 corners*
0 Add a 4 corners polygon primitive as box body*
4,1,4,$2,$3,$4,$5,$6,$7,$8,$9,$2,$3,0*
0 Add four circle primitives for the rounded corners*
1,1,$1+$1,$2,$3*
1,1,$1+$1,$4,$5*
1,1,$1+$1,$6,$7*
1,1,$1+$1,$8,$9*
0 Add four rect primitives between the rounded corners*
20,1,$1+$1,$2,$3,$4,$5,0*
20,1,$1+$1,$4,$5,$6,$7,0*
20,1,$1+$1,$6,$7,$8,$9,0*
20,1,$1+$1,$8,$9,$2,$3,0*%
%AMRotRect*
0 Rectangle, with rotation*
0 The origin of the aperture is its center*
0 $1 length*
0 $2 width*
0 $3 Rotation angle, in degrees counterclockwise*
0 Add horizontal line*
21,1,$1,$2,0,0,$3*%
%AMFreePoly0*
4,1,22,1.150000,1.217000,1.242000,1.125000,1.275000,1.000000,1.275000,-0.378000,1.255000,-0.477000,1.196000,-0.560000,1.110000,-0.613000,0.807000,-0.752000,0.530000,-0.939000,0.287000,-1.167000,0.203000,-1.228000,0.102000,-1.250000,-1.025000,-1.250000,-1.150000,-1.217000,-1.242000,-1.125000,-1.275000,-1.000000,-1.275000,1.000000,-1.242000,1.125000,-1.150000,1.217000,-1.025000,1.250000,
1.025000,1.250000,1.150000,1.217000,1.150000,1.217000,$1*%
G04 Aperture macros list end*
G04 #@! TA.AperFunction,SMDPad,CuDef*
%ADD10RotRect,3.300000X3.000000X354.000000*%
G04 #@! TD*
G04 #@! TA.AperFunction,SMDPad,CuDef*
%ADD11RotRect,1.300000X0.950000X96.000000*%
G04 #@! TD*
G04 #@! TA.AperFunction,SMDPad,CuDef*
%ADD12RotRect,2.200000X0.820000X176.000000*%
G04 #@! TD*
G04 #@! TA.AperFunction,SMDPad,CuDef*
%ADD13R,2.200000X0.820000*%
G04 #@! TD*
G04 #@! TA.AperFunction,SMDPad,CuDef*
%ADD14RotRect,3.300000X3.000000X8.000000*%
G04 #@! TD*
G04 #@! TA.AperFunction,ComponentPad*
%ADD15C,1.524000*%
G04 #@! TD*
G04 #@! TA.AperFunction,SMDPad,CuDef*
%ADD16R,3.300000X3.000000*%
G04 #@! TD*
G04 #@! TA.AperFunction,SMDPad,CuDef*
%ADD17R,0.950000X1.300000*%
G04 #@! TD*
G04 #@! TA.AperFunction,SMDPad,CuDef*
%ADD18RotRect,1.300000X0.950000X264.000000*%
G04 #@! TD*
G04 #@! TA.AperFunction,SMDPad,CuDef*
%ADD19RotRect,1.300000X0.950000X86.000000*%
G04 #@! TD*
G04 #@! TA.AperFunction,SMDPad,CuDef*
%ADD20RotRect,2.200000X0.820000X356.000000*%
G04 #@! TD*
G04 #@! TA.AperFunction,SMDPad,CuDef*
%ADD21RotRect,1.300000X0.950000X276.000000*%
G04 #@! TD*
G04 #@! TA.AperFunction,SMDPad,CuDef*
%ADD22RotRect,2.200000X0.820000X174.000000*%
G04 #@! TD*
G04 #@! TA.AperFunction,SMDPad,CuDef*
%ADD23RotRect,3.300000X3.000000X6.000000*%
G04 #@! TD*
G04 #@! TA.AperFunction,SMDPad,CuDef*
%ADD24RotRect,2.200000X0.820000X2.000000*%
G04 #@! TD*
G04 #@! TA.AperFunction,SMDPad,CuDef*
%ADD25RotRect,3.300000X3.000000X352.000000*%
G04 #@! TD*
G04 #@! TA.AperFunction,SMDPad,CuDef*
%ADD26RotRect,2.200000X0.820000X188.000000*%
G04 #@! TD*
G04 #@! TA.AperFunction,SMDPad,CuDef*
%ADD27RotRect,1.300000X0.950000X266.000000*%
G04 #@! TD*
G04 #@! TA.AperFunction,SMDPad,CuDef*
%ADD28RotRect,2.200000X0.820000X6.000000*%
G04 #@! TD*
G04 #@! TA.AperFunction,SMDPad,CuDef*
%ADD29RotRect,3.300000X3.000000X4.000000*%
G04 #@! TD*
G04 #@! TA.AperFunction,SMDPad,CuDef*
%ADD30RotRect,2.200000X0.820000X354.000000*%
G04 #@! TD*
G04 #@! TA.AperFunction,ComponentPad*
%ADD31C,2.000000*%
G04 #@! TD*
G04 #@! TA.AperFunction,ComponentPad*
%ADD32R,2.500000X3.200000*%
G04 #@! TD*
G04 #@! TA.AperFunction,SMDPad,CuDef*
%ADD33RotRect,3.300000X3.000000X356.000000*%
G04 #@! TD*
G04 #@! TA.AperFunction,SMDPad,CuDef*
%ADD34RotRect,3.300000X3.000000X2.000000*%
G04 #@! TD*
G04 #@! TA.AperFunction,SMDPad,CuDef*
%ADD35RotRect,1.300000X0.950000X92.000000*%
G04 #@! TD*
G04 #@! TA.AperFunction,SMDPad,CuDef*
%ADD36RotRect,2.200000X0.820000X4.000000*%
G04 #@! TD*
G04 #@! TA.AperFunction,SMDPad,CuDef*
%ADD37RotRect,1.300000X0.950000X94.000000*%
G04 #@! TD*
G04 #@! TA.AperFunction,SMDPad,CuDef*
%ADD38RotRect,1.300000X0.950000X262.000000*%
G04 #@! TD*
G04 #@! TA.AperFunction,SMDPad,CuDef*
%ADD39RotRect,2.200000X0.820000X172.000000*%
G04 #@! TD*
G04 #@! TA.AperFunction,SMDPad,CuDef*
%ADD40RotRect,1.300000X0.950000X268.000000*%
G04 #@! TD*
G04 #@! TA.AperFunction,SMDPad,CuDef*
%ADD41RotRect,2.200000X0.820000X178.000000*%
G04 #@! TD*
G04 #@! TA.AperFunction,SMDPad,CuDef*
%ADD42RotRect,2.200000X0.820000X184.000000*%
G04 #@! TD*
G04 #@! TA.AperFunction,SMDPad,CuDef*
%ADD43RotRect,2.200000X0.820000X186.000000*%
G04 #@! TD*
G04 #@! TA.AperFunction,SMDPad,CuDef*
%ADD44RotRect,1.300000X0.950000X98.000000*%
G04 #@! TD*
G04 #@! TA.AperFunction,ComponentPad*
%ADD45O,1.600000X1.300000*%
G04 #@! TD*
G04 #@! TA.AperFunction,SMDPad,CuDef*
%ADD46RoundRect,0.249600X0.550400X1.300400X-0.550400X1.300400X-0.550400X-1.300400X0.550400X-1.300400X0*%
G04 #@! TD*
G04 #@! TA.AperFunction,ComponentPad*
%ADD47C,3.100000*%
G04 #@! TD*
G04 #@! TA.AperFunction,SMDPad,CuDef*
%ADD48RoundRect,0.249600X0.550400X0.900400X-0.550400X0.900400X-0.550400X-0.900400X0.550400X-0.900400X0*%
G04 #@! TD*
G04 #@! TA.AperFunction,SMDPad,CuDef*
%ADD49RoundRect,0.250000X1.025000X1.000000X-1.025000X1.000000X-1.025000X-1.000000X1.025000X-1.000000X0*%
G04 #@! TD*
G04 #@! TA.AperFunction,SMDPad,CuDef*
%ADD50FreePoly0,180.000000*%
G04 #@! TD*
G04 #@! TA.AperFunction,SMDPad,CuDef*
%ADD51RotRect,2.200000X0.820000X8.000000*%
G04 #@! TD*
G04 #@! TA.AperFunction,SMDPad,CuDef*
%ADD52RotRect,3.300000X3.000000X358.000000*%
G04 #@! TD*
G04 #@! TA.AperFunction,SMDPad,CuDef*
%ADD53RotRect,1.300000X0.950000X84.000000*%
G04 #@! TD*
G04 #@! TA.AperFunction,SMDPad,CuDef*
%ADD54RotRect,2.200000X0.820000X352.000000*%
G04 #@! TD*
G04 #@! TA.AperFunction,SMDPad,CuDef*
%ADD55RotRect,2.200000X0.820000X182.000000*%
G04 #@! TD*
G04 #@! TA.AperFunction,ComponentPad*
%ADD56O,1.500000X1.500000*%
G04 #@! TD*
G04 #@! TA.AperFunction,SMDPad,CuDef*
%ADD57RotRect,1.300000X0.950000X274.000000*%
G04 #@! TD*
G04 #@! TA.AperFunction,SMDPad,CuDef*
%ADD58RotRect,2.200000X0.820000X358.000000*%
G04 #@! TD*
G04 #@! TA.AperFunction,ViaPad*
%ADD59C,0.800000*%
G04 #@! TD*
G04 #@! TA.AperFunction,Conductor*
%ADD60C,0.250000*%
G04 #@! TD*
G04 #@! TA.AperFunction,Conductor*
%ADD61C,0.500000*%
G04 #@! TD*
G04 APERTURE END LIST*
D10*
X139069905Y-59784604D03*
X125278904Y-60889102D03*
D11*
X206215238Y-39038376D03*
X205844162Y-35507824D03*
D12*
X66958169Y-25139391D03*
X72843796Y-25550955D03*
X72948431Y-24054609D03*
X67062804Y-23643045D03*
D13*
X208986800Y-91693200D03*
X203086800Y-91693200D03*
X203086800Y-93193200D03*
X208986800Y-93193200D03*
D14*
X238436164Y-55582052D03*
X225322017Y-59990087D03*
D13*
X32781700Y-64425800D03*
X38681700Y-64425800D03*
X38681700Y-62925800D03*
X32781700Y-62925800D03*
X313916000Y-42196000D03*
X308016000Y-42196000D03*
X308016000Y-43696000D03*
X313916000Y-43696000D03*
D15*
X163793600Y-21240700D03*
X163793600Y-23780700D03*
X163793600Y-26320700D03*
X163793600Y-28860700D03*
X163793600Y-31400700D03*
X163793600Y-33940700D03*
X163793600Y-36480700D03*
X163793600Y-39020700D03*
X163793600Y-41560700D03*
X163793600Y-44100700D03*
X163793600Y-46640700D03*
X163793600Y-49180700D03*
X179013600Y-49180700D03*
X179013600Y-46640700D03*
X179013600Y-44100700D03*
X179013600Y-41560700D03*
X179013600Y-39020700D03*
X179013600Y-36480700D03*
X179013600Y-33940700D03*
X179013600Y-31400700D03*
X179013600Y-28860700D03*
X179013600Y-26320700D03*
X179013600Y-23780700D03*
X179013600Y-21240700D03*
X179013600Y-18700700D03*
X163793600Y-18700700D03*
D16*
X37990000Y-31130000D03*
X24390000Y-33670000D03*
D17*
X197330100Y-99885700D03*
X197330100Y-96335700D03*
D18*
X119689938Y-33510224D03*
X119318862Y-37040776D03*
D19*
X226599082Y-100469776D03*
X226846718Y-96928424D03*
D17*
X45243800Y-98237500D03*
X45243800Y-101787500D03*
D20*
X238778931Y-93108809D03*
X232893304Y-92697245D03*
X232788669Y-94193591D03*
X238674296Y-94605155D03*
D21*
X69509262Y-100831024D03*
X69880338Y-104361576D03*
D22*
X99251564Y-67567432D03*
X105119244Y-68184150D03*
X105276036Y-66692368D03*
X99408356Y-66075650D03*
D23*
X218994272Y-58227129D03*
X205734276Y-62174802D03*
D24*
X291783229Y-42432703D03*
X285886822Y-42638611D03*
X285939171Y-44137697D03*
X291835578Y-43931789D03*
D16*
X43168800Y-71940000D03*
X29568800Y-74480000D03*
D25*
X115427631Y-37576731D03*
X101606485Y-38199258D03*
D26*
X230416689Y-29509662D03*
X236259271Y-28688540D03*
X236050511Y-27203138D03*
X230207929Y-28024260D03*
D27*
X65441018Y-47672424D03*
X65193382Y-51213776D03*
D17*
X162831500Y-57264900D03*
X162831500Y-60814900D03*
D27*
X73992518Y-68236524D03*
X73744882Y-71777876D03*
D28*
X213591944Y-49733450D03*
X207724264Y-50350168D03*
X207881056Y-51841950D03*
X213748736Y-51225232D03*
D29*
X280460924Y-31961030D03*
X267071234Y-35443530D03*
X202782024Y-40111030D03*
X189392334Y-43593530D03*
D30*
X267937536Y-95676468D03*
X262069856Y-95059750D03*
X261913064Y-96551532D03*
X267780744Y-97168250D03*
D31*
X33218800Y-107512500D03*
X38218800Y-107512500D03*
X35718800Y-107512500D03*
D32*
X30118800Y-100012500D03*
X41318800Y-100012500D03*
D31*
X38218800Y-93012500D03*
X33218800Y-93012500D03*
D33*
X242621881Y-102413401D03*
X228877828Y-103998526D03*
D16*
X319393800Y-31130000D03*
X305793800Y-33670000D03*
X318400000Y-51205000D03*
X304800000Y-53745000D03*
D23*
X257762372Y-53473129D03*
X244502376Y-57420802D03*
D33*
X81174581Y-53078401D03*
X67430528Y-54663526D03*
D34*
X299887202Y-31208427D03*
X286384132Y-34221513D03*
D35*
X280438547Y-51029719D03*
X280314653Y-47481881D03*
D11*
X241653738Y-54301376D03*
X241282662Y-50770824D03*
D10*
X96423905Y-34949604D03*
X82632904Y-36054102D03*
D36*
X109806696Y-92697445D03*
X103921069Y-93109009D03*
X104025704Y-94605355D03*
X109911331Y-94193791D03*
D25*
X127756531Y-78391731D03*
X113935385Y-79014258D03*
D37*
X186666618Y-40409176D03*
X186418982Y-36867824D03*
D38*
X100131032Y-30886874D03*
X99636968Y-34402326D03*
D17*
X316706300Y-101787500D03*
X316706300Y-98237500D03*
D10*
X135215805Y-39704604D03*
X121424804Y-40809102D03*
D39*
X106145429Y-29054540D03*
X111988011Y-29875662D03*
X112196771Y-28390260D03*
X106354189Y-27569138D03*
D16*
X213471200Y-100710000D03*
X199871200Y-103250000D03*
D40*
X54690347Y-67711081D03*
X54566453Y-71258919D03*
D17*
X23312600Y-46700000D03*
X23312600Y-50250000D03*
D18*
X84718538Y-48803024D03*
X84347462Y-52333576D03*
D12*
X79902469Y-65594091D03*
X85788096Y-66005655D03*
X85892731Y-64509309D03*
X80007104Y-64097745D03*
D28*
X80622244Y-95057650D03*
X74754564Y-95674368D03*
X74911356Y-97166150D03*
X80779036Y-96549432D03*
D13*
X27600900Y-23985100D03*
X33500900Y-23985100D03*
X33500900Y-22485100D03*
X27600900Y-22485100D03*
D18*
X123487138Y-53632324D03*
X123116062Y-57162876D03*
D41*
X60502322Y-64667989D03*
X66398729Y-64873897D03*
X66451078Y-63374811D03*
X60554671Y-63168903D03*
D11*
X244931938Y-34293876D03*
X244560862Y-30763324D03*
D20*
X77302031Y-44129409D03*
X71416404Y-43717845D03*
X71311769Y-45214191D03*
X77197396Y-45625755D03*
D23*
X249119972Y-74207129D03*
X235859976Y-78154802D03*
D29*
X199471924Y-60189030D03*
X186082234Y-63671530D03*
D23*
X210351972Y-78965129D03*
X197091976Y-82912802D03*
D42*
X269574704Y-25196055D03*
X275460331Y-24784491D03*
X275355696Y-23288145D03*
X269470069Y-23699709D03*
D33*
X89731381Y-73813401D03*
X75987328Y-75398526D03*
D27*
X143147518Y-55728524D03*
X142899882Y-59269876D03*
D10*
X108834905Y-75764604D03*
X95043904Y-76869102D03*
D43*
X238009656Y-67808650D03*
X243877336Y-67191932D03*
X243720544Y-65700150D03*
X237852864Y-66316868D03*
D34*
X296577602Y-51283427D03*
X283074532Y-54296513D03*
D27*
X151672218Y-76443624D03*
X151424582Y-79984976D03*
D28*
X252356744Y-44982250D03*
X246489064Y-45598968D03*
X246645856Y-47090750D03*
X252513536Y-46474032D03*
D17*
X127891700Y-96265100D03*
X127891700Y-99815100D03*
D37*
X174694818Y-81228876D03*
X174447182Y-77687524D03*
D40*
X41514247Y-26741881D03*
X41390353Y-30289719D03*
D44*
X225683532Y-36925726D03*
X225189468Y-33410274D03*
D37*
X264308918Y-32215576D03*
X264061282Y-28674224D03*
D12*
X157575669Y-74114891D03*
X163461296Y-74526455D03*
X163565931Y-73030109D03*
X157680304Y-72618545D03*
D17*
X21890600Y-26650000D03*
X21890600Y-30200000D03*
D22*
X125628864Y-31506032D03*
X131496544Y-32122750D03*
X131653336Y-30630968D03*
X125785656Y-30014250D03*
D45*
X168950000Y-66539900D03*
X173950000Y-66539900D03*
X171450000Y-66539900D03*
D46*
X165100000Y-59039900D03*
D47*
X165900000Y-59039900D03*
X177000000Y-59039900D03*
D48*
X177800000Y-58639900D03*
D45*
X168950000Y-52039900D03*
D49*
X165360000Y-64119900D03*
D45*
X173950000Y-52039900D03*
D50*
X178810000Y-61579900D03*
D41*
X47301322Y-24219389D03*
X53197729Y-24425297D03*
X53250078Y-22926211D03*
X47353671Y-22720303D03*
D51*
X232739311Y-47281738D03*
X226896729Y-48102860D03*
X227105489Y-49588262D03*
X232948071Y-48767140D03*
D16*
X314520000Y-71940000D03*
X300920000Y-74480000D03*
D38*
X103935632Y-51036174D03*
X103441568Y-54551626D03*
D23*
X261072472Y-33392129D03*
X247812476Y-37339802D03*
D30*
X135517236Y-50720268D03*
X129649556Y-50103550D03*
X129492764Y-51595332D03*
X135360444Y-52212050D03*
D23*
X222304472Y-38147129D03*
X209044476Y-42094802D03*
D52*
X62074221Y-51803430D03*
X48393861Y-53867249D03*
X70621521Y-72538430D03*
X56941161Y-74602249D03*
D33*
X158893381Y-61228401D03*
X145149328Y-62813526D03*
D29*
X114908824Y-101374030D03*
X101519134Y-104856530D03*
D10*
X100237005Y-55030604D03*
X86446004Y-56135102D03*
D14*
X229793664Y-76318052D03*
X216679517Y-80726087D03*
D31*
X304681300Y-107512500D03*
X309681300Y-107512500D03*
X307181300Y-107512500D03*
D32*
X312781300Y-100012500D03*
X301581300Y-100012500D03*
D31*
X309681300Y-93012500D03*
X304681300Y-93012500D03*
D10*
X271459305Y-105114604D03*
X257668304Y-106219102D03*
D13*
X34916400Y-42562700D03*
X29016400Y-42562700D03*
X29016400Y-44062700D03*
X34916400Y-44062700D03*
D22*
X86846964Y-26752932D03*
X92714644Y-27369650D03*
X92871436Y-25877868D03*
X87003756Y-25261150D03*
D53*
X255524762Y-102553576D03*
X255895838Y-99023024D03*
D34*
X287935102Y-72018427D03*
X274432032Y-75031513D03*
D10*
X147577405Y-80522604D03*
X133786404Y-81627102D03*
D38*
X112432932Y-71701874D03*
X111938868Y-75217326D03*
D33*
X167435081Y-81968401D03*
X153691028Y-83553526D03*
D44*
X222398232Y-57017926D03*
X221904168Y-53502474D03*
D42*
X179948604Y-74155455D03*
X185834231Y-73743891D03*
X185729596Y-72247545D03*
X179843969Y-72659109D03*
D27*
X61085118Y-27613524D03*
X60837482Y-31154876D03*
D42*
X191887604Y-33336455D03*
X197773231Y-32924891D03*
X197668596Y-31428545D03*
X191782969Y-31840109D03*
D54*
X115983671Y-48465760D03*
X110141089Y-47644638D03*
X109932329Y-49130040D03*
X115774911Y-49951162D03*
D29*
X268508424Y-72774030D03*
X255118734Y-76256530D03*
D43*
X249959256Y-27006650D03*
X255826936Y-26389932D03*
X255670144Y-24898150D03*
X249802464Y-25514868D03*
D36*
X272049696Y-43364045D03*
X266164069Y-43775609D03*
X266268704Y-45271955D03*
X272154331Y-44860391D03*
D12*
X145293669Y-33307991D03*
X151179296Y-33719555D03*
X151283931Y-32223209D03*
X145398304Y-31811645D03*
D37*
X252380418Y-73083176D03*
X252132782Y-69541824D03*
D11*
X202856438Y-59030376D03*
X202485362Y-55499824D03*
D55*
X277293071Y-64869897D03*
X283189478Y-64663989D03*
X283137129Y-63164903D03*
X277240722Y-63370811D03*
D13*
X309006400Y-23615900D03*
X314906400Y-23615900D03*
X314906400Y-22115900D03*
X309006400Y-22115900D03*
D27*
X139350018Y-35766124D03*
X139102382Y-39307476D03*
D30*
X96681436Y-45956368D03*
X90813756Y-45339650D03*
X90656964Y-46831432D03*
X96524644Y-47448150D03*
D16*
X39406300Y-51205000D03*
X25806300Y-53745000D03*
D44*
X213690032Y-77747226D03*
X213195968Y-74231774D03*
D13*
X304134300Y-64419800D03*
X310034300Y-64419800D03*
X310034300Y-62919800D03*
X304134300Y-62919800D03*
D56*
X194529100Y-20640400D03*
X197029100Y-20640400D03*
X192029100Y-20640400D03*
D23*
X86026072Y-103557129D03*
X72766076Y-107504802D03*
D57*
X98506482Y-98103224D03*
X98754118Y-101644576D03*
D18*
X132012138Y-74480224D03*
X131641062Y-78010776D03*
D40*
X46165347Y-46908781D03*
X46041453Y-50456619D03*
D37*
X261025318Y-52399276D03*
X260777682Y-48857924D03*
D55*
X289241671Y-24064197D03*
X295138078Y-23858289D03*
X295085729Y-22359203D03*
X289189322Y-22565111D03*
D25*
X119225031Y-57655731D03*
X105403885Y-58278258D03*
D35*
X283752347Y-30919919D03*
X283628453Y-27372081D03*
D43*
X199239456Y-72584250D03*
X205107136Y-71967532D03*
X204950344Y-70475750D03*
X199082664Y-71092468D03*
D17*
X27019400Y-67585000D03*
X27019400Y-71135000D03*
D20*
X155024931Y-52289509D03*
X149139304Y-51877945D03*
X149034669Y-53374291D03*
X154920296Y-53785855D03*
D17*
X298417300Y-71171400D03*
X298417300Y-67621400D03*
D29*
X277150824Y-52039030D03*
X263761134Y-55521530D03*
D17*
X303317300Y-30333800D03*
X303317300Y-26783800D03*
D13*
X139611700Y-91702300D03*
X133711700Y-91702300D03*
X133711700Y-93202300D03*
X139611700Y-93202300D03*
D11*
X233031838Y-75012476D03*
X232660762Y-71481924D03*
D58*
X57895178Y-43001411D03*
X51998771Y-42795503D03*
X51946422Y-44294589D03*
X57842829Y-44500497D03*
D37*
X183297018Y-60505176D03*
X183049382Y-56963824D03*
D16*
X144095800Y-100710000D03*
X130495800Y-103250000D03*
D33*
X76821481Y-33000401D03*
X63077428Y-34585526D03*
D39*
X118467629Y-69870740D03*
X124310211Y-70691862D03*
X124518971Y-69206460D03*
X118676389Y-68385338D03*
D35*
X271762247Y-71806819D03*
X271638353Y-68258981D03*
D36*
X194368296Y-51509145D03*
X188482669Y-51920709D03*
X188587304Y-53417055D03*
X194472931Y-53005491D03*
D18*
X80921338Y-28748024D03*
X80550262Y-32278576D03*
D43*
X211193856Y-31756250D03*
X217061536Y-31139532D03*
X216904744Y-29647750D03*
X211037064Y-30264468D03*
D14*
X241746164Y-35503052D03*
X228632017Y-39911087D03*
D11*
X194229038Y-79811676D03*
X193857962Y-76281124D03*
D18*
X93243538Y-69713624D03*
X92872462Y-73244176D03*
D17*
X302286800Y-50413700D03*
X302286800Y-46863700D03*
D52*
X57422021Y-31728430D03*
X43741661Y-33792249D03*
D22*
X138037364Y-71962432D03*
X143905044Y-72579150D03*
X144061836Y-71087368D03*
X138194156Y-70470650D03*
D42*
X257621904Y-66006755D03*
X263507531Y-65595191D03*
X263402896Y-64098845D03*
X257517269Y-64510409D03*
D31*
X150476000Y-21200200D03*
X143976000Y-21200200D03*
D29*
X190829524Y-80929030D03*
X177439834Y-84411530D03*
D26*
X218464389Y-70318662D03*
X224306971Y-69497540D03*
X224098211Y-68012138D03*
X218255629Y-68833260D03*
D33*
X155159381Y-41150401D03*
X141415328Y-42735526D03*
D59*
X222721519Y-31769450D03*
X241406577Y-30784648D03*
X103037826Y-30886900D03*
X204051339Y-35053872D03*
X186418888Y-32479027D03*
X44581907Y-26945184D03*
X262140188Y-28882312D03*
X63739400Y-27431653D03*
X117714700Y-33165605D03*
X183068467Y-53707478D03*
X204459142Y-56367187D03*
X126179956Y-53491200D03*
X223639300Y-53501100D03*
X243592009Y-50576521D03*
X258821727Y-49032028D03*
X105674961Y-51392811D03*
X145104296Y-53566129D03*
X50175979Y-66270000D03*
X114144907Y-71754903D03*
X149018651Y-76298400D03*
X73883200Y-66270000D03*
X135049859Y-73491019D03*
X154846341Y-96335700D03*
X163974187Y-62278212D03*
X166189300Y-69677700D03*
X106857200Y-69713600D03*
X199203615Y-73701075D03*
X42318880Y-64425841D03*
X190633455Y-73701075D03*
X203436800Y-89710300D03*
X60525823Y-67148289D03*
X207136641Y-32949300D03*
X85438900Y-67148289D03*
X145747500Y-28824903D03*
X208636800Y-95169100D03*
X193956933Y-74550575D03*
X114562341Y-94377691D03*
X84361026Y-96346767D03*
X241625184Y-94583386D03*
X158029500Y-71176000D03*
X176772463Y-72631252D03*
X260773299Y-98338400D03*
X111459800Y-64227700D03*
X68642400Y-63337900D03*
X78155600Y-63337900D03*
X102290240Y-94846299D03*
X84650297Y-94858336D03*
X302780500Y-61609900D03*
X269547473Y-76882400D03*
X195970712Y-72547700D03*
X189059503Y-72547700D03*
X244217663Y-44562581D03*
X238501600Y-44566317D03*
X196379000Y-54015100D03*
X44330400Y-36704971D03*
X44330400Y-69368553D03*
X196379000Y-49440900D03*
X44330400Y-51203074D03*
X163293402Y-54571976D03*
X164412000Y-56882000D03*
X61624500Y-49176570D03*
X212552400Y-60726251D03*
X218546700Y-44177421D03*
X56972300Y-38930000D03*
X221856900Y-41502300D03*
X211380900Y-75453400D03*
X241209700Y-86252500D03*
X240417100Y-43606767D03*
X81224300Y-50148500D03*
X237331000Y-64722800D03*
X81224300Y-41495500D03*
X230661435Y-73712488D03*
X242643800Y-45513400D03*
X96301400Y-43295300D03*
X109874200Y-73123405D03*
X246599000Y-85335000D03*
X250435107Y-70766731D03*
X162419800Y-43979000D03*
X100966008Y-57854425D03*
X250435107Y-62816573D03*
X274250893Y-56989049D03*
X118779400Y-49696130D03*
X118779400Y-60040400D03*
X127882400Y-82490000D03*
X280012000Y-41982700D03*
X143645800Y-94219600D03*
X175405400Y-45525600D03*
X277404415Y-46957182D03*
X269316562Y-69781491D03*
X118779400Y-45704203D03*
X138639979Y-52668418D03*
X299437500Y-34970000D03*
X136099668Y-42773144D03*
X147719000Y-75573200D03*
X296127900Y-47136700D03*
X148589792Y-43710500D03*
X287302600Y-68096946D03*
X139662500Y-62549300D03*
X148571008Y-46526288D03*
X158444500Y-53197823D03*
X170313300Y-55875100D03*
D60*
X205844200Y-35056600D02*
X205844200Y-35507800D01*
X63739400Y-27431653D02*
X63783091Y-27387962D01*
X303317300Y-26783800D02*
X303317300Y-26366284D01*
X186418888Y-32479027D02*
X186419000Y-32479139D01*
X186418888Y-32479027D02*
X187971969Y-32479027D01*
X80921300Y-28748000D02*
X80921300Y-28713100D01*
X222721519Y-31769450D02*
X222721555Y-32950409D01*
X188431945Y-32939003D02*
X188431945Y-34595826D01*
X283628500Y-27519000D02*
X264520950Y-27519000D01*
X63783091Y-27387962D02*
X80461537Y-27387962D01*
X80921300Y-28713100D02*
X91150239Y-28713100D01*
X283628500Y-26825481D02*
X283628500Y-27519000D01*
X204051339Y-35053872D02*
X205390210Y-35053872D01*
X44581907Y-26945184D02*
X41717550Y-26945184D01*
X63739400Y-27431653D02*
X63557553Y-27613500D01*
X80921300Y-27847725D02*
X80921300Y-28713100D01*
X91609600Y-29172461D02*
X91609600Y-30242196D01*
X138861647Y-35277753D02*
X132551191Y-35277753D01*
X241427901Y-30763324D02*
X244560862Y-30763324D01*
X205827100Y-35056600D02*
X205844200Y-35056600D01*
X21890600Y-26397958D02*
X21890600Y-26650000D01*
X131631458Y-33510200D02*
X119689962Y-33510200D01*
X264061300Y-27978650D02*
X264061300Y-28674200D01*
X117714700Y-33165605D02*
X119345319Y-33165605D01*
X41514200Y-26741900D02*
X41514200Y-26294618D01*
X63739400Y-27431653D02*
X61266989Y-27431653D01*
X186419000Y-32479139D02*
X186419000Y-35056600D01*
X241406577Y-30784648D02*
X241427925Y-30763300D01*
X92069170Y-30701766D02*
X99945924Y-30701766D01*
X103037798Y-30886872D02*
X100130791Y-30886872D01*
X41054537Y-25834955D02*
X22453603Y-25834955D01*
X186419000Y-36867800D02*
X186419000Y-35056600D01*
X303317300Y-26366284D02*
X284087697Y-26366284D01*
X223181460Y-33410300D02*
X225189500Y-33410300D01*
X188892719Y-35056600D02*
X204048611Y-35056600D01*
X262140188Y-28882312D02*
X263853194Y-28882312D01*
X103037826Y-30886900D02*
X103037798Y-30886872D01*
X132091400Y-34817962D02*
X132091400Y-33970142D01*
X223181460Y-33410345D02*
G75*
G02*
X222721555Y-32950409I40J459945D01*
G01*
X21890555Y-26397958D02*
G75*
G02*
X22453603Y-25834955I563045J-42D01*
G01*
X205844128Y-35507824D02*
G75*
G03*
X205390210Y-35053872I-453928J24D01*
G01*
X138861647Y-35277682D02*
G75*
G02*
X139350018Y-35766124I-47J-488418D01*
G01*
X241427901Y-30763277D02*
G75*
G03*
X241406577Y-30784648I-1J-21323D01*
G01*
X132091447Y-34817962D02*
G75*
G03*
X132551191Y-35277753I459753J-38D01*
G01*
X204051300Y-35053872D02*
G75*
G02*
X204048611Y-35056600I-2700J-28D01*
G01*
X100131034Y-30886874D02*
G75*
G03*
X99945924Y-30701766I-185134J-26D01*
G01*
X119689965Y-33510214D02*
G75*
G02*
X119689962Y-33510200I35J14D01*
G01*
X100131013Y-30886864D02*
G75*
G02*
X100130792Y-30886872I-113J64D01*
G01*
X264061300Y-27978650D02*
G75*
G02*
X264520950Y-27519000I459600J50D01*
G01*
X92069170Y-30701800D02*
G75*
G02*
X91609600Y-30242196I30J459600D01*
G01*
X61085153Y-27613524D02*
G75*
G02*
X61266989Y-27431653I181847J24D01*
G01*
X41054537Y-25834900D02*
G75*
G02*
X41514200Y-26294618I-37J-459700D01*
G01*
X80921238Y-27847725D02*
G75*
G03*
X80461537Y-27387962I-459738J25D01*
G01*
X131631458Y-33510200D02*
G75*
G02*
X132091400Y-33970142I42J-459900D01*
G01*
X41514216Y-26741881D02*
G75*
G03*
X41717550Y-26945184I203284J-19D01*
G01*
X119689895Y-33510224D02*
G75*
G03*
X119345319Y-33165605I-344595J24D01*
G01*
X188431973Y-32939003D02*
G75*
G03*
X187971969Y-32479027I-459973J3D01*
G01*
X283628484Y-26825481D02*
G75*
G02*
X284087697Y-26366284I459216J-19D01*
G01*
X264061312Y-28674224D02*
G75*
G02*
X263853194Y-28882312I-208112J24D01*
G01*
X188892719Y-35056555D02*
G75*
G02*
X188431945Y-34595826I-19J460755D01*
G01*
X91609600Y-29172461D02*
G75*
G03*
X91150239Y-28713100I-459400J-39D01*
G01*
X21890600Y-30200000D02*
X24380793Y-30200000D01*
X24840000Y-30659207D02*
X24840000Y-33670000D01*
X24840000Y-30659207D02*
G75*
G03*
X24380793Y-30200000I-459200J7D01*
G01*
X76368054Y-48803024D02*
X84718538Y-48803024D01*
X278720422Y-46232682D02*
X273418689Y-46232682D01*
X204459142Y-56367187D02*
X204459136Y-55959566D01*
X57092382Y-47213339D02*
X57092382Y-47213362D01*
X260777700Y-47830916D02*
X260777700Y-48857900D01*
X65529011Y-47584431D02*
X75449032Y-47584431D01*
X204459142Y-56367187D02*
X204459142Y-59331005D01*
X203591755Y-55499800D02*
X202485400Y-55499800D01*
X145104296Y-53566129D02*
X145104296Y-55268939D01*
X75908626Y-48087698D02*
X75908625Y-48343595D01*
X221654461Y-53502485D02*
X221904168Y-53502474D01*
X163793600Y-34736697D02*
X163793600Y-33940700D01*
X75908626Y-48087698D02*
X75908626Y-48044024D01*
X45461630Y-46205064D02*
X23807536Y-46205064D01*
X143147518Y-55728524D02*
X144644729Y-55728510D01*
X302286800Y-46863700D02*
X302286800Y-46411500D01*
X126179956Y-53491200D02*
X123628262Y-53491200D01*
X258821727Y-49032028D02*
X258822195Y-49031560D01*
X280314653Y-47481881D02*
X279639226Y-47481881D01*
X272499336Y-47371323D02*
X261237293Y-47371323D01*
X46563637Y-46212763D02*
X56633511Y-46212763D01*
X203591779Y-55499824D02*
X202485362Y-55499824D01*
X203591779Y-55499824D02*
X203999366Y-55499814D01*
X221194761Y-61624747D02*
X221194761Y-53962206D01*
X223639300Y-53501100D02*
X221904200Y-53501100D01*
X243592009Y-50576521D02*
X241476965Y-50576521D01*
X279179663Y-47022318D02*
X279179663Y-46691923D01*
X272958583Y-46692788D02*
X272958583Y-46912076D01*
X204918157Y-59790034D02*
X210931594Y-59790034D01*
X243592009Y-50576521D02*
X243397730Y-50770800D01*
X183068467Y-53707478D02*
X183049400Y-53726545D01*
X258822195Y-49031560D02*
X260638120Y-49031560D01*
X211390972Y-60249412D02*
X211390972Y-61624918D01*
X85185810Y-49270296D02*
X103476752Y-49270296D01*
X182609702Y-35196250D02*
X164253153Y-35196250D01*
X302286800Y-46411500D02*
X280774186Y-46411500D01*
X183068467Y-53707478D02*
X183068467Y-35655015D01*
X57092409Y-46671683D02*
X57092382Y-47213339D01*
X143147500Y-55522925D02*
X143147500Y-55728500D01*
X126179956Y-53491200D02*
X126038856Y-53632300D01*
X221904200Y-53501100D02*
X221904200Y-53502500D01*
X183049400Y-53726545D02*
X183049400Y-56963800D01*
X280314700Y-46870986D02*
X280314700Y-47481900D01*
X105674961Y-51392811D02*
X104292269Y-51392811D01*
X103935600Y-49729144D02*
X103935600Y-51036200D01*
X46165300Y-46611100D02*
X46563637Y-46212763D01*
X57551444Y-47672424D02*
X65441018Y-47672424D01*
X84718500Y-49193500D02*
X84795296Y-49270296D01*
X211849987Y-62083933D02*
X220735575Y-62083933D01*
X65529011Y-47584418D02*
G75*
G03*
X65441018Y-47672424I-11J-87982D01*
G01*
X221194833Y-61624747D02*
G75*
G02*
X220735575Y-62083933I-459233J47D01*
G01*
X163793650Y-34736697D02*
G75*
G03*
X164253153Y-35196250I459550J-3D01*
G01*
X211390966Y-60249412D02*
G75*
G03*
X210931594Y-59790034I-459366J12D01*
G01*
X260777723Y-47830916D02*
G75*
G02*
X261237293Y-47371323I459577J16D01*
G01*
X76368054Y-48803075D02*
G75*
G02*
X75908625Y-48343595I46J459475D01*
G01*
X75908569Y-48044024D02*
G75*
G03*
X75449032Y-47584431I-459569J24D01*
G01*
X279179619Y-47022318D02*
G75*
G03*
X279639226Y-47481881I459581J18D01*
G01*
X241282721Y-50770824D02*
G75*
G02*
X241476965Y-50576521I194279J24D01*
G01*
X204918157Y-59790034D02*
G75*
G02*
X204918154Y-59790031I43J34D01*
G01*
X57551444Y-47672418D02*
G75*
G02*
X57092382Y-47213362I-44J459018D01*
G01*
X45461630Y-46205053D02*
G75*
G02*
X46165347Y-46908781I-30J-703747D01*
G01*
X57092437Y-46671683D02*
G75*
G03*
X56633511Y-46212763I-458937J-17D01*
G01*
X272958582Y-46692788D02*
G75*
G02*
X273418689Y-46232682I460118J-12D01*
G01*
X272499336Y-47371383D02*
G75*
G03*
X272958583Y-46912076I-36J459283D01*
G01*
X182609702Y-35196233D02*
G75*
G02*
X183068467Y-35655015I-2J-458767D01*
G01*
X123487200Y-53632324D02*
G75*
G02*
X123628262Y-53491200I141100J24D01*
G01*
X221654461Y-53502461D02*
G75*
G03*
X221194761Y-53962206I39J-459739D01*
G01*
X85185810Y-49270262D02*
G75*
G02*
X84718538Y-48803024I-10J467262D01*
G01*
X260777704Y-48857924D02*
G75*
G02*
X260638120Y-49031559I-180804J2424D01*
G01*
X103935604Y-49729144D02*
G75*
G03*
X103476752Y-49270296I-458804J44D01*
G01*
X278720422Y-46232637D02*
G75*
G02*
X279179663Y-46691923I-22J-459263D01*
G01*
X103935689Y-51036174D02*
G75*
G03*
X104292269Y-51392811I356611J-26D01*
G01*
X280314700Y-46870986D02*
G75*
G02*
X280774186Y-46411500I459500J-14D01*
G01*
X144644729Y-55728496D02*
G75*
G03*
X145104296Y-55268939I-29J459596D01*
G01*
X203999366Y-55499864D02*
G75*
G02*
X204459136Y-55959566I34J-459736D01*
G01*
X211849987Y-62083928D02*
G75*
G02*
X211390972Y-61624918I13J459028D01*
G01*
X23312564Y-46700000D02*
G75*
G02*
X23807536Y-46205064I494936J0D01*
G01*
X204918154Y-59790058D02*
G75*
G02*
X204459142Y-59331005I46J459058D01*
G01*
X23312600Y-50250000D02*
X23312600Y-53284961D01*
X23772639Y-53745000D02*
X26256300Y-53745000D01*
X23772639Y-53745000D02*
G75*
G02*
X23312600Y-53284961I-39J460000D01*
G01*
X73883200Y-68236500D02*
X92784058Y-68236500D01*
X93243500Y-69713600D02*
X105277314Y-69713600D01*
X251270389Y-76227836D02*
X251270389Y-70001321D01*
X152655702Y-76902756D02*
X152655702Y-80961491D01*
X93243500Y-68695942D02*
X93243500Y-69713600D01*
X151526994Y-76298400D02*
X149018651Y-76298400D01*
X213857416Y-74231774D02*
X213195968Y-74231774D01*
X106196542Y-71464425D02*
X112432900Y-71464425D01*
X161779907Y-53524886D02*
X161779907Y-65236804D01*
X160775800Y-36940526D02*
X160775800Y-51832215D01*
X167483413Y-62014457D02*
X172240719Y-62014457D01*
X172700000Y-62473738D02*
X172700000Y-75016955D01*
X161018465Y-52418062D02*
X161535687Y-52935285D01*
X176182000Y-78147885D02*
X176182000Y-80986047D01*
X232660762Y-71961464D02*
X232660762Y-71481924D01*
X200330180Y-75821301D02*
X200330180Y-75149736D01*
X173175700Y-83445175D02*
X173175700Y-78146019D01*
X27019400Y-66729494D02*
X27019400Y-67585000D01*
X200788722Y-74691194D02*
X213069257Y-74691194D01*
X132012138Y-74480224D02*
X132012125Y-73949638D01*
X114144907Y-71754903D02*
X112485961Y-71754903D01*
X176640919Y-81444966D02*
X183658092Y-81444966D01*
X234939581Y-75312424D02*
X242565197Y-75312424D01*
X234480600Y-71941518D02*
X234480600Y-74853443D01*
X163793600Y-36480700D02*
X161235626Y-36480700D01*
X174447182Y-77687524D02*
X175721639Y-77687524D01*
X193036685Y-83298512D02*
X193036685Y-76739634D01*
X50175979Y-66270000D02*
X27478894Y-66270000D01*
X213195968Y-74548815D02*
X213195968Y-74231774D01*
X50635516Y-67711100D02*
X54690300Y-67711100D01*
X73883200Y-66270000D02*
X73883200Y-68236500D01*
X162239203Y-65696100D02*
X166564730Y-65696100D01*
X135049859Y-73491019D02*
X132470733Y-73491019D01*
X161199900Y-81879651D02*
X161199900Y-83445719D01*
X184117000Y-81903874D02*
X184117000Y-83298674D01*
X252132782Y-69541824D02*
X252132767Y-68719005D01*
X271638400Y-68259000D02*
X271638400Y-67515845D01*
X214316500Y-73772690D02*
X214316500Y-72880456D01*
X105736800Y-70173086D02*
X105736800Y-71004683D01*
X243484039Y-76687555D02*
X250810670Y-76687555D01*
X149018651Y-76298400D02*
X149018821Y-76298230D01*
X173634177Y-77687536D02*
X174447182Y-77687524D01*
X184576201Y-83757875D02*
X192577322Y-83757875D01*
X149163851Y-76443600D02*
X149018651Y-76298400D01*
X232660800Y-71481900D02*
X234020982Y-71481900D01*
X161659181Y-83905000D02*
X172715875Y-83905000D01*
X214775978Y-72420978D02*
X232201248Y-72420978D01*
X272097784Y-67056461D02*
X297852361Y-67056461D01*
X153115442Y-81421231D02*
X160741480Y-81421231D01*
X243024713Y-75771963D02*
X243024691Y-76228184D01*
X50175979Y-66270000D02*
X50175979Y-67251563D01*
X193495219Y-76281100D02*
X199870381Y-76281100D01*
X167023846Y-65236984D02*
X167023846Y-62474024D01*
X174447182Y-75935482D02*
X174447182Y-77687524D01*
X251729868Y-69541832D02*
X252132782Y-69541824D01*
X252592763Y-68259000D02*
X271638400Y-68259000D01*
X173158775Y-75475721D02*
X173987404Y-75475710D01*
X172699943Y-62473738D02*
G75*
G03*
X172240719Y-62014457I-459243J38D01*
G01*
X232660678Y-71961464D02*
G75*
G02*
X232201248Y-72420978I-459478J-36D01*
G01*
X50635516Y-67711121D02*
G75*
G02*
X50175979Y-67251563I-16J459521D01*
G01*
X234480600Y-71941518D02*
G75*
G03*
X234020982Y-71481900I-459600J18D01*
G01*
X200788722Y-74691180D02*
G75*
G03*
X200330180Y-75149736I-22J-458520D01*
G01*
X132012119Y-73949638D02*
G75*
G02*
X132470733Y-73491019I458581J38D01*
G01*
X200330200Y-75821301D02*
G75*
G02*
X199870381Y-76281100I-459800J1D01*
G01*
X243024676Y-75771963D02*
G75*
G03*
X242565197Y-75312424I-459476J63D01*
G01*
X161018476Y-52418051D02*
G75*
G02*
X160775800Y-51832215I585824J585851D01*
G01*
X234939581Y-75312400D02*
G75*
G02*
X234480600Y-74853443I19J459000D01*
G01*
X27019400Y-66729494D02*
G75*
G02*
X27478894Y-66270000I459500J-6D01*
G01*
X243484039Y-76687509D02*
G75*
G02*
X243024691Y-76228184I-39J459309D01*
G01*
X173175700Y-83445175D02*
G75*
G02*
X172715875Y-83905000I-459800J-25D01*
G01*
X174447190Y-75935482D02*
G75*
G03*
X173987404Y-75475710I-459790J-18D01*
G01*
X173634177Y-77687500D02*
G75*
G03*
X173175700Y-78146019I23J-458500D01*
G01*
X161199969Y-81879651D02*
G75*
G03*
X160741480Y-81421231I-458469J-49D01*
G01*
X160775800Y-36940526D02*
G75*
G02*
X161235626Y-36480700I459800J26D01*
G01*
X184576201Y-83757900D02*
G75*
G02*
X184117000Y-83298674I-1J459200D01*
G01*
X193036675Y-83298512D02*
G75*
G02*
X192577322Y-83757875I-459375J12D01*
G01*
X112432975Y-71701874D02*
G75*
G03*
X112195483Y-71464425I-237475J-26D01*
G01*
X213857416Y-74231800D02*
G75*
G03*
X214316500Y-73772690I-16J459100D01*
G01*
X176181976Y-78147885D02*
G75*
G03*
X175721639Y-77687524I-460376J-15D01*
G01*
X167483413Y-62014446D02*
G75*
G03*
X167023846Y-62474024I-13J-459554D01*
G01*
X161659181Y-83905000D02*
G75*
G02*
X161199900Y-83445719I19J459300D01*
G01*
X153115442Y-81421198D02*
G75*
G02*
X152655702Y-80961491I-42J459698D01*
G01*
X252592763Y-68258967D02*
G75*
G03*
X252132767Y-68719005I37J-460033D01*
G01*
X298417339Y-67621400D02*
G75*
G03*
X297852361Y-67056461I-564939J0D01*
G01*
X251270455Y-76227836D02*
G75*
G02*
X250810670Y-76687555I-459755J36D01*
G01*
X173158775Y-75475800D02*
G75*
G02*
X172700000Y-75016955I25J458800D01*
G01*
X251729868Y-69541789D02*
G75*
G03*
X251270389Y-70001321I32J-459511D01*
G01*
X213195951Y-74548815D02*
G75*
G03*
X213203802Y-74556649I7849J15D01*
G01*
X176640919Y-81444900D02*
G75*
G02*
X176182000Y-80986047I-19J458900D01*
G01*
X105736800Y-70173086D02*
G75*
G03*
X105277314Y-69713600I-459500J-14D01*
G01*
X193495219Y-76281085D02*
G75*
G03*
X193036685Y-76739634I-19J-458515D01*
G01*
X167023800Y-65236984D02*
G75*
G02*
X166564730Y-65696100I-459100J-16D01*
G01*
X184117034Y-81903874D02*
G75*
G03*
X183658092Y-81444966I-458934J-26D01*
G01*
X162239203Y-65696093D02*
G75*
G02*
X161779907Y-65236804I-3J459293D01*
G01*
X152655700Y-76902756D02*
G75*
G03*
X152196546Y-76443600I-459200J-44D01*
G01*
X93243500Y-68695942D02*
G75*
G03*
X92784058Y-68236500I-459400J42D01*
G01*
X161779921Y-53524886D02*
G75*
G03*
X161535686Y-52935286I-833821J-14D01*
G01*
X213203794Y-74556649D02*
G75*
G02*
X213069257Y-74691194I-134494J-51D01*
G01*
X149117051Y-76199951D02*
G75*
G03*
X149018651Y-76298400I49J-98449D01*
G01*
X106196542Y-71464400D02*
G75*
G02*
X105736800Y-71004683I-42J459700D01*
G01*
X151672205Y-76443624D02*
G75*
G03*
X151555914Y-76298231I-152005J-2376D01*
G01*
X272097784Y-67056400D02*
G75*
G03*
X271638400Y-67515845I16J-459400D01*
G01*
X112432997Y-71701874D02*
G75*
G03*
X112485961Y-71754903I53003J-26D01*
G01*
X151526994Y-76298382D02*
G75*
G02*
X151672218Y-76443624I6J-145218D01*
G01*
X214775978Y-72421000D02*
G75*
G03*
X214316500Y-72880456I22J-459500D01*
G01*
X30018800Y-74480000D02*
X27478935Y-74480000D01*
X27019400Y-74020465D02*
X27019400Y-71135000D01*
X27019400Y-74020465D02*
G75*
G03*
X27478935Y-74480000I459500J-35D01*
G01*
X163793600Y-39020700D02*
X161692685Y-39020700D01*
X250048745Y-99023000D02*
X257100253Y-99023000D01*
X199406058Y-100995403D02*
X205290291Y-100995403D01*
X162529114Y-56962514D02*
X162831500Y-57264900D01*
X127891700Y-96265100D02*
X127891700Y-95830810D01*
X127891700Y-96265100D02*
X123490394Y-96265100D01*
X148886900Y-93901356D02*
X148886900Y-95877128D01*
X163959061Y-57724314D02*
X163959061Y-62263086D01*
X149345472Y-96335700D02*
X197330100Y-96335700D01*
X100251300Y-101726215D02*
X100251300Y-98562888D01*
X161477687Y-51325715D02*
X162284698Y-52132726D01*
X88115209Y-107139336D02*
X79658870Y-107139336D01*
X264553100Y-104691008D02*
X264553100Y-108378661D01*
X205750409Y-101455539D02*
X205750361Y-102693105D01*
X142037800Y-94866403D02*
X142037800Y-93901799D01*
X99791612Y-98103200D02*
X98506506Y-98103200D01*
X46945723Y-100371183D02*
X46945723Y-98696630D01*
X162831500Y-57264900D02*
X163499647Y-57264900D01*
X226846718Y-96928424D02*
X227662441Y-96928436D01*
X249589100Y-104645721D02*
X249589100Y-99482645D01*
X161692685Y-39020700D02*
X161232800Y-39480585D01*
X71357900Y-104483447D02*
X71357900Y-101290209D01*
X78740585Y-104942824D02*
X71817277Y-104942824D01*
X122571815Y-103995460D02*
X108655981Y-103995460D01*
X88574500Y-98563089D02*
X88574500Y-106680045D01*
X318595438Y-108378594D02*
X318595438Y-98697146D01*
X107737325Y-102185598D02*
X100710683Y-102185598D01*
X316706300Y-98237500D02*
X318135792Y-98237500D01*
X206210143Y-103152905D02*
X224540369Y-103152905D01*
X162529114Y-52722799D02*
X162529114Y-56962514D01*
X79199700Y-106680166D02*
X79199700Y-105401939D01*
X257560159Y-99482906D02*
X257560159Y-103770379D01*
X123031000Y-96724494D02*
X123031000Y-103536275D01*
X128351410Y-95371100D02*
X141533103Y-95371100D01*
X224999967Y-102693307D02*
X224999967Y-97387654D01*
X108196300Y-103535779D02*
X108196300Y-102644573D01*
X198947031Y-96795922D02*
X198947031Y-100536376D01*
X142497699Y-93441900D02*
X148427444Y-93441900D01*
X258019380Y-104229600D02*
X264091692Y-104229600D01*
X70898691Y-100831000D02*
X47405540Y-100831000D01*
X235158121Y-105105033D02*
X249129788Y-105105033D01*
X161232800Y-39480585D02*
X161232800Y-50734506D01*
X265012139Y-108837700D02*
X318136332Y-108837700D01*
X45243800Y-98237500D02*
X46486593Y-98237500D01*
X98506458Y-98103200D02*
X89034389Y-98103200D01*
X234697442Y-102104534D02*
X234697442Y-104644354D01*
X225459197Y-96928424D02*
X226846718Y-96928424D01*
X197330100Y-96335700D02*
X198486809Y-96335700D01*
X228581013Y-101645200D02*
X234238108Y-101645200D01*
X228121518Y-97387518D02*
X228121518Y-101185705D01*
X318595400Y-108378594D02*
G75*
G02*
X318136332Y-108837700I-459100J-6D01*
G01*
X149345472Y-96335700D02*
G75*
G02*
X148886900Y-95877128I28J458600D01*
G01*
X99791612Y-98103200D02*
G75*
G02*
X100251300Y-98562888I-12J-459700D01*
G01*
X265012139Y-108837700D02*
G75*
G02*
X264553100Y-108378661I-39J459000D01*
G01*
X123030960Y-103536275D02*
G75*
G02*
X122571815Y-103995460I-459160J-25D01*
G01*
X264553100Y-104691008D02*
G75*
G03*
X264091692Y-104229600I-461400J8D01*
G01*
X235158121Y-105105058D02*
G75*
G02*
X234697442Y-104644354I-21J460658D01*
G01*
X205750397Y-101455539D02*
G75*
G03*
X205290291Y-100995403I-460097J39D01*
G01*
X46945700Y-100371183D02*
G75*
G03*
X47405540Y-100831000I459800J-17D01*
G01*
X249589133Y-104645721D02*
G75*
G02*
X249129788Y-105105033I-459333J21D01*
G01*
X250048745Y-99023000D02*
G75*
G03*
X249589100Y-99482645I-45J-459600D01*
G01*
X100251302Y-101726215D02*
G75*
G03*
X100710683Y-102185598I459398J15D01*
G01*
X163959000Y-57724314D02*
G75*
G03*
X163499647Y-57264900I-459400J14D01*
G01*
X108196340Y-103535779D02*
G75*
G03*
X108655981Y-103995460I459660J-21D01*
G01*
X142037800Y-94866403D02*
G75*
G02*
X141533103Y-95371100I-504700J3D01*
G01*
X98506470Y-98103200D02*
G75*
G03*
X98506482Y-98103224I30J0D01*
G01*
X46486593Y-98237477D02*
G75*
G02*
X46945723Y-98696630I7J-459123D01*
G01*
X228581013Y-101645182D02*
G75*
G02*
X228121518Y-101185705I-13J459482D01*
G01*
X199406058Y-100995469D02*
G75*
G02*
X198947031Y-100536376I42J459069D01*
G01*
X123031000Y-96724494D02*
G75*
G02*
X123490394Y-96265100I459400J-6D01*
G01*
X128351410Y-95371100D02*
G75*
G03*
X127891700Y-95830810I-10J-459700D01*
G01*
X142497699Y-93441900D02*
G75*
G03*
X142037800Y-93901799I1J-459900D01*
G01*
X88115209Y-107139300D02*
G75*
G03*
X88574500Y-106680045I-9J459300D01*
G01*
X88574500Y-98563089D02*
G75*
G02*
X89034389Y-98103200I459900J-11D01*
G01*
X225459197Y-96928467D02*
G75*
G03*
X224999967Y-97387654I3J-459233D01*
G01*
X70898691Y-100831000D02*
G75*
G02*
X71357900Y-101290209I9J-459200D01*
G01*
X162529107Y-52722799D02*
G75*
G03*
X162284698Y-52132726I-834507J-1D01*
G01*
X228121464Y-97387518D02*
G75*
G03*
X227662441Y-96928436I-459064J18D01*
G01*
X258019380Y-104229641D02*
G75*
G02*
X257560159Y-103770379I20J459241D01*
G01*
X161477689Y-51325713D02*
G75*
G02*
X161232800Y-50734506I591211J591213D01*
G01*
X225000005Y-102693307D02*
G75*
G02*
X224540369Y-103152905I-459605J7D01*
G01*
X234697400Y-102104534D02*
G75*
G03*
X234238108Y-101645200I-459300J34D01*
G01*
X163974187Y-62278239D02*
G75*
G02*
X163959061Y-62263086I13J15139D01*
G01*
X107737325Y-102185600D02*
G75*
G02*
X108196300Y-102644573I-25J-459000D01*
G01*
X148886900Y-93901356D02*
G75*
G03*
X148427444Y-93441900I-459500J-44D01*
G01*
X206210143Y-103152839D02*
G75*
G02*
X205750361Y-102693105I-43J459739D01*
G01*
X257560200Y-99482906D02*
G75*
G03*
X257100253Y-99023000I-459900J6D01*
G01*
X71357876Y-104483447D02*
G75*
G03*
X71817277Y-104942824I459424J47D01*
G01*
X318135792Y-98237462D02*
G75*
G02*
X318595438Y-98697146I8J-459638D01*
G01*
X79199764Y-106680166D02*
G75*
G03*
X79658870Y-107139336I459136J-34D01*
G01*
X198947000Y-96795922D02*
G75*
G03*
X198486809Y-96335700I-460200J22D01*
G01*
X78740585Y-104942800D02*
G75*
G02*
X79199700Y-105401939I15J-459100D01*
G01*
X98506496Y-98103205D02*
G75*
G03*
X98506506Y-98103200I4J5D01*
G01*
X43784657Y-93472160D02*
X43784657Y-101327890D01*
X38218800Y-93012500D02*
X43324997Y-93012500D01*
X44244267Y-101787500D02*
X45243800Y-101787500D01*
X43784700Y-93472160D02*
G75*
G03*
X43324997Y-93012500I-459700J-40D01*
G01*
X44244267Y-101787543D02*
G75*
G02*
X43784657Y-101327890I33J459643D01*
G01*
X44191400Y-33808000D02*
X41849530Y-33808000D01*
X41390400Y-33348870D02*
X41390400Y-30289700D01*
X41390400Y-33348870D02*
G75*
G03*
X41849530Y-33808000I459100J-30D01*
G01*
X46501140Y-53883000D02*
X48843600Y-53883000D01*
X46041500Y-50456600D02*
X46041500Y-53423360D01*
X46501140Y-53883000D02*
G75*
G02*
X46041500Y-53423360I-40J459600D01*
G01*
X54566500Y-71258900D02*
X54566500Y-74158722D01*
X55025778Y-74618000D02*
X57390900Y-74618000D01*
X55025778Y-74618000D02*
G75*
G02*
X54566500Y-74158722I22J459300D01*
G01*
X61296857Y-34616900D02*
X63526300Y-34616900D01*
X60837500Y-31154900D02*
X60837500Y-34157543D01*
X61296857Y-34616900D02*
G75*
G02*
X60837500Y-34157543I43J459400D01*
G01*
X67879400Y-51673004D02*
X67879400Y-54694900D01*
X65193400Y-51213800D02*
X67420196Y-51213800D01*
X67879400Y-51673004D02*
G75*
G03*
X67420196Y-51213800I-459200J4D01*
G01*
X74204359Y-75429900D02*
X76436200Y-75429900D01*
X73744900Y-71777900D02*
X73744900Y-74970441D01*
X74204359Y-75429900D02*
G75*
G02*
X73744900Y-74970441I41J459500D01*
G01*
X69880300Y-104361600D02*
X69880300Y-106998259D01*
X70339841Y-107457800D02*
X73213600Y-107457800D01*
X70339841Y-107457800D02*
G75*
G02*
X69880300Y-106998259I-41J459500D01*
G01*
X81009783Y-36101100D02*
X83080400Y-36101100D01*
X80550300Y-32278600D02*
X80550300Y-35641617D01*
X81009783Y-36101100D02*
G75*
G02*
X80550300Y-35641617I17J459500D01*
G01*
X84806942Y-56182100D02*
X86893500Y-56182100D01*
X84347500Y-52333600D02*
X84347500Y-55722658D01*
X84806942Y-56182100D02*
G75*
G02*
X84347500Y-55722658I-42J459400D01*
G01*
X95031966Y-73244200D02*
X92872500Y-73244200D01*
X95491400Y-76916100D02*
X95491400Y-73703634D01*
X95031966Y-73244200D02*
G75*
G02*
X95491400Y-73703634I34J-459400D01*
G01*
X98754118Y-101644576D02*
X98754097Y-104365786D01*
X101968038Y-104825140D02*
X101934682Y-104825140D01*
X101934682Y-104825140D02*
X99213430Y-104825125D01*
X98754075Y-104365786D02*
G75*
G03*
X99213430Y-104825125I459325J-14D01*
G01*
X99637000Y-34402300D02*
X99637000Y-37803111D01*
X100095789Y-38261900D02*
X102052100Y-38261900D01*
X100095789Y-38261900D02*
G75*
G02*
X99637000Y-37803111I11J458800D01*
G01*
X103441600Y-54551600D02*
X105390239Y-54551600D01*
X105849500Y-55010861D02*
X105849500Y-58340900D01*
X105849500Y-55010861D02*
G75*
G03*
X105390239Y-54551600I-459300J-39D01*
G01*
X111938900Y-75217300D02*
X111938900Y-78617633D01*
X112398167Y-79076900D02*
X114381000Y-79076900D01*
X112398167Y-79076900D02*
G75*
G02*
X111938900Y-78617633I33J459300D01*
G01*
X128351083Y-103250000D02*
X130945800Y-103250000D01*
X127891700Y-99815100D02*
X127891700Y-102790617D01*
X128351083Y-103250000D02*
G75*
G02*
X127891700Y-102790617I17J459400D01*
G01*
X119318900Y-37040800D02*
X119318900Y-40396429D01*
X119778571Y-40856100D02*
X121872300Y-40856100D01*
X119778571Y-40856100D02*
G75*
G02*
X119318900Y-40396429I29J459700D01*
G01*
X123575569Y-60936100D02*
X125726400Y-60936100D01*
X123116100Y-57162900D02*
X123116100Y-60476631D01*
X123575569Y-60936100D02*
G75*
G02*
X123116100Y-60476631I31J459500D01*
G01*
X134233900Y-78470336D02*
X134233900Y-81674100D01*
X131641100Y-78010800D02*
X133774364Y-78010800D01*
X134233900Y-78470336D02*
G75*
G03*
X133774364Y-78010800I-459500J36D01*
G01*
X139561755Y-42766900D02*
X141864200Y-42766900D01*
X139102400Y-39307500D02*
X139102400Y-42307545D01*
X139561755Y-42766900D02*
G75*
G02*
X139102400Y-42307545I45J459400D01*
G01*
X143359217Y-62844900D02*
X145598200Y-62844900D01*
X142899900Y-59269900D02*
X142899900Y-62385583D01*
X143359217Y-62844900D02*
G75*
G02*
X142899900Y-62385583I-17J459300D01*
G01*
X151883563Y-83584900D02*
X154139900Y-83584900D01*
X151424600Y-79985000D02*
X151424600Y-83125937D01*
X151883563Y-83584900D02*
G75*
G02*
X151424600Y-83125937I37J459000D01*
G01*
X165360000Y-64119900D02*
X165360000Y-61375795D01*
X162831500Y-60814900D02*
X162831500Y-63660257D01*
X168950000Y-60456563D02*
X168950000Y-52039900D01*
X162831500Y-60916100D02*
X162831500Y-60814900D01*
X165360000Y-64119900D02*
X163291143Y-64119900D01*
X165819695Y-60916100D02*
X168490463Y-60916100D01*
X165819695Y-60916100D02*
G75*
G03*
X165360000Y-61375795I5J-459700D01*
G01*
X168950000Y-60456563D02*
G75*
G02*
X168490463Y-60916100I-459500J-37D01*
G01*
X163291143Y-64119900D02*
G75*
G02*
X162831500Y-63660257I-43J459600D01*
G01*
X189841238Y-43562140D02*
X189819582Y-43562140D01*
X186666618Y-40409176D02*
X186666597Y-43102592D01*
X189819582Y-43562140D02*
X187126123Y-43562125D01*
X186666575Y-43102592D02*
G75*
G03*
X187126123Y-43562125I459525J-8D01*
G01*
X183297000Y-60505200D02*
X183297000Y-63181953D01*
X183755147Y-63640100D02*
X186531100Y-63640100D01*
X183755147Y-63640100D02*
G75*
G02*
X183297000Y-63181953I-47J458100D01*
G01*
X175154524Y-84380100D02*
X177888700Y-84380100D01*
X174694800Y-81228900D02*
X174694800Y-83920376D01*
X175154524Y-84380100D02*
G75*
G02*
X174694800Y-83920376I-24J459700D01*
G01*
X206215200Y-39038400D02*
X206215200Y-41589150D01*
X206673850Y-42047800D02*
X209492000Y-42047800D01*
X206673850Y-42047800D02*
G75*
G02*
X206215200Y-41589150I-50J458600D01*
G01*
X202856400Y-59030400D02*
X202856400Y-61668159D01*
X203316041Y-62127800D02*
X206181800Y-62127800D01*
X203316041Y-62127800D02*
G75*
G02*
X202856400Y-61668159I-41J459600D01*
G01*
X197539500Y-80270749D02*
X197539500Y-82865800D01*
X194229000Y-79811700D02*
X197080451Y-79811700D01*
X197539500Y-80270749D02*
G75*
G03*
X197080451Y-79811700I-459000J49D01*
G01*
X225683500Y-36925700D02*
X225683500Y-39387379D01*
X226144621Y-39848500D02*
X229077600Y-39848500D01*
X226144621Y-39848500D02*
G75*
G02*
X225683500Y-39387379I-21J461100D01*
G01*
X225767600Y-57477424D02*
X225767600Y-59927500D01*
X222398200Y-57017900D02*
X225308076Y-57017900D01*
X225767600Y-57477424D02*
G75*
G03*
X225308076Y-57017900I-459500J24D01*
G01*
X217125100Y-78206719D02*
X217125100Y-80663500D01*
X213690000Y-77747200D02*
X216665581Y-77747200D01*
X217125100Y-78206719D02*
G75*
G03*
X216665581Y-77747200I-459500J19D01*
G01*
X197790010Y-103250000D02*
X200321200Y-103250000D01*
X197330100Y-99885700D02*
X197330100Y-102790090D01*
X197790010Y-103250000D02*
G75*
G02*
X197330100Y-102790090I-10J459900D01*
G01*
X244931900Y-34293900D02*
X244931900Y-36833347D01*
X245391353Y-37292800D02*
X248260000Y-37292800D01*
X245391353Y-37292800D02*
G75*
G02*
X244931900Y-36833347I47J459500D01*
G01*
X242112509Y-57373764D02*
X244949911Y-57373764D01*
X241653738Y-54301376D02*
X241653718Y-56914969D01*
X242112509Y-57373782D02*
G75*
G02*
X241653718Y-56914969I-9J458782D01*
G01*
X233031838Y-75012476D02*
X233031818Y-77648733D01*
X236307511Y-78107764D02*
X233490845Y-78107764D01*
X233031736Y-77648733D02*
G75*
G03*
X233490845Y-78107764I459064J33D01*
G01*
X227058714Y-104029900D02*
X229326700Y-104029900D01*
X226599100Y-100469800D02*
X226599100Y-103570286D01*
X227058714Y-104029900D02*
G75*
G02*
X226599100Y-103570286I-14J459600D01*
G01*
X267520100Y-32675633D02*
X267520100Y-35412100D01*
X264308900Y-32215600D02*
X267060067Y-32215600D01*
X267520100Y-32675633D02*
G75*
G03*
X267060067Y-32215600I-460000J33D01*
G01*
X261025300Y-52399300D02*
X261025300Y-55030892D01*
X261484508Y-55490100D02*
X264210000Y-55490100D01*
X261484508Y-55490100D02*
G75*
G02*
X261025300Y-55030892I-8J459200D01*
G01*
X252380400Y-73083200D02*
X255107718Y-73083200D01*
X255567600Y-73543082D02*
X255567600Y-76225100D01*
X255567600Y-73543082D02*
G75*
G03*
X255107718Y-73083200I-459900J-18D01*
G01*
X255984366Y-106266100D02*
X258115800Y-106266100D01*
X255524800Y-102553600D02*
X255524800Y-105806534D01*
X255984366Y-106266100D02*
G75*
G02*
X255524800Y-105806534I34J459600D01*
G01*
X286833900Y-31379784D02*
X286833900Y-34205800D01*
X283752300Y-30919900D02*
X286374016Y-30919900D01*
X286833900Y-31379784D02*
G75*
G03*
X286374016Y-30919900I-459900J-16D01*
G01*
X280438500Y-51029700D02*
X283065666Y-51029700D01*
X283524300Y-51488334D02*
X283524300Y-54280800D01*
X283524300Y-51488334D02*
G75*
G03*
X283065666Y-51029700I-458600J34D01*
G01*
X274881800Y-72266621D02*
X274881800Y-75015800D01*
X271762200Y-71806800D02*
X274421979Y-71806800D01*
X274881800Y-72266621D02*
G75*
G03*
X274421979Y-71806800I-459800J21D01*
G01*
X306243800Y-30793545D02*
X306243800Y-33670000D01*
X303317300Y-30333800D02*
X305784055Y-30333800D01*
X306243800Y-30793545D02*
G75*
G03*
X305784055Y-30333800I-459700J45D01*
G01*
X302286800Y-50413700D02*
X304790720Y-50413700D01*
X305250000Y-50872980D02*
X305250000Y-53745000D01*
X305250000Y-50872980D02*
G75*
G03*
X304790720Y-50413700I-459300J-20D01*
G01*
X298417300Y-71171400D02*
X300910207Y-71171400D01*
X301370000Y-71631193D02*
X301370000Y-74480000D01*
X301370000Y-71631193D02*
G75*
G03*
X300910207Y-71171400I-459800J-7D01*
G01*
X315394571Y-93471959D02*
X315394571Y-101327821D01*
X316706300Y-101787500D02*
X315854250Y-101787500D01*
X309681300Y-93012500D02*
X314935112Y-93012500D01*
X315854250Y-101787529D02*
G75*
G02*
X315394571Y-101327821I50J459729D01*
G01*
X315394600Y-93471959D02*
G75*
G03*
X314935112Y-93012500I-459500J-41D01*
G01*
D61*
X275111184Y-24808906D02*
X279184504Y-24808906D01*
X223960400Y-71200684D02*
X223960400Y-69546300D01*
X63766835Y-72238260D02*
X61154424Y-72238260D01*
X143557000Y-73931270D02*
X143557000Y-72542600D01*
X263320400Y-37456236D02*
X263320400Y-31171342D01*
X91161800Y-45376200D02*
X91161800Y-44785333D01*
X91161839Y-45376235D02*
X88502568Y-45376235D01*
X225533105Y-35301500D02*
X226420968Y-35301500D01*
X223561222Y-35301500D02*
X225533105Y-35301500D01*
X52348600Y-42807700D02*
X52348600Y-42157415D01*
X309684300Y-65686357D02*
X309684300Y-64419800D01*
X261787739Y-84034600D02*
X233869677Y-84034600D01*
X107548981Y-36504558D02*
X105538463Y-36504558D01*
X260385567Y-29913309D02*
X260385567Y-27361844D01*
X130627929Y-48109691D02*
X146438000Y-48109691D01*
X308366000Y-37469546D02*
X308366000Y-42196000D01*
X52978315Y-41527700D02*
X58838123Y-41527700D01*
X305102129Y-26419255D02*
X305102132Y-26337239D01*
X221128000Y-34672459D02*
X221128000Y-31807893D01*
X104771200Y-68147600D02*
X106227749Y-68147600D01*
X52847942Y-24413082D02*
X52847942Y-25093631D01*
X314556400Y-24712553D02*
X314556400Y-23615900D01*
X181620891Y-20640400D02*
X192029100Y-20640400D01*
X61471345Y-24413082D02*
X52847942Y-24413082D01*
X122208526Y-47254979D02*
X122208510Y-49509777D01*
X111011900Y-31465600D02*
X107665600Y-31465600D01*
X192029100Y-20640400D02*
X192029100Y-22005894D01*
X235912700Y-30005943D02*
X235912700Y-28737300D01*
X166550564Y-19329586D02*
X166550564Y-21479806D01*
X106857200Y-69713600D02*
X106857200Y-69805086D01*
X206507511Y-37116765D02*
X205732878Y-37116765D01*
X133235109Y-32714856D02*
X133235119Y-33449124D01*
X203436800Y-89710300D02*
X203436800Y-91693200D01*
X107665600Y-31465600D02*
X105759278Y-31465600D01*
X130086600Y-71273414D02*
X130086600Y-75086180D01*
X204759042Y-73072968D02*
X204759053Y-72004117D01*
X227049534Y-34672934D02*
X227049534Y-31264296D01*
X156238484Y-28860700D02*
X163793600Y-28860700D01*
X246837100Y-44383147D02*
X246837100Y-45562400D01*
X197424100Y-32949300D02*
X207136641Y-32949300D01*
X299941200Y-66314900D02*
X300907344Y-66314900D01*
X165608983Y-22510700D02*
X167581458Y-22510700D01*
X231277336Y-92721660D02*
X233242451Y-92721660D01*
X190633455Y-73701075D02*
X190633455Y-67117002D01*
X227679230Y-30634600D02*
X235284043Y-30634600D01*
X91789633Y-44157500D02*
X107078732Y-44157500D01*
X204933287Y-71829883D02*
X223331201Y-71829883D01*
X141300809Y-35534361D02*
X145292681Y-35534361D01*
X297476225Y-96212500D02*
X306552274Y-96212500D01*
X294788291Y-23870504D02*
X297888443Y-23870504D01*
X111117225Y-46625386D02*
X121578938Y-46625386D01*
X304087878Y-25341468D02*
X304114603Y-25341467D01*
X42318880Y-64425841D02*
X42318839Y-64425800D01*
X199203615Y-73701075D02*
X204130931Y-73701075D01*
X131245920Y-76245500D02*
X131131023Y-76245502D01*
X149488451Y-51902360D02*
X147693585Y-51902360D01*
X104906378Y-32318500D02*
X104906378Y-30332296D01*
X266538686Y-65935974D02*
X266726210Y-66123498D01*
X302392100Y-29410687D02*
X302392100Y-36211348D01*
X220496224Y-31176117D02*
X216713453Y-31176117D01*
X274466695Y-26426500D02*
X261412638Y-26426500D01*
X145307622Y-35549302D02*
X145307622Y-40028578D01*
X259450223Y-26426500D02*
X255478900Y-26426500D01*
X104900865Y-91591321D02*
X133950721Y-91591321D01*
X162117087Y-26320700D02*
X163793600Y-26320700D01*
X299941200Y-66314900D02*
X298930416Y-66314900D01*
X134097447Y-74559475D02*
X142928795Y-74559475D01*
X39231507Y-42179702D02*
X39231518Y-41891676D01*
X145981458Y-40702414D02*
X148858624Y-40702414D01*
X260385567Y-29913309D02*
X260385567Y-27453571D01*
X43351672Y-24614347D02*
X43351666Y-25432673D01*
X302392100Y-41027508D02*
X302392100Y-41566544D01*
X161488438Y-23140260D02*
X161488438Y-25692051D01*
X306179916Y-25341468D02*
X306097962Y-25341467D01*
X262690858Y-30541800D02*
X261014058Y-30541800D01*
X92366600Y-29073146D02*
X92366600Y-27333100D01*
X185345162Y-51896300D02*
X188831800Y-51896300D01*
X263158384Y-65619606D02*
X265774902Y-65619606D01*
X299941200Y-68921209D02*
X299941200Y-67325684D01*
X29994909Y-41262500D02*
X38602366Y-41262500D01*
X204072900Y-89710300D02*
X230014019Y-89710300D01*
X147067144Y-51275919D02*
X147067144Y-48738835D01*
X221757041Y-35301500D02*
X223561222Y-35301500D01*
X243718400Y-68917334D02*
X243718400Y-67228500D01*
X108177612Y-43058626D02*
X108177614Y-42721209D01*
X131245920Y-76245500D02*
X131019315Y-76245500D01*
X182809317Y-59373400D02*
X183985888Y-59373400D01*
X108177614Y-45049324D02*
X108177614Y-42721209D01*
X69549270Y-42156193D02*
X69549267Y-43113279D01*
X188831800Y-51896300D02*
X188831800Y-50924259D01*
X154950570Y-76208264D02*
X162481810Y-76208264D01*
X172404100Y-23780700D02*
X179013600Y-23780700D01*
X114939600Y-71064772D02*
X114939600Y-71345975D01*
X205733608Y-48679201D02*
X207443618Y-48679201D01*
X299941200Y-68921209D02*
X299941200Y-67281044D01*
X104276782Y-29702700D02*
X92996154Y-29702700D01*
X223960400Y-69546300D02*
X243089434Y-69546300D01*
X131148461Y-32086165D02*
X132606410Y-32086165D01*
X304474871Y-28783104D02*
X303019683Y-28783104D01*
X129997639Y-50140135D02*
X129997639Y-48739981D01*
X207136641Y-32949300D02*
X216083575Y-32949300D01*
X205103800Y-37745843D02*
X205103800Y-48049393D01*
X105538463Y-36504558D02*
X105538461Y-36504556D01*
X150830100Y-33695100D02*
X154980255Y-33695100D01*
X305102129Y-28225529D02*
X305102129Y-26419255D01*
X134061700Y-90329340D02*
X134061700Y-91702300D01*
X307181300Y-96841526D02*
X307181300Y-107512500D01*
X163112100Y-74502000D02*
X165560697Y-74502000D01*
X263158400Y-66445000D02*
X263158400Y-65619600D01*
X150830100Y-34905221D02*
X150830100Y-33695100D01*
X306179916Y-25341468D02*
X313927485Y-25341468D01*
X33150900Y-23985100D02*
X42722430Y-23985100D01*
X208072337Y-49307913D02*
X208072347Y-50313583D01*
X298518853Y-24500902D02*
X298518854Y-24712885D01*
X162117998Y-22510700D02*
X165608983Y-22510700D01*
X305102129Y-26355719D02*
X305102130Y-26328992D01*
X122838864Y-50140135D02*
X129997639Y-50140135D01*
X163112100Y-75577974D02*
X163112100Y-74502000D01*
X265883655Y-38084801D02*
X263948992Y-38084822D01*
X131131023Y-76245502D02*
X132841031Y-76245502D01*
X266513200Y-43751200D02*
X247469047Y-43751200D01*
X224552400Y-36433650D02*
X224552400Y-47423912D01*
X216713500Y-32319375D02*
X216713500Y-31176100D01*
X262417900Y-95096300D02*
X262417900Y-84664761D01*
X75102600Y-95637800D02*
X65026286Y-95637800D01*
X225182588Y-48054100D02*
X227243300Y-48054100D01*
X254849409Y-28737251D02*
X235912677Y-28737251D01*
X42318839Y-64425800D02*
X38331700Y-64425800D01*
X304087878Y-25341468D02*
X306179916Y-25341468D01*
X108177614Y-47064037D02*
X108177614Y-45049324D01*
X62108840Y-25953455D02*
X62108840Y-25050577D01*
X85438900Y-67148289D02*
X85438900Y-65981200D01*
X243529253Y-67228517D02*
X262374883Y-67228517D01*
X39859499Y-42807718D02*
X52348558Y-42807718D01*
X190633455Y-73701075D02*
X188388533Y-73701075D01*
X163793600Y-28860700D02*
X163793600Y-26320700D01*
X146573598Y-74714500D02*
X153692599Y-74714500D01*
X167581458Y-22510700D02*
X170232918Y-22510700D01*
X104906378Y-35872473D02*
X104906378Y-32318500D01*
X130086600Y-75086180D02*
X130086600Y-77178215D01*
X130715570Y-89699488D02*
X133431848Y-89699488D01*
X189461359Y-50294700D02*
X208072300Y-50294700D01*
X301759918Y-40395326D02*
X286866285Y-40395326D01*
X255478900Y-26426500D02*
X255478900Y-28107760D01*
X60525823Y-71609659D02*
X60525823Y-67148289D01*
X233242500Y-84661777D02*
X233242500Y-89710300D01*
X64936700Y-26582153D02*
X67063403Y-26582153D01*
X70178246Y-43742260D02*
X71765551Y-43742260D01*
X110487683Y-47693349D02*
X108806926Y-47693349D01*
X110487683Y-47693349D02*
X110487688Y-47254918D01*
X107665600Y-31465600D02*
X106039682Y-31465600D01*
X204072900Y-89710300D02*
X203436800Y-89710300D01*
X308366000Y-42196000D02*
X303021556Y-42196000D01*
X58838123Y-41527700D02*
X60807022Y-41527700D01*
X64397014Y-95008528D02*
X64397014Y-72868439D01*
X266513216Y-43751194D02*
X266513216Y-38714356D01*
X71765600Y-43227930D02*
X71765600Y-43742300D01*
X207136641Y-32949300D02*
X207136641Y-36487635D01*
X59720900Y-26857100D02*
X59720900Y-40644923D01*
X233242500Y-92721700D02*
X233242500Y-89710300D01*
X107487914Y-70435800D02*
X114310628Y-70435800D01*
X52847942Y-24413082D02*
X52847942Y-25019649D01*
X184719000Y-58640288D02*
X184719000Y-52522462D01*
X224552400Y-36433650D02*
X224552400Y-36292678D01*
X275111200Y-25322000D02*
X275111200Y-24808900D01*
X182327600Y-65859707D02*
X182327600Y-59855117D01*
X115568425Y-71974800D02*
X123334903Y-71974800D01*
X282839691Y-64676204D02*
X284866344Y-64676204D01*
X87874415Y-44748082D02*
X87874415Y-43226811D01*
X104270200Y-93084600D02*
X104270200Y-92221986D01*
X155609300Y-33066055D02*
X155609300Y-29489884D01*
X300907344Y-66314900D02*
X309055757Y-66314900D01*
X243718400Y-67228500D02*
X243529300Y-67228500D01*
X111641400Y-29827000D02*
X111641400Y-30836100D01*
X303020622Y-36839867D02*
X307736291Y-36839840D01*
X154320600Y-75342502D02*
X154320600Y-75578235D01*
X166189300Y-73873397D02*
X166189300Y-69677700D01*
X224552400Y-36433650D02*
X224552400Y-36282205D01*
X305102129Y-28225529D02*
X305102129Y-26355719D01*
X192658706Y-22635500D02*
X196399563Y-22635500D01*
X261412638Y-26426500D02*
X255478870Y-26426500D01*
X275111200Y-25322000D02*
X275111200Y-25781995D01*
X149488500Y-41332290D02*
X149488500Y-51902311D01*
X279967321Y-25133150D02*
X280274763Y-25440579D01*
X230646877Y-92091229D02*
X230646799Y-90343053D01*
X188317894Y-73768306D02*
X185485084Y-73768306D01*
X281045928Y-25759996D02*
X294157339Y-25759996D01*
X163793600Y-18700700D02*
X165921678Y-18700700D01*
X171639629Y-23464040D02*
X171006903Y-22831300D01*
X145943672Y-73172330D02*
X145943672Y-74084574D01*
X208072300Y-50294700D02*
X208072300Y-50313600D01*
X29366400Y-42562700D02*
X29366400Y-41891009D01*
X123963617Y-70643151D02*
X129456337Y-70643151D01*
X299311810Y-69550599D02*
X297476275Y-69550599D01*
X296847297Y-70179577D02*
X296847297Y-95583572D01*
X140674049Y-34706403D02*
X140674057Y-34907632D01*
X145292681Y-35534361D02*
X150200960Y-35534361D01*
X133469099Y-75617432D02*
X133469099Y-75187823D01*
X267502386Y-66445000D02*
X282055130Y-66445000D01*
X285458327Y-65268187D02*
X285458327Y-65743531D01*
X108177614Y-42721209D02*
X108177614Y-37133192D01*
X43980388Y-26061400D02*
X58925200Y-26061400D01*
X190004353Y-66487900D02*
X182955793Y-66487900D01*
X106857200Y-69713600D02*
X106857200Y-68777051D01*
X298930416Y-66314900D02*
X286029696Y-66314900D01*
X294788300Y-25129035D02*
X294788300Y-23870500D01*
X67063403Y-26582153D02*
X62737538Y-26582153D01*
X179013600Y-23780700D02*
X180361565Y-23780700D01*
X130086600Y-77178215D02*
X130086600Y-89070518D01*
X299147441Y-25341468D02*
X304087878Y-25341468D01*
X163793600Y-18700700D02*
X165049500Y-18700700D01*
X72494600Y-25952638D02*
X72494600Y-25526500D01*
X60525823Y-67148289D02*
X65422236Y-67148289D01*
X66048942Y-64861682D02*
X66048955Y-66521565D01*
X87245215Y-42597611D02*
X72395919Y-42597611D01*
X282839700Y-65660430D02*
X282839700Y-64676200D01*
X180990929Y-23151332D02*
X180990919Y-21270375D01*
X286236600Y-41025011D02*
X286236600Y-42626400D01*
X143556961Y-72542565D02*
X145313907Y-72542565D01*
X52847942Y-25019649D02*
X52847946Y-25100040D01*
X123963600Y-71346103D02*
X123963600Y-70643200D01*
X197029100Y-22005963D02*
X197029100Y-20640400D01*
X130086600Y-75086180D02*
X130086598Y-75201077D01*
X133863704Y-34077700D02*
X140045321Y-34077700D01*
X188388533Y-73701075D02*
X188319943Y-73769665D01*
X67063403Y-26582153D02*
X71865085Y-26582153D01*
X60807022Y-41527700D02*
X68920779Y-41527700D01*
X29994909Y-41262500D02*
G75*
G03*
X29366400Y-41891009I-9J-628500D01*
G01*
X39859499Y-42807693D02*
G75*
G02*
X39231507Y-42179702I1J627993D01*
G01*
X129997600Y-50140048D02*
G75*
G02*
X129997639Y-50140135I0J-52D01*
G01*
X227049600Y-34672934D02*
G75*
G02*
X226420968Y-35301500I-628600J34D01*
G01*
X163112064Y-75577974D02*
G75*
G02*
X162481810Y-76208264I-630264J-26D01*
G01*
X309684300Y-65686357D02*
G75*
G02*
X309055757Y-66314900I-628500J-43D01*
G01*
X299311810Y-69550600D02*
G75*
G03*
X299941200Y-68921209I-10J629400D01*
G01*
X298518796Y-24500902D02*
G75*
G03*
X297888443Y-23870504I-630396J2D01*
G01*
X304474871Y-28783159D02*
G75*
G03*
X305102128Y-28225529I-2271J634159D01*
G01*
X133863704Y-34077681D02*
G75*
G02*
X133235119Y-33449124I-4J628581D01*
G01*
X206507511Y-37116741D02*
G75*
G03*
X207136641Y-36487635I-11J629141D01*
G01*
X108177600Y-43058626D02*
G75*
G02*
X107078732Y-44157500I-1098900J26D01*
G01*
X141300809Y-35534343D02*
G75*
G02*
X140674057Y-34907632I-9J626743D01*
G01*
X216713500Y-32319375D02*
G75*
G02*
X216083575Y-32949300I-629900J-25D01*
G01*
X227679230Y-30634634D02*
G75*
G03*
X227049534Y-31264296I-30J-629666D01*
G01*
X166550600Y-19329586D02*
G75*
G03*
X165921678Y-18700700I-628900J-14D01*
G01*
X143556975Y-73931270D02*
G75*
G02*
X142928795Y-74559475I-628175J-30D01*
G01*
X303020622Y-36839800D02*
G75*
G02*
X302392100Y-36211348I-22J628500D01*
G01*
X130627929Y-48109739D02*
G75*
G03*
X129997639Y-48739981I-29J-630261D01*
G01*
X52978315Y-41527700D02*
G75*
G03*
X52348600Y-42157415I-15J-629700D01*
G01*
X223561222Y-35301500D02*
G75*
G02*
X224552400Y-36292678I-22J-991200D01*
G01*
X43980388Y-26061434D02*
G75*
G02*
X43351666Y-25432673I12J628734D01*
G01*
X91789633Y-44157500D02*
G75*
G03*
X91161800Y-44785333I-33J-627800D01*
G01*
X197029100Y-22005963D02*
G75*
G02*
X196399563Y-22635500I-629500J-37D01*
G01*
X231277336Y-92721623D02*
G75*
G02*
X230646877Y-92091229I-36J630423D01*
G01*
X133235135Y-32714856D02*
G75*
G03*
X132606410Y-32086165I-628735J-44D01*
G01*
X304114603Y-25341470D02*
G75*
G02*
X305102130Y-26328992I-3J-987530D01*
G01*
X111011900Y-31465600D02*
G75*
G03*
X111641400Y-30836100I0J629500D01*
G01*
X108177551Y-47064037D02*
G75*
G03*
X108806926Y-47693349I629349J37D01*
G01*
X254849409Y-28737300D02*
G75*
G03*
X255478900Y-28107760I-9J629500D01*
G01*
X115568425Y-71974800D02*
G75*
G02*
X114939600Y-71345975I-25J628800D01*
G01*
X308365960Y-37469546D02*
G75*
G03*
X307736291Y-36839840I-629660J46D01*
G01*
X58838123Y-41527700D02*
G75*
G03*
X59720900Y-40644923I-23J882800D01*
G01*
X149488493Y-51902309D02*
G75*
G03*
X149488500Y-51902311I7J9D01*
G01*
X165608983Y-22510664D02*
G75*
G03*
X166550564Y-21569119I17J941564D01*
G01*
X53809352Y-26061354D02*
G75*
G02*
X52847946Y-25100040I-52J961354D01*
G01*
X122208514Y-47254979D02*
G75*
G03*
X121578938Y-46625386I-629614J-21D01*
G01*
X294788296Y-25129035D02*
G75*
G02*
X294157339Y-25759996I-630996J35D01*
G01*
X107548981Y-36504586D02*
G75*
G02*
X108177614Y-37133192I19J-628614D01*
G01*
X146573598Y-74714528D02*
G75*
G02*
X145943672Y-74084574I2J629928D01*
G01*
X184719000Y-58640288D02*
G75*
G02*
X183985888Y-59373400I-733100J-12D01*
G01*
X192658706Y-22635500D02*
G75*
G02*
X192029100Y-22005894I-6J629600D01*
G01*
X181620891Y-20640419D02*
G75*
G03*
X180990919Y-21270375I9J-629981D01*
G01*
X182809317Y-59373400D02*
G75*
G03*
X182327600Y-59855117I-17J-481700D01*
G01*
X134061679Y-91702300D02*
G75*
G03*
X133950721Y-91591321I-110979J0D01*
G01*
X263158417Y-66445000D02*
G75*
G02*
X262374883Y-67228517I-783517J0D01*
G01*
X108177600Y-45049324D02*
G75*
G03*
X107285790Y-44157500I-891800J24D01*
G01*
X122838864Y-50140190D02*
G75*
G02*
X122208510Y-49509777I36J630390D01*
G01*
X314556368Y-24712553D02*
G75*
G02*
X313927485Y-25341468I-628868J-47D01*
G01*
X134097447Y-74559499D02*
G75*
G03*
X133469099Y-75187823I-47J-628301D01*
G01*
X87245215Y-42597585D02*
G75*
G02*
X87874415Y-43226811I-15J-629215D01*
G01*
X230646800Y-90343053D02*
G75*
G03*
X230014019Y-89710300I-632800J-47D01*
G01*
X61471345Y-24413060D02*
G75*
G02*
X62108840Y-25050577I-45J-637540D01*
G01*
X298930416Y-66314900D02*
G75*
G02*
X299941200Y-67325684I-16J-1010800D01*
G01*
X130086549Y-71273414D02*
G75*
G03*
X129456337Y-70643151I-630249J14D01*
G01*
X39231600Y-41891676D02*
G75*
G03*
X38602366Y-41262500I-629200J-24D01*
G01*
X261787739Y-84034600D02*
G75*
G02*
X262417900Y-84664761I-39J-630200D01*
G01*
X307181300Y-96841526D02*
G75*
G03*
X306552274Y-96212500I-629000J26D01*
G01*
X205103865Y-37745843D02*
G75*
G02*
X205732878Y-37116765I629035J43D01*
G01*
X66048889Y-66521565D02*
G75*
G02*
X65422236Y-67148289I-626689J-35D01*
G01*
X225182588Y-48054100D02*
G75*
G02*
X224552400Y-47423912I12J630200D01*
G01*
X300907344Y-66314900D02*
G75*
G03*
X299941200Y-67281044I-44J-966100D01*
G01*
X149488486Y-41332290D02*
G75*
G03*
X148858624Y-40702414I-629886J-10D01*
G01*
X233242500Y-84661777D02*
G75*
G02*
X233869677Y-84034600I627200J-23D01*
G01*
X107487914Y-70435800D02*
G75*
G02*
X106857200Y-69805086I-14J630700D01*
G01*
X104906444Y-35872473D02*
G75*
G03*
X105538461Y-36504556I632056J-27D01*
G01*
X52847922Y-24413091D02*
G75*
G02*
X52847900Y-24413124I-22J-9D01*
G01*
X204758975Y-73072968D02*
G75*
G02*
X204130931Y-73701075I-628075J-32D01*
G01*
X286029696Y-66314873D02*
G75*
G02*
X285458327Y-65743531I4J571373D01*
G01*
X220496224Y-31176100D02*
G75*
G02*
X221128000Y-31807893I-24J-631800D01*
G01*
X146438000Y-48109656D02*
G75*
G02*
X147067144Y-48738835I0J-629144D01*
G01*
X302392104Y-29410687D02*
G75*
G02*
X303019683Y-28783104I627596J-13D01*
G01*
X190004353Y-66487945D02*
G75*
G02*
X190633455Y-67117002I47J-629055D01*
G01*
X104906400Y-32318500D02*
G75*
G02*
X105759278Y-31465600I852900J0D01*
G01*
X156238484Y-28860700D02*
G75*
G03*
X155609300Y-29489884I16J-629200D01*
G01*
X63766835Y-72238186D02*
G75*
G02*
X64397014Y-72868439I-35J-630214D01*
G01*
X265883655Y-38084884D02*
G75*
G02*
X266513216Y-38714356I45J-629516D01*
G01*
X225533105Y-35301500D02*
G75*
G03*
X224552400Y-36282205I-5J-980700D01*
G01*
X166189300Y-73873397D02*
G75*
G02*
X165560697Y-74502000I-628600J-3D01*
G01*
X70178246Y-43742233D02*
G75*
G02*
X69549267Y-43113279I-46J628933D01*
G01*
X69549300Y-42156193D02*
G75*
G03*
X68920779Y-41527700I-628500J-7D01*
G01*
X87874465Y-44748082D02*
G75*
G03*
X88502568Y-45376235I628135J-18D01*
G01*
X221128000Y-34672459D02*
G75*
G03*
X221757041Y-35301500I629000J-41D01*
G01*
X182327600Y-65859707D02*
G75*
G03*
X182955793Y-66487900I628200J7D01*
G01*
X106227749Y-68147600D02*
G75*
G02*
X106857200Y-68777051I-49J-629500D01*
G01*
X167581458Y-22510736D02*
G75*
G02*
X166550564Y-21479806I42J1030936D01*
G01*
X72494653Y-25952638D02*
G75*
G02*
X71865085Y-26582153I-629553J38D01*
G01*
X114939600Y-71064772D02*
G75*
G03*
X114310628Y-70435800I-629000J-28D01*
G01*
X62108847Y-25953455D02*
G75*
G03*
X62737538Y-26582153I628653J-45D01*
G01*
X281045928Y-25759982D02*
G75*
G02*
X280274763Y-25440579I-28J1090582D01*
G01*
X302392100Y-41566544D02*
G75*
G03*
X303021556Y-42196000I629500J44D01*
G01*
X306097962Y-25341532D02*
G75*
G03*
X305102132Y-26337239I-62J-995768D01*
G01*
X145943635Y-73172330D02*
G75*
G03*
X145313907Y-72542565I-629735J30D01*
G01*
X64397000Y-95008528D02*
G75*
G03*
X65026286Y-95637800I629300J28D01*
G01*
X145981458Y-40702478D02*
G75*
G02*
X145307622Y-40028578I42J673878D01*
G01*
X162117087Y-26320762D02*
G75*
G02*
X161488438Y-25692051I13J628662D01*
G01*
X204933287Y-71829853D02*
G75*
G03*
X204759053Y-72004117I13J-174247D01*
G01*
X185345162Y-51896300D02*
G75*
G03*
X184719000Y-52522462I38J-626200D01*
G01*
X261412638Y-26426567D02*
G75*
G03*
X260385567Y-27453571I-38J-1027033D01*
G01*
X154320600Y-75342502D02*
G75*
G03*
X153692599Y-74714500I-628000J2D01*
G01*
X154950570Y-76208309D02*
G75*
G02*
X154320591Y-75578244I30J630009D01*
G01*
X243718400Y-68917334D02*
G75*
G02*
X243089434Y-69546300I-629000J34D01*
G01*
X263320378Y-37456236D02*
G75*
G03*
X263948992Y-38084822I628622J36D01*
G01*
X130086598Y-75201077D02*
G75*
G03*
X131131023Y-76245502I1044402J-23D01*
G01*
X296847299Y-70179577D02*
G75*
G02*
X297476275Y-69550599I629001J-23D01*
G01*
X104906400Y-30332296D02*
G75*
G03*
X106039682Y-31465600I1133300J-4D01*
G01*
X140674000Y-34706403D02*
G75*
G03*
X140045321Y-34077700I-628700J3D01*
G01*
X208072299Y-49307913D02*
G75*
G03*
X207443618Y-48679201I-628699J13D01*
G01*
X259450223Y-26426433D02*
G75*
G02*
X260385567Y-27361844I-23J-935367D01*
G01*
X298518832Y-24712885D02*
G75*
G03*
X299147441Y-25341468I628568J-15D01*
G01*
X71765611Y-43227930D02*
G75*
G02*
X72395919Y-42597611I630289J30D01*
G01*
X123963600Y-71346103D02*
G75*
G02*
X123334903Y-71974800I-628700J3D01*
G01*
X147067140Y-51275919D02*
G75*
G03*
X147693585Y-51902360I626460J19D01*
G01*
X133469100Y-75617433D02*
G75*
G03*
X133469100Y-75617433I0J0D01*
G01*
X92366600Y-29073146D02*
G75*
G03*
X92996154Y-29702700I629600J46D01*
G01*
X60807022Y-41527700D02*
G75*
G02*
X59720900Y-40441578I-22J1086100D01*
G01*
X150830161Y-34905221D02*
G75*
G02*
X150200960Y-35534361I-629161J21D01*
G01*
X171006901Y-22831302D02*
G75*
G03*
X170232918Y-22510700I-774001J-773998D01*
G01*
X155609300Y-33066055D02*
G75*
G02*
X154980255Y-33695100I-629000J-45D01*
G01*
X154320593Y-75578234D02*
G75*
G03*
X154320600Y-75578235I7J34D01*
G01*
X189461359Y-50294700D02*
G75*
G03*
X188831800Y-50924259I41J-629600D01*
G01*
X111117225Y-46625388D02*
G75*
G03*
X110487688Y-47254918I-25J-629512D01*
G01*
X188317892Y-73768313D02*
G75*
G02*
X188319942Y-73769666I-1092J-3887D01*
G01*
X51880173Y-26061342D02*
G75*
G03*
X52847942Y-25093631I27J967742D01*
G01*
X134061612Y-90329340D02*
G75*
G03*
X133431848Y-89699488I-629812J40D01*
G01*
X255478872Y-26426510D02*
G75*
G02*
X255478870Y-26426500I28J10D01*
G01*
X260385600Y-29913309D02*
G75*
G03*
X261014058Y-30541800I628500J9D01*
G01*
X262690858Y-30541800D02*
G75*
G02*
X263320400Y-31171342I42J-629500D01*
G01*
X282839700Y-65660430D02*
G75*
G02*
X282055130Y-66445000I-784600J30D01*
G01*
X180991000Y-23151332D02*
G75*
G02*
X180361565Y-23780700I-629400J32D01*
G01*
X130715570Y-89699500D02*
G75*
G02*
X130086600Y-89070518I30J629000D01*
G01*
X286236626Y-41025011D02*
G75*
G02*
X286866285Y-40395326I629674J11D01*
G01*
X104276782Y-29702722D02*
G75*
G02*
X104906378Y-30332296I18J-629578D01*
G01*
X279967319Y-25133152D02*
G75*
G03*
X279184504Y-24808906I-782819J-782848D01*
G01*
X43351600Y-24614347D02*
G75*
G03*
X42722430Y-23985100I-629200J47D01*
G01*
X60525840Y-71609659D02*
G75*
G03*
X61154424Y-72238260I628560J-41D01*
G01*
X297476225Y-96212503D02*
G75*
G02*
X296847297Y-95583572I-25J628903D01*
G01*
X161488400Y-23140260D02*
G75*
G02*
X162117998Y-22510700I629600J-40D01*
G01*
X130086600Y-77178215D02*
G75*
G02*
X131019315Y-76245500I932700J15D01*
G01*
X285458296Y-65268187D02*
G75*
G03*
X284866344Y-64676204I-591996J-13D01*
G01*
X301759918Y-40395300D02*
G75*
G02*
X302392100Y-41027508I-18J-632200D01*
G01*
X235912700Y-30005943D02*
G75*
G02*
X235284043Y-30634600I-628700J43D01*
G01*
X59720900Y-26857100D02*
G75*
G03*
X58925200Y-26061400I-795700J0D01*
G01*
X223960383Y-71200684D02*
G75*
G02*
X223331201Y-71829883I-629183J-16D01*
G01*
X274466695Y-26426500D02*
G75*
G03*
X275111200Y-25781995I5J644500D01*
G01*
X104900865Y-91591300D02*
G75*
G03*
X104270200Y-92221986I35J-630700D01*
G01*
X172404100Y-23780703D02*
G75*
G02*
X171639629Y-23464040I0J1081103D01*
G01*
X133469102Y-75617433D02*
G75*
G02*
X132841031Y-76245502I-628102J33D01*
G01*
X205733608Y-48679200D02*
G75*
G02*
X205103800Y-48049393I-8J629800D01*
G01*
X145307639Y-35549302D02*
G75*
G03*
X145292681Y-35534361I-14939J2D01*
G01*
X267502386Y-66445004D02*
G75*
G02*
X266726210Y-66123498I14J1097704D01*
G01*
X246837100Y-44383147D02*
G75*
G02*
X247469047Y-43751200I631900J47D01*
G01*
X266538693Y-65935967D02*
G75*
G03*
X265774902Y-65619606I-763793J-763833D01*
G01*
D60*
X136162003Y-30594400D02*
X131305300Y-30594400D01*
X145642800Y-33332400D02*
X137080998Y-33332400D01*
X136621500Y-32872902D02*
X136621500Y-31053897D01*
X136162003Y-30594400D02*
G75*
G02*
X136621500Y-31053897I-3J-459500D01*
G01*
X136621500Y-32872902D02*
G75*
G03*
X137080998Y-33332400I459500J2D01*
G01*
X154514600Y-21700813D02*
X154514600Y-31739350D01*
X154055150Y-32198800D02*
X150934800Y-32198800D01*
X163793600Y-21240700D02*
X154974713Y-21240700D01*
X154514600Y-21700813D02*
G75*
G02*
X154974713Y-21240700I460100J13D01*
G01*
X154055150Y-32198800D02*
G75*
G03*
X154514600Y-31739350I-50J459500D01*
G01*
D61*
X147457541Y-69291400D02*
X139170154Y-69291400D01*
X152021245Y-71176000D02*
X158029500Y-71176000D01*
X201047641Y-56016537D02*
X200490108Y-56016537D01*
X294275901Y-44575074D02*
X294275894Y-44794302D01*
X102900398Y-27617849D02*
X106700783Y-27617849D01*
X115428300Y-50447563D02*
X115428300Y-49902500D01*
X241622498Y-94580700D02*
X238325100Y-94580700D01*
X211385100Y-30227900D02*
X211385100Y-30188500D01*
X111459800Y-64227700D02*
X111459800Y-57156896D01*
X154571100Y-53761400D02*
X154571100Y-54370952D01*
X109562200Y-94377691D02*
X114562341Y-94377691D01*
X27950900Y-21608186D02*
X27950900Y-22485100D01*
X199430700Y-71055900D02*
X199430700Y-69413532D01*
X119652623Y-66204500D02*
X131228083Y-66204500D01*
X201676831Y-65023169D02*
X201676831Y-67810011D01*
X99756400Y-64856835D02*
X99756400Y-66112200D01*
X181042900Y-59310437D02*
X181042900Y-68631738D01*
X241625184Y-94583386D02*
X241622498Y-94580700D01*
X304801232Y-45423795D02*
X313138405Y-45423795D01*
X109465000Y-94218200D02*
X109562200Y-94218200D01*
X153941752Y-55000300D02*
X148849723Y-55000300D01*
X269819216Y-23675294D02*
X250780304Y-23675294D01*
X84361026Y-96346767D02*
X80670203Y-96346767D01*
X128941080Y-54368250D02*
X128941080Y-58391605D01*
X148848145Y-60821393D02*
X150762223Y-60821393D01*
X260010300Y-56596655D02*
X260010300Y-57203400D01*
X189412267Y-31815694D02*
X192132116Y-31815694D01*
X313566000Y-44996200D02*
X313566000Y-43696000D01*
X132163700Y-63107450D02*
X132163700Y-65167502D01*
X200059683Y-68784549D02*
X200666637Y-68784555D01*
X132163700Y-65167502D02*
X132163700Y-67227688D01*
X232601500Y-48815900D02*
X232601500Y-50447466D01*
X111459800Y-64227700D02*
X100385535Y-64227700D01*
X256475517Y-46515400D02*
X252170236Y-46515400D01*
X208636800Y-95169100D02*
X208636800Y-93193200D01*
X250150500Y-25478300D02*
X250150500Y-24305098D01*
X231970468Y-51078498D02*
X228518666Y-51078498D01*
X260916900Y-58110000D02*
X276961323Y-58110000D01*
X68096840Y-46840200D02*
X76219666Y-46840200D01*
X200816454Y-53029900D02*
X198685011Y-53029900D01*
X177867840Y-32728500D02*
X183389531Y-32728500D01*
X106426200Y-50447273D02*
X106426200Y-48040392D01*
X227889574Y-51707590D02*
X227889574Y-56377962D01*
X126133700Y-29472941D02*
X126133700Y-30050800D01*
X179013600Y-28860700D02*
X177869031Y-28860700D01*
X148221278Y-55628745D02*
X148221278Y-60194526D01*
X139261700Y-93749158D02*
X139261700Y-93202300D01*
X33131700Y-62925800D02*
X33131700Y-62196419D01*
X257866416Y-64485994D02*
X238869369Y-64485994D01*
X231184945Y-25478300D02*
X250150500Y-25478300D01*
X257421400Y-50119332D02*
X257421400Y-47871400D01*
X110216662Y-51076100D02*
X108199713Y-51076100D01*
X45093985Y-22103366D02*
X45093992Y-21608274D01*
X134383078Y-53737975D02*
X129571355Y-53737975D01*
X260010300Y-56596655D02*
X260010300Y-51376330D01*
X211385100Y-30188500D02*
X211385100Y-28604305D01*
X33761619Y-61566500D02*
X57128054Y-61566500D01*
X177238919Y-29490812D02*
X177238919Y-32099579D01*
X260010300Y-56596655D02*
X260010314Y-57076102D01*
X80985290Y-62883300D02*
X93842651Y-62883300D01*
X260916900Y-58110000D02*
X258496955Y-58110000D01*
X158029500Y-71176000D02*
X158029500Y-72643000D01*
X183434701Y-58596200D02*
X181757137Y-58596200D01*
X109562200Y-94218200D02*
X109562200Y-94377691D01*
X231213842Y-57637257D02*
X231213842Y-65267320D01*
X257421400Y-47871400D02*
X257421400Y-47461283D01*
X257866400Y-58740555D02*
X257866400Y-64638100D01*
X85949944Y-46229871D02*
X85949944Y-47990122D01*
X230200811Y-66280304D02*
X230123249Y-66280300D01*
X303877491Y-46702491D02*
X303877491Y-48228113D01*
X180193116Y-70383347D02*
X180193116Y-72634694D01*
X201676831Y-65023169D02*
X201676831Y-56645727D01*
X132163700Y-63107450D02*
X132163700Y-59649762D01*
X271805200Y-45886121D02*
X271805200Y-44884800D01*
X96176600Y-47989030D02*
X96176600Y-47411600D01*
X76848229Y-46211657D02*
X76848249Y-45601340D01*
X119022983Y-68434049D02*
X119022948Y-66834189D01*
X57754180Y-62192641D02*
X57754180Y-62551638D01*
X258449776Y-46515400D02*
X256475517Y-46515400D01*
X238200900Y-65154463D02*
X238200900Y-66280300D01*
X108199713Y-51076100D02*
X107055027Y-51076100D01*
X109191300Y-52101462D02*
X109191302Y-52053638D01*
X151393300Y-61452470D02*
X151393300Y-70548055D01*
X23017024Y-45310377D02*
X33937144Y-45310377D01*
X271805184Y-44884806D02*
X274875373Y-44884806D01*
X199861489Y-55387918D02*
X199861489Y-54039971D01*
X230123249Y-66280300D02*
X232148118Y-66280300D01*
X267432700Y-97710352D02*
X267432700Y-97131700D01*
X64044502Y-23038184D02*
X64044457Y-21607890D01*
X232148118Y-66280300D02*
X238200930Y-66280300D01*
X218602200Y-68784500D02*
X218602200Y-66909162D01*
X180724630Y-69400068D02*
X180512601Y-69612081D01*
X179013600Y-28860700D02*
X188158616Y-28860700D01*
X138542239Y-70507235D02*
X132792738Y-70507270D01*
X201676831Y-65023169D02*
X201676831Y-67774372D01*
X111459800Y-64227700D02*
X111459800Y-67806604D01*
X47703458Y-22732518D02*
X45723126Y-22732518D01*
X212771437Y-53029900D02*
X200816454Y-53029900D01*
X270449086Y-22073700D02*
X281951300Y-22073700D01*
X114562341Y-94377691D02*
X138633167Y-94377691D01*
X257421400Y-47871400D02*
X257421400Y-47543776D01*
X95101500Y-66112235D02*
X99756439Y-66112235D01*
X102271280Y-24721508D02*
X102271275Y-26988724D01*
X198685011Y-53029900D02*
X194123790Y-53029900D01*
X64673798Y-23667460D02*
X67411951Y-23667460D01*
X115823392Y-27073757D02*
X115823405Y-29421549D01*
X67412000Y-23667500D02*
X67412000Y-23057531D01*
X145747500Y-28824903D02*
X145728303Y-28844100D01*
X47703500Y-22732500D02*
X47703500Y-21608877D01*
X260773299Y-98338400D02*
X266804652Y-98338400D01*
X48333477Y-20978900D02*
X63415449Y-20978900D01*
X176775911Y-72634700D02*
X180193100Y-72634700D01*
X76857804Y-25297735D02*
X87351839Y-25297735D01*
X110216662Y-51076100D02*
X114799763Y-51076100D01*
X258449776Y-46515400D02*
X271175921Y-46515400D01*
X68040931Y-22428600D02*
X75598223Y-22428600D01*
X145728303Y-28844100D02*
X126762541Y-28844100D01*
X194584866Y-71055900D02*
X199430700Y-71055900D01*
X112087245Y-68434049D02*
X119022983Y-68434049D01*
X110216662Y-51076100D02*
X110168838Y-51076102D01*
X58383669Y-63181118D02*
X60904458Y-63181118D01*
X106700800Y-27617800D02*
X106700800Y-27073533D01*
X76848200Y-45601300D02*
X85321373Y-45601300D01*
X158029451Y-72642960D02*
X148714089Y-72642960D01*
X269819200Y-23675300D02*
X269819200Y-22703586D01*
X291485791Y-43944004D02*
X293644810Y-43944004D01*
X105797373Y-47411565D02*
X96176561Y-47411565D01*
X211385100Y-30188500D02*
X192760901Y-30188500D01*
X86578122Y-48618300D02*
X95547330Y-48618300D01*
X198685011Y-53029900D02*
X198851429Y-53029902D01*
X193956933Y-74550575D02*
X193956933Y-71683833D01*
X282992963Y-22552896D02*
X289539109Y-22552896D01*
X44464628Y-20978900D02*
X28580186Y-20978900D01*
X277590500Y-58739177D02*
X277590500Y-63358600D01*
X290168867Y-21101400D02*
X308726914Y-21101400D01*
X300668322Y-49486127D02*
X300668322Y-62289185D01*
X87980356Y-24091000D02*
X101640774Y-24091000D01*
X213400700Y-51261800D02*
X213400700Y-52400637D01*
X110831506Y-56528589D02*
X109821833Y-56528569D01*
X37061963Y-44692372D02*
X37061968Y-44973149D01*
X294905368Y-45423795D02*
X302845423Y-45423795D01*
X219231062Y-66280300D02*
X230123249Y-66280300D01*
X176772463Y-72631252D02*
X176775911Y-72634700D01*
X67468333Y-45117974D02*
X67468350Y-46211718D01*
X291485800Y-44981804D02*
X291485800Y-43944000D01*
X33131700Y-62925800D02*
X23017021Y-62925800D01*
X303249714Y-48855890D02*
X301298559Y-48855890D01*
X87351800Y-25297700D02*
X87351800Y-24719556D01*
X76228003Y-23058375D02*
X76228015Y-24667951D01*
X37690500Y-45601670D02*
X56863988Y-45601670D01*
X259380966Y-50746996D02*
X258049064Y-50746996D01*
X303877491Y-46702491D02*
X303877491Y-46455863D01*
X34566400Y-44062700D02*
X36432281Y-44062700D01*
X301298937Y-62919800D02*
X304484300Y-62919800D01*
X199861489Y-55387918D02*
X199861489Y-53984865D01*
X34566400Y-44681121D02*
X34566400Y-44062700D01*
X289539100Y-22552900D02*
X289539100Y-21731167D01*
X94472366Y-65483094D02*
X94472387Y-63513042D01*
X107330133Y-26444200D02*
X115193831Y-26444200D01*
X148083497Y-72012364D02*
X148083509Y-69917372D01*
X309356400Y-21730886D02*
X309356400Y-22115900D01*
X22387400Y-62296179D02*
X22387400Y-45940001D01*
X228519006Y-57007394D02*
X230583979Y-57007394D01*
X192132100Y-30817301D02*
X192132100Y-31815700D01*
X218602223Y-68784549D02*
X202651369Y-68784549D01*
X303877491Y-46702491D02*
X303877491Y-46347536D01*
X132163700Y-67227688D02*
X132163700Y-69878236D01*
X135012361Y-52175465D02*
X135012361Y-53108692D01*
X202651369Y-68784549D02*
X200059683Y-68784549D01*
X258496955Y-58110000D02*
X258976402Y-58110014D01*
X109191300Y-54422550D02*
X109191300Y-52067687D01*
X145747500Y-28824903D02*
X145747500Y-31836100D01*
X188785289Y-29487378D02*
X188785275Y-31188697D01*
X57493042Y-44488282D02*
X66838632Y-44488282D01*
X276496483Y-45611300D02*
X290856304Y-45611300D01*
X302845423Y-45423795D02*
X304801232Y-45423795D01*
X138542200Y-69919354D02*
X138542200Y-70507200D01*
X184018800Y-33357769D02*
X184018800Y-58012101D01*
X109191300Y-55898036D02*
X109191300Y-54422550D01*
X116452695Y-30050835D02*
X126133739Y-30050835D01*
X230554500Y-27975500D02*
X230554500Y-26108745D01*
X282571442Y-22378296D02*
X282489937Y-22296798D01*
X230554523Y-27975549D02*
X212013856Y-27975549D01*
X80356300Y-64122200D02*
X80356300Y-63512290D01*
X132163700Y-65268883D02*
X132163700Y-65167502D01*
X129569807Y-59020332D02*
X131534270Y-59020332D01*
X57493049Y-44972600D02*
X57493042Y-44488282D01*
X109191300Y-54422550D02*
X109191300Y-52101462D01*
X200816454Y-53029889D02*
G75*
G03*
X199861489Y-53984865I46J-955011D01*
G01*
X180724603Y-69400041D02*
G75*
G03*
X181042900Y-68631738I-768203J768341D01*
G01*
X57754200Y-62192641D02*
G75*
G03*
X57128054Y-61566500I-626100J41D01*
G01*
X257421404Y-50119332D02*
G75*
G03*
X258049064Y-50746996I627696J32D01*
G01*
X257866400Y-64485994D02*
G75*
G02*
X257826810Y-64525600I-39600J-6D01*
G01*
X231184945Y-25478300D02*
G75*
G03*
X230554500Y-26108745I-45J-630400D01*
G01*
X67468318Y-45117974D02*
G75*
G03*
X66838632Y-44488282I-629718J-26D01*
G01*
X184018800Y-33357769D02*
G75*
G03*
X183389531Y-32728500I-629300J-31D01*
G01*
X302845423Y-45423809D02*
G75*
G02*
X303877491Y-46455863I-23J-1032091D01*
G01*
X257866400Y-58740555D02*
G75*
G02*
X258496955Y-58110000I630600J-45D01*
G01*
X303249714Y-48855891D02*
G75*
G03*
X303877491Y-48228113I-14J627791D01*
G01*
X259380966Y-50747000D02*
G75*
G02*
X260010300Y-51376330I34J-629300D01*
G01*
X86578122Y-48618256D02*
G75*
G02*
X85949944Y-47990122I-22J628156D01*
G01*
X252165400Y-46510617D02*
G75*
G03*
X252170236Y-46515400I4800J17D01*
G01*
X22387400Y-62296179D02*
G75*
G03*
X23017021Y-62925800I629600J-21D01*
G01*
X276496483Y-45611305D02*
G75*
G02*
X275735312Y-45296020I17J1076505D01*
G01*
X309356400Y-21730886D02*
G75*
G03*
X308726914Y-21101400I-629500J-14D01*
G01*
X277590500Y-58739177D02*
G75*
G03*
X276961323Y-58110000I-629200J-23D01*
G01*
X132163700Y-65268883D02*
G75*
G02*
X131228083Y-66204500I-935600J-17D01*
G01*
X271805200Y-45886121D02*
G75*
G02*
X271175921Y-46515400I-629300J21D01*
G01*
X110168838Y-51076102D02*
G75*
G03*
X109191302Y-52053638I62J-977598D01*
G01*
X282992963Y-22552929D02*
G75*
G02*
X282571442Y-22378296I37J596129D01*
G01*
X106426200Y-50447273D02*
G75*
G03*
X107055027Y-51076100I628800J-27D01*
G01*
X250150494Y-24305098D02*
G75*
G02*
X250780304Y-23675294I629806J-2D01*
G01*
X37690500Y-45601632D02*
G75*
G02*
X37061968Y-44973149I0J628532D01*
G01*
X37062000Y-44692372D02*
G75*
G03*
X36432281Y-44062700I-629700J-28D01*
G01*
X119652623Y-66204548D02*
G75*
G03*
X119022948Y-66834189I-23J-629652D01*
G01*
X23017024Y-45310400D02*
G75*
G03*
X22387400Y-45940001I-24J-629600D01*
G01*
X109191331Y-55898036D02*
G75*
G03*
X109821833Y-56528569I630469J-64D01*
G01*
X129569807Y-59020320D02*
G75*
G02*
X128941080Y-58391605I-7J628720D01*
G01*
X199861463Y-55387918D02*
G75*
G03*
X200490108Y-56016537I628637J18D01*
G01*
X68096840Y-46840150D02*
G75*
G02*
X67468350Y-46211718I-40J628450D01*
G01*
X96176600Y-47989030D02*
G75*
G02*
X95547330Y-48618300I-629300J30D01*
G01*
X180193146Y-70383347D02*
G75*
G02*
X180512601Y-69612081I1090654J47D01*
G01*
X152021245Y-71176000D02*
G75*
G02*
X151393300Y-70548055I-45J627900D01*
G01*
X151393307Y-61452470D02*
G75*
G03*
X150762223Y-60821393I-631107J-30D01*
G01*
X291485800Y-44981804D02*
G75*
G02*
X290856304Y-45611300I-629500J4D01*
G01*
X85950000Y-46229871D02*
G75*
G03*
X85321373Y-45601300I-628600J-29D01*
G01*
X80430967Y-96586017D02*
G75*
G02*
X80670203Y-96346767I239233J17D01*
G01*
X300668390Y-49486127D02*
G75*
G02*
X301298559Y-48855890I630210J27D01*
G01*
X290168867Y-21101400D02*
G75*
G03*
X289539100Y-21731167I33J-629800D01*
G01*
X58383669Y-63181126D02*
G75*
G02*
X57754174Y-62551644I31J629526D01*
G01*
X200666637Y-68784631D02*
G75*
G03*
X201676831Y-67774372I-37J1010231D01*
G01*
X99756400Y-64856835D02*
G75*
G02*
X100385535Y-64227700I629100J35D01*
G01*
X116452695Y-30050795D02*
G75*
G02*
X115823405Y-29421549I5J629295D01*
G01*
X33761619Y-61566500D02*
G75*
G03*
X33131700Y-62196419I-19J-629900D01*
G01*
X147457541Y-69291391D02*
G75*
G02*
X148083509Y-69917372I-41J-626009D01*
G01*
X153941752Y-55000300D02*
G75*
G03*
X154571100Y-54370952I48J629300D01*
G01*
X45093982Y-22103366D02*
G75*
G03*
X45723126Y-22732518I629118J-34D01*
G01*
X177238900Y-29490812D02*
G75*
G02*
X177869031Y-28860700I630100J12D01*
G01*
X256475517Y-46515400D02*
G75*
G02*
X257421400Y-47461283I-17J-945900D01*
G01*
X44464628Y-20978908D02*
G75*
G02*
X45093992Y-21608274I-28J-629392D01*
G01*
X304801232Y-45423791D02*
G75*
G03*
X303877491Y-46347536I-32J-923709D01*
G01*
X105797373Y-47411600D02*
G75*
G02*
X106426200Y-48040392I27J-628800D01*
G01*
X112087245Y-68434000D02*
G75*
G02*
X111459800Y-67806604I-45J627400D01*
G01*
X294275896Y-44575074D02*
G75*
G03*
X293644810Y-43944004I-631096J-26D01*
G01*
X177867840Y-32728481D02*
G75*
G02*
X177238919Y-32099579I-40J628881D01*
G01*
X108199713Y-51076100D02*
G75*
G02*
X109191300Y-52067687I-13J-991600D01*
G01*
X76857804Y-25297685D02*
G75*
G02*
X76228015Y-24667951I-4J629785D01*
G01*
X282489941Y-22296794D02*
G75*
G03*
X281951300Y-22073700I-538641J-538706D01*
G01*
X139261691Y-93749158D02*
G75*
G02*
X138633167Y-94377691I-628491J-42D01*
G01*
X294905368Y-45423806D02*
G75*
G02*
X294275894Y-44794302I32J629506D01*
G01*
X181042900Y-59310437D02*
G75*
G02*
X181757137Y-58596200I714200J37D01*
G01*
X138542200Y-69919354D02*
G75*
G02*
X139170154Y-69291400I628000J-46D01*
G01*
X270449086Y-22073700D02*
G75*
G03*
X269819200Y-22703586I14J-629900D01*
G01*
X183434701Y-58596200D02*
G75*
G03*
X184018800Y-58012101I-1J584100D01*
G01*
X64673798Y-23667498D02*
G75*
G02*
X64044502Y-23038184I2J629298D01*
G01*
X228519006Y-57007426D02*
G75*
G02*
X227889574Y-56377962I-6J629426D01*
G01*
X80985290Y-62883300D02*
G75*
G03*
X80356300Y-63512290I10J-629000D01*
G01*
X192132100Y-30817301D02*
G75*
G02*
X192760901Y-30188500I628800J1D01*
G01*
X211385149Y-28604305D02*
G75*
G02*
X212013856Y-27975549I628751J5D01*
G01*
X275641366Y-45202057D02*
G75*
G03*
X274875373Y-44884806I-765966J-766043D01*
G01*
X48333477Y-20978900D02*
G75*
G03*
X47703500Y-21608877I23J-630000D01*
G01*
X258449776Y-46515400D02*
G75*
G03*
X257421400Y-47543776I24J-1028400D01*
G01*
X34566377Y-44681121D02*
G75*
G02*
X33937144Y-45310377I-629277J21D01*
G01*
X227889598Y-51707590D02*
G75*
G02*
X228518666Y-51078498I629102J-10D01*
G01*
X231970468Y-51078500D02*
G75*
G03*
X232601500Y-50447466I32J631000D01*
G01*
X95101500Y-66112234D02*
G75*
G02*
X94472366Y-65483094I0J629134D01*
G01*
X64044400Y-21607890D02*
G75*
G03*
X63415449Y-20978900I-629000J-10D01*
G01*
X230200811Y-66280242D02*
G75*
G03*
X231213842Y-65267320I89J1012942D01*
G01*
X188785300Y-29487378D02*
G75*
G03*
X188158616Y-28860700I-626700J-22D01*
G01*
X189412267Y-31815725D02*
G75*
G02*
X188785275Y-31188697I33J627025D01*
G01*
X258976402Y-58110014D02*
G75*
G03*
X260010314Y-57076102I-2J1033914D01*
G01*
X132163768Y-59649762D02*
G75*
G03*
X131534270Y-59020332I-629468J-38D01*
G01*
X107330133Y-26444200D02*
G75*
G03*
X106700800Y-27073533I-33J-629300D01*
G01*
X94472400Y-63513042D02*
G75*
G03*
X93842651Y-62883300I-629700J42D01*
G01*
X219231062Y-66280300D02*
G75*
G03*
X218602200Y-66909162I38J-628900D01*
G01*
X27950900Y-21608186D02*
G75*
G02*
X28580186Y-20978900I629300J-14D01*
G01*
X148221300Y-55628745D02*
G75*
G02*
X148849723Y-55000300I628400J45D01*
G01*
X200059683Y-68784500D02*
G75*
G03*
X199430700Y-69413532I17J-629000D01*
G01*
X231213806Y-57637257D02*
G75*
G03*
X230583979Y-57007394I-629806J57D01*
G01*
X57754179Y-62551636D02*
G75*
G03*
X57754180Y-62551637I21J36D01*
G01*
X267432700Y-97710352D02*
G75*
G02*
X266804652Y-98338400I-628000J-48D01*
G01*
X194123791Y-53029904D02*
G75*
G02*
X194123790Y-53029900I9J4D01*
G01*
X132163700Y-67227688D02*
G75*
G03*
X131140512Y-66204500I-1023200J-12D01*
G01*
X198851429Y-53029911D02*
G75*
G02*
X199861489Y-54039971I-29J-1010089D01*
G01*
X232148118Y-66280258D02*
G75*
G02*
X231213842Y-65346024I-18J934258D01*
G01*
X132792738Y-70507200D02*
G75*
G02*
X132163700Y-69878236I-38J629000D01*
G01*
X301298937Y-62919778D02*
G75*
G02*
X300668322Y-62289185I-37J630578D01*
G01*
X148848145Y-60821322D02*
G75*
G02*
X148221278Y-60194526I-45J626822D01*
G01*
X57493070Y-44972600D02*
G75*
G02*
X56863988Y-45601670I-629070J0D01*
G01*
X194584866Y-71055833D02*
G75*
G03*
X193956933Y-71683833I34J-627967D01*
G01*
X102271300Y-24721508D02*
G75*
G03*
X101640774Y-24091000I-630500J8D01*
G01*
X126133700Y-29472941D02*
G75*
G02*
X126762541Y-28844100I628800J41D01*
G01*
X115823400Y-27073757D02*
G75*
G03*
X115193831Y-26444200I-629600J-43D01*
G01*
X148083540Y-72012364D02*
G75*
G03*
X148714089Y-72642960I630560J-36D01*
G01*
X238200928Y-66280290D02*
G75*
G02*
X238200930Y-66280300I-28J-10D01*
G01*
X238200894Y-65154463D02*
G75*
G02*
X238869369Y-64485994I668506J-37D01*
G01*
X115428300Y-50447563D02*
G75*
G02*
X114799763Y-51076100I-628500J-37D01*
G01*
X313565995Y-44996200D02*
G75*
G02*
X313138405Y-45423795I-427595J0D01*
G01*
X110831506Y-56528600D02*
G75*
G02*
X111459800Y-57156896I-6J-628300D01*
G01*
X68040931Y-22428600D02*
G75*
G03*
X67412000Y-23057531I-31J-628900D01*
G01*
X76848300Y-46211657D02*
G75*
G02*
X76219666Y-46840200I-628600J57D01*
G01*
X128941175Y-54368250D02*
G75*
G02*
X129571355Y-53737975I630225J50D01*
G01*
X102900398Y-27617825D02*
G75*
G02*
X102271275Y-26988724I2J629125D01*
G01*
X260916900Y-58110000D02*
G75*
G02*
X260010300Y-57203400I0J906600D01*
G01*
X202651369Y-68784569D02*
G75*
G02*
X201676831Y-67810011I31J974569D01*
G01*
X201047641Y-56016469D02*
G75*
G02*
X201676831Y-56645727I-41J-629231D01*
G01*
X87980356Y-24091000D02*
G75*
G03*
X87351800Y-24719556I44J-628600D01*
G01*
X134383078Y-53737961D02*
G75*
G03*
X135012361Y-53108692I22J629261D01*
G01*
X76228000Y-23058375D02*
G75*
G03*
X75598223Y-22428600I-629800J-25D01*
G01*
X212771437Y-53029900D02*
G75*
G03*
X213400700Y-52400637I-37J629300D01*
G01*
D60*
X114683482Y-28855689D02*
X114683473Y-31083463D01*
X115142608Y-31542600D02*
X125976900Y-31542600D01*
X111850200Y-28341500D02*
X114223882Y-28341500D01*
X114683500Y-28801096D02*
G75*
G03*
X114223882Y-28341500I-459600J-4D01*
G01*
X115142608Y-31542627D02*
G75*
G02*
X114683473Y-31083463I-8J459127D01*
G01*
X101017100Y-26300824D02*
X101017100Y-28643765D01*
X92523400Y-25841300D02*
X100557576Y-25841300D01*
X101476635Y-29103300D02*
X106492000Y-29103300D01*
X101476635Y-29103300D02*
G75*
G02*
X101017100Y-28643765I-35J459500D01*
G01*
X101017100Y-26300824D02*
G75*
G03*
X100557576Y-25841300I-459500J24D01*
G01*
X75399735Y-26789500D02*
X87195000Y-26789500D01*
X72599300Y-24030200D02*
X74480688Y-24030200D01*
X74940193Y-24489707D02*
X74940187Y-26329951D01*
X74940200Y-24489707D02*
G75*
G03*
X74480688Y-24030200I-459500J7D01*
G01*
X75399735Y-26789513D02*
G75*
G02*
X74940187Y-26329951I-35J459513D01*
G01*
X63339116Y-25163800D02*
X67307300Y-25163800D01*
X52900300Y-22914000D02*
X62420632Y-22914000D01*
X62880121Y-23373494D02*
X62880107Y-24704786D01*
X63339116Y-25163793D02*
G75*
G02*
X62880107Y-24704786I-16J458993D01*
G01*
X62880100Y-23373494D02*
G75*
G03*
X62420632Y-22914000I-459500J-6D01*
G01*
X44317004Y-23772270D02*
X44316999Y-22944747D01*
X43857349Y-22485100D02*
X33150900Y-22485100D01*
X47651100Y-24231600D02*
X44776336Y-24231600D01*
X44317000Y-23772270D02*
G75*
G03*
X44776336Y-24231600I459300J-30D01*
G01*
X43857349Y-22485101D02*
G75*
G02*
X44316999Y-22944747I51J-459599D01*
G01*
X21090400Y-43603391D02*
X21090400Y-24445350D01*
X29366400Y-44062700D02*
X21549709Y-44062700D01*
X21550650Y-23985100D02*
X27950900Y-23985100D01*
X21550650Y-23985100D02*
G75*
G03*
X21090400Y-24445350I-50J-460200D01*
G01*
X21090400Y-43603391D02*
G75*
G03*
X21549709Y-44062700I459300J-9D01*
G01*
X34566400Y-42562700D02*
X37505846Y-42562700D01*
X38424974Y-44306800D02*
X52296200Y-44306800D01*
X37965381Y-43022236D02*
X37965380Y-43847206D01*
X37965300Y-43022236D02*
G75*
G03*
X37505846Y-42562700I-459500J36D01*
G01*
X38424974Y-44306820D02*
G75*
G02*
X37965380Y-43847206I26J459620D01*
G01*
X71660900Y-45238600D02*
X69144698Y-45238600D01*
X68227314Y-42989200D02*
X57545400Y-42989200D01*
X68685316Y-44779217D02*
X68685319Y-43447206D01*
X68227314Y-42989181D02*
G75*
G02*
X68685319Y-43447206I-14J-458019D01*
G01*
X68685300Y-44779217D02*
G75*
G03*
X69144698Y-45238600I459400J17D01*
G01*
X91005000Y-46868000D02*
X87357439Y-46868000D01*
X86898367Y-46408928D02*
X86898367Y-44565381D01*
X86437986Y-44105000D02*
X76952900Y-44105000D01*
X86898300Y-46408928D02*
G75*
G03*
X87357439Y-46868000I459100J28D01*
G01*
X86437986Y-44105033D02*
G75*
G02*
X86898367Y-44565381I14J-460367D01*
G01*
X106656529Y-45919800D02*
X96333400Y-45919800D01*
X107115200Y-48719311D02*
X107115200Y-46378471D01*
X110278900Y-49178800D02*
X107574689Y-49178800D01*
X107115200Y-48719311D02*
G75*
G03*
X107574689Y-49178800I459500J11D01*
G01*
X106656529Y-45919800D02*
G75*
G02*
X107115200Y-46378471I-29J-458700D01*
G01*
X121217517Y-51631900D02*
X129840800Y-51631900D01*
X120757700Y-48875709D02*
X120757700Y-51172083D01*
X115637077Y-48417049D02*
X120299040Y-48417049D01*
X120757651Y-48875709D02*
G75*
G03*
X120299040Y-48417049I-458651J9D01*
G01*
X121217517Y-51631900D02*
G75*
G02*
X120757700Y-51172083I-17J459800D01*
G01*
X149383816Y-53398706D02*
X146331547Y-53398706D01*
X145872785Y-52939944D02*
X145872785Y-51244152D01*
X145412436Y-50783803D02*
X135269273Y-50783803D01*
X135169197Y-50683683D02*
G75*
G03*
X135269273Y-50783803I100103J-17D01*
G01*
X145872694Y-52939944D02*
G75*
G03*
X146331547Y-53398706I458806J44D01*
G01*
X145412436Y-50783815D02*
G75*
G02*
X145872785Y-51244152I-36J-460385D01*
G01*
X135169184Y-50683683D02*
G75*
G03*
X135288986Y-50803516I119816J-17D01*
G01*
X163216800Y-73005700D02*
X163216800Y-69992874D01*
X154249800Y-58272076D02*
X154249800Y-56034983D01*
X156371400Y-55116008D02*
X156371400Y-52724413D01*
X162757326Y-69533400D02*
X153117759Y-69533400D01*
X152658200Y-69073841D02*
X152658200Y-62114538D01*
X154709283Y-55575500D02*
X155911908Y-55575500D01*
X155912087Y-52265100D02*
X154675800Y-52265100D01*
X154249792Y-58272076D02*
G75*
G02*
X153571009Y-59910819I-2317492J-24D01*
G01*
X155912087Y-52265100D02*
G75*
G02*
X156371400Y-52724413I13J-459300D01*
G01*
X156371400Y-55116008D02*
G75*
G02*
X155911908Y-55575500I-459500J8D01*
G01*
X153570997Y-59910807D02*
G75*
G03*
X152658200Y-62114538I2203703J-2203693D01*
G01*
X154709283Y-55575500D02*
G75*
G03*
X154249800Y-56034983I17J-459500D01*
G01*
X162757326Y-69533400D02*
G75*
G02*
X163216800Y-69992874I-26J-459500D01*
G01*
X152658200Y-69073841D02*
G75*
G03*
X153117759Y-69533400I459600J41D01*
G01*
X147195074Y-71510419D02*
X147195062Y-73680372D01*
X143713800Y-71050800D02*
X146735457Y-71050800D01*
X147653987Y-74139300D02*
X157924800Y-74139300D01*
X147653987Y-74139338D02*
G75*
G02*
X147195062Y-73680372I13J458938D01*
G01*
X147195100Y-71510419D02*
G75*
G03*
X146735457Y-71050800I-459600J19D01*
G01*
X124172377Y-69157749D02*
X130844568Y-69157749D01*
X138385447Y-71999017D02*
X131763820Y-71999017D01*
X131304614Y-69617713D02*
X131304614Y-71539811D01*
X131304598Y-69617713D02*
G75*
G03*
X130844615Y-69157702I-459998J13D01*
G01*
X131304583Y-71539811D02*
G75*
G03*
X131763820Y-71999017I459217J11D01*
G01*
X130844657Y-69157708D02*
G75*
G02*
X130844568Y-69157749I-57J8D01*
G01*
X104928000Y-66655800D02*
X108008823Y-66655800D01*
X108468219Y-67115196D02*
X108468219Y-69401152D01*
X118814200Y-69860700D02*
X118814200Y-69919500D01*
X108927767Y-69860700D02*
X118814200Y-69860700D01*
X108927767Y-69860781D02*
G75*
G02*
X108468219Y-69401152I33J459581D01*
G01*
X108468200Y-67115196D02*
G75*
G03*
X108008823Y-66655800I-459400J-4D01*
G01*
X93121100Y-64944404D02*
X93121100Y-67144283D01*
X85543600Y-64484900D02*
X92661596Y-64484900D01*
X93580817Y-67604000D02*
X99599600Y-67604000D01*
X93121100Y-64944404D02*
G75*
G03*
X92661596Y-64484900I-459500J4D01*
G01*
X93580817Y-67604000D02*
G75*
G02*
X93121100Y-67144283I-17J459700D01*
G01*
X78615140Y-65618500D02*
X80251600Y-65618500D01*
X68642400Y-63362600D02*
X68642400Y-63337900D01*
X66101300Y-63362600D02*
X68642400Y-63362600D01*
X78155600Y-63337900D02*
X78155600Y-65158960D01*
X78615140Y-65618500D02*
G75*
G02*
X78155600Y-65158960I-40J459500D01*
G01*
X60852100Y-64680200D02*
X57497318Y-64680200D01*
X57037866Y-64220749D02*
X57037865Y-63385279D01*
X56578386Y-62925800D02*
X38331700Y-62925800D01*
X57037800Y-64220749D02*
G75*
G03*
X57497318Y-64680200I459500J49D01*
G01*
X56578386Y-62925835D02*
G75*
G02*
X57037865Y-63385279I14J-459465D01*
G01*
X75259400Y-97129600D02*
X63282131Y-97129600D01*
X33446582Y-65493954D02*
X33131700Y-65179072D01*
X59314646Y-65493954D02*
X33446582Y-65493954D01*
X33131700Y-65179072D02*
X33131700Y-64425800D01*
X62822276Y-96669745D02*
X62822276Y-73272349D01*
X62363187Y-72813260D02*
X60233450Y-72813260D01*
X59773707Y-72353517D02*
X59773707Y-65953015D01*
X62822200Y-96669745D02*
G75*
G03*
X63282131Y-97129600I459900J45D01*
G01*
X59773740Y-72353517D02*
G75*
G03*
X60233450Y-72813260I459760J17D01*
G01*
X62363187Y-72813224D02*
G75*
G02*
X62822276Y-73272349I13J-459076D01*
G01*
X59314646Y-65493893D02*
G75*
G02*
X59773707Y-65953015I-46J-459107D01*
G01*
X102290240Y-94846299D02*
X104109492Y-94846299D01*
X84649608Y-94859025D02*
X80472812Y-94859025D01*
X84650297Y-94858336D02*
X84649608Y-94859025D01*
X80274156Y-95094235D02*
G75*
G02*
X80472812Y-94859025I240544J-1665D01*
G01*
X104374899Y-94580940D02*
G75*
G02*
X104109492Y-94846299I-265399J40D01*
G01*
X122291664Y-92721900D02*
X109457500Y-92721900D01*
X134061700Y-93202300D02*
X123451410Y-93202300D01*
X122881427Y-92966184D02*
G75*
G03*
X123451410Y-93202300I569973J569884D01*
G01*
X122291664Y-92721942D02*
G75*
G02*
X122881424Y-92966187I36J-834058D01*
G01*
X149700400Y-92162021D02*
X149700400Y-92733723D01*
X139261700Y-91702300D02*
X149240679Y-91702300D01*
X150159877Y-93193200D02*
X203436800Y-93193200D01*
X150159877Y-93193200D02*
G75*
G02*
X149700400Y-92733723I23J459500D01*
G01*
X149700400Y-92162021D02*
G75*
G03*
X149240679Y-91702300I-459700J21D01*
G01*
X218824100Y-93758868D02*
X218824100Y-92152510D01*
X233137800Y-94218000D02*
X219283232Y-94218000D01*
X218364790Y-91693200D02*
X208636800Y-91693200D01*
X218364790Y-91693200D02*
G75*
G02*
X218824100Y-92152510I10J-459300D01*
G01*
X218824100Y-93758868D02*
G75*
G03*
X219283232Y-94218000I459100J-32D01*
G01*
X248938594Y-84609800D02*
X238889006Y-84609800D01*
X249398300Y-96128320D02*
X249398300Y-85069506D01*
X238429800Y-85069006D02*
X238429800Y-93084400D01*
X262261100Y-96588100D02*
X249858080Y-96588100D01*
X248938594Y-84609800D02*
G75*
G02*
X249398300Y-85069506I6J-459700D01*
G01*
X238429800Y-85069006D02*
G75*
G02*
X238889006Y-84609800I459200J6D01*
G01*
X249398300Y-96128320D02*
G75*
G03*
X249858080Y-96588100I459800J20D01*
G01*
X267589500Y-77342598D02*
X267589500Y-95639900D01*
X309684300Y-62068293D02*
X309684300Y-62919800D01*
X269547473Y-76882400D02*
X269546039Y-76883834D01*
X302780500Y-61609900D02*
X309225907Y-61609900D01*
X269546039Y-76883834D02*
X267989301Y-76883834D01*
X267589505Y-77342598D02*
G75*
G02*
X267989301Y-76883834I465295J-1902D01*
G01*
X309684300Y-62068293D02*
G75*
G03*
X309225907Y-61609900I-458400J-7D01*
G01*
X282787300Y-63177100D02*
X285880591Y-63177100D01*
X286799542Y-64419800D02*
X304484300Y-64419800D01*
X286339540Y-63636046D02*
X286339542Y-63959804D01*
X286339500Y-63636046D02*
G75*
G03*
X285880591Y-63177100I-458900J46D01*
G01*
X286799542Y-64419758D02*
G75*
G02*
X286339542Y-63959804I-42J459958D01*
G01*
X267711083Y-64857700D02*
X277642900Y-64857700D01*
X263053700Y-64123300D02*
X266287139Y-64123300D01*
X267118888Y-64612393D02*
X266872139Y-64365626D01*
X267711083Y-64857700D02*
G75*
G02*
X267118889Y-64612392I17J837500D01*
G01*
X266872122Y-64365643D02*
G75*
G03*
X266287139Y-64123300I-585022J-584957D01*
G01*
X257971100Y-65736700D02*
X257971100Y-65982300D01*
X243372500Y-65736700D02*
X257971100Y-65736700D01*
X223751600Y-68060800D02*
X238357700Y-68060800D01*
X238357700Y-68060800D02*
X238357700Y-67772100D01*
X204602300Y-70270000D02*
X204602300Y-70512300D01*
X218811000Y-70270000D02*
X204602300Y-70270000D01*
X195970712Y-72547700D02*
X199587500Y-72547700D01*
X189041787Y-72529984D02*
X185598121Y-72529984D01*
X189059503Y-72547700D02*
X189041787Y-72529984D01*
X185380404Y-72271960D02*
G75*
G03*
X185598121Y-72529984I264196J2060D01*
G01*
X191172224Y-75244900D02*
X180757215Y-75244900D01*
X188936500Y-53392600D02*
X188936500Y-60400611D01*
X180297800Y-74785485D02*
X180297800Y-74131000D01*
X191631341Y-61318038D02*
X191631341Y-74785783D01*
X189395159Y-60859270D02*
X191172573Y-60859270D01*
X191172224Y-75244941D02*
G75*
G03*
X191631341Y-74785783I-24J459141D01*
G01*
X191631330Y-61318038D02*
G75*
G03*
X191172573Y-60859270I-458730J38D01*
G01*
X180297800Y-74785485D02*
G75*
G03*
X180757215Y-75244900I459400J-15D01*
G01*
X189395159Y-60859300D02*
G75*
G02*
X188936500Y-60400611I41J458700D01*
G01*
X194019100Y-51533600D02*
X208229100Y-51533600D01*
X208229100Y-51533600D02*
X208229100Y-51805400D01*
X217560276Y-43654501D02*
X217560276Y-49096527D01*
X219001340Y-43194633D02*
X218020168Y-43194617D01*
X227452100Y-49539600D02*
X219920317Y-49539600D01*
X217100712Y-49556091D02*
X213457805Y-49556091D01*
X219460763Y-49080046D02*
X219460763Y-43654064D01*
X219460700Y-49080046D02*
G75*
G03*
X219920317Y-49539600I459600J46D01*
G01*
X217100712Y-49556076D02*
G75*
G03*
X217560276Y-49096527I-12J459576D01*
G01*
X217560317Y-43654501D02*
G75*
G02*
X218020168Y-43194617I459883J1D01*
G01*
X213243891Y-49770035D02*
G75*
G02*
X213457805Y-49556091I213909J35D01*
G01*
X219001340Y-43194637D02*
G75*
G02*
X219460763Y-43654064I-40J-459463D01*
G01*
X244676750Y-47054200D02*
X246993900Y-47054200D01*
X244217663Y-44562581D02*
X244217663Y-46595113D01*
X232392700Y-47330400D02*
X238042241Y-47330400D01*
X238501600Y-46871041D02*
X238501600Y-44566317D01*
X244676750Y-47054137D02*
G75*
G02*
X244217663Y-46595113I-50J459037D01*
G01*
X238501600Y-46871041D02*
G75*
G02*
X238042241Y-47330400I-459400J41D01*
G01*
X266617900Y-45247500D02*
X252008700Y-45247500D01*
X252008700Y-45247500D02*
X252008700Y-45018800D01*
X275797487Y-43884427D02*
X275545570Y-43632513D01*
X271700500Y-43388500D02*
X274956465Y-43388500D01*
X276379492Y-44125500D02*
X286289000Y-44125500D01*
X275545582Y-43632501D02*
G75*
G03*
X274956465Y-43388500I-589082J-589099D01*
G01*
X276379492Y-44125500D02*
G75*
G02*
X275797487Y-43884427I8J823100D01*
G01*
X291433400Y-42444900D02*
X294812711Y-42444900D01*
X295273224Y-42905413D02*
X295273224Y-43236862D01*
X295732362Y-43696000D02*
X308366000Y-43696000D01*
X295732362Y-43696076D02*
G75*
G02*
X295273224Y-43236862I38J459176D01*
G01*
X295273200Y-42905413D02*
G75*
G03*
X294812711Y-42444900I-460500J13D01*
G01*
X309752088Y-31432225D02*
X313106482Y-31432225D01*
X314556400Y-22115900D02*
X316366083Y-22115900D01*
X309292428Y-26633860D02*
X309292428Y-30972565D01*
X313566000Y-31891743D02*
X313566000Y-42196000D01*
X316825685Y-22575502D02*
X316825685Y-25715707D01*
X316366393Y-26174999D02*
X309751289Y-26174999D01*
X316825700Y-22575502D02*
G75*
G03*
X316366083Y-22115900I-459600J2D01*
G01*
X313565975Y-31891743D02*
G75*
G03*
X313106482Y-31432225I-459475J43D01*
G01*
X316366393Y-26174985D02*
G75*
G03*
X316825685Y-25715707I7J459285D01*
G01*
X309292399Y-26633860D02*
G75*
G02*
X309751289Y-26174999I458901J-40D01*
G01*
X309752088Y-31432272D02*
G75*
G02*
X309292428Y-30972565I12J459672D01*
G01*
X304117500Y-22830600D02*
X304117500Y-23157258D01*
X304576142Y-23615900D02*
X309356400Y-23615900D01*
X294735900Y-22371400D02*
X303658300Y-22371400D01*
X304117500Y-22830600D02*
G75*
G03*
X303658300Y-22371400I-459200J0D01*
G01*
X304576142Y-23615900D02*
G75*
G02*
X304117500Y-23157258I-42J458600D01*
G01*
X282118451Y-23806915D02*
X281868115Y-23556586D01*
X282710150Y-24052000D02*
X289591500Y-24052000D01*
X275006500Y-23312600D02*
X281279071Y-23312600D01*
X282710150Y-24051964D02*
G75*
G02*
X282118452Y-23806914I-50J836764D01*
G01*
X281868120Y-23556581D02*
G75*
G03*
X281279071Y-23312600I-589020J-589019D01*
G01*
X255322100Y-24934700D02*
X269923900Y-24934700D01*
X269923900Y-24934700D02*
X269923900Y-25171600D01*
X250307300Y-26970100D02*
X235703900Y-26970100D01*
X235703900Y-26970100D02*
X235703900Y-27251800D01*
X216556700Y-29684300D02*
X230763300Y-29684300D01*
X230763300Y-29684300D02*
X230763300Y-29461000D01*
X211541900Y-31453000D02*
X197319400Y-31453000D01*
X211541900Y-31719700D02*
X211541900Y-31453000D01*
X44330400Y-69368553D02*
X44330400Y-71940000D01*
X192153114Y-67416966D02*
X192153114Y-79187926D01*
X184611705Y-48981625D02*
X184611705Y-31860282D01*
X196379000Y-49440900D02*
X185070980Y-49440900D01*
X198562927Y-66957200D02*
X192612880Y-66957200D01*
X44330400Y-51203074D02*
X44328474Y-51205000D01*
X196379000Y-49440900D02*
X201873342Y-49440900D01*
X33218800Y-93012500D02*
X33218800Y-76764929D01*
X37999531Y-36704971D02*
X44330400Y-36704971D01*
X33678529Y-76305200D02*
X43341748Y-76305200D01*
X44330400Y-36704971D02*
X44246978Y-36621549D01*
X199023000Y-54474289D02*
X199023000Y-66497127D01*
X184152123Y-31400700D02*
X179013600Y-31400700D01*
X44328474Y-51205000D02*
X38956300Y-51205000D01*
X196379000Y-54015100D02*
X198563811Y-54015100D01*
X202333100Y-48981142D02*
X202333100Y-40142400D01*
X43801300Y-75845648D02*
X43801300Y-71940000D01*
X42718800Y-71940000D02*
X43801300Y-71940000D01*
X44330400Y-71940000D02*
X43801300Y-71940000D01*
X37540000Y-36245440D02*
X37540000Y-31130000D01*
X184152123Y-31400695D02*
G75*
G02*
X184611705Y-31860282I-23J-459605D01*
G01*
X198562927Y-66957200D02*
G75*
G03*
X199023000Y-66497127I-27J460100D01*
G01*
X43801300Y-75845648D02*
G75*
G02*
X43341748Y-76305200I-459600J48D01*
G01*
X33678529Y-76305200D02*
G75*
G03*
X33218800Y-76764929I-29J-459700D01*
G01*
X37999531Y-36704900D02*
G75*
G02*
X37540000Y-36245440I-31J459500D01*
G01*
X192153100Y-67416966D02*
G75*
G02*
X192612880Y-66957200I459800J-34D01*
G01*
X190380620Y-80960414D02*
G75*
G03*
X192153114Y-79187926I-20J1772514D01*
G01*
X202333100Y-48981142D02*
G75*
G02*
X201873342Y-49440900I-459800J42D01*
G01*
X199023000Y-54474289D02*
G75*
G03*
X198563811Y-54015100I-459200J-11D01*
G01*
X184611700Y-48981625D02*
G75*
G03*
X185070980Y-49440900I459300J25D01*
G01*
X161927689Y-50929961D02*
X163051325Y-52053597D01*
X163294700Y-54570678D02*
X163293402Y-54571976D01*
X163793600Y-41560700D02*
X162142015Y-41560700D01*
X163294700Y-52641156D02*
X163294700Y-54570678D01*
X161682900Y-42019815D02*
X161682900Y-50338988D01*
X163294740Y-52641156D02*
G75*
G03*
X163051324Y-52053598I-830940J-44D01*
G01*
X161682900Y-42019815D02*
G75*
G02*
X162142015Y-41560700I459100J15D01*
G01*
X161927675Y-50929975D02*
G75*
G02*
X161682900Y-50338988I591025J590975D01*
G01*
X163118500Y-45308764D02*
X163333466Y-45308764D01*
X163793600Y-44848630D02*
X163793600Y-44100700D01*
X164412000Y-56882000D02*
X164412000Y-52747598D01*
X162658500Y-50302862D02*
X162658500Y-45768764D01*
X164168408Y-52159514D02*
X162903685Y-50894791D01*
X162658523Y-50302862D02*
G75*
G03*
X162903685Y-50894791I837077J-38D01*
G01*
X163118500Y-45308800D02*
G75*
G03*
X162658500Y-45768764I0J-460000D01*
G01*
X164168412Y-52159510D02*
G75*
G02*
X164412000Y-52747598I-588112J-588090D01*
G01*
X163793664Y-44848630D02*
G75*
G02*
X163333466Y-45308764I-460164J30D01*
G01*
X56972300Y-31712700D02*
X56972300Y-38930000D01*
X218546700Y-44177421D02*
X218546700Y-60268498D01*
X212554240Y-60728091D02*
X212552400Y-60726251D01*
X221856900Y-41502300D02*
X221856900Y-38194200D01*
X70171800Y-59777707D02*
X70171800Y-72522700D01*
X62084134Y-59318100D02*
X69712193Y-59318100D01*
X61624500Y-49176570D02*
X61624500Y-58858466D01*
X211380900Y-75453400D02*
X211380900Y-79012200D01*
X211380900Y-79012200D02*
X209904400Y-79012200D01*
X218087107Y-60728091D02*
X212554240Y-60728091D01*
X62084134Y-59318100D02*
G75*
G02*
X61624500Y-58858466I-34J459600D01*
G01*
X218087107Y-60728100D02*
G75*
G03*
X218546700Y-60268498I-7J459600D01*
G01*
X70171800Y-59777707D02*
G75*
G03*
X69712193Y-59318100I-459600J7D01*
G01*
X83306977Y-75867626D02*
X85064581Y-75867626D01*
X81224300Y-50148500D02*
X81224300Y-53047000D01*
X86094948Y-75867626D02*
X86035938Y-75867621D01*
X86094948Y-75867626D02*
X85064581Y-75867626D01*
X82847200Y-73696728D02*
X82847200Y-75407849D01*
X80266057Y-56610500D02*
X73098387Y-56610500D01*
X85578500Y-103604200D02*
X85578500Y-76384074D01*
X240417100Y-35565700D02*
X240417100Y-43606767D01*
X237331000Y-55644700D02*
X237331000Y-64722800D01*
X241209700Y-86252500D02*
X242177829Y-86252500D01*
X242636571Y-86711242D02*
X242636571Y-95461911D01*
X213021200Y-96381540D02*
X213021200Y-100710000D01*
X85578500Y-76384074D02*
X85578500Y-76381545D01*
X239957384Y-55644700D02*
X237331000Y-55644700D01*
X242176782Y-95921700D02*
X213481040Y-95921700D01*
X85064581Y-75867626D02*
X85108639Y-75867624D01*
X72638870Y-57070017D02*
X72638870Y-69710185D01*
X241300500Y-35565700D02*
X240417100Y-35565700D01*
X74589300Y-70628562D02*
X74589300Y-72778337D01*
X73098126Y-70169441D02*
X74130179Y-70169441D01*
X81224300Y-53047000D02*
X80725700Y-53047000D01*
X76372600Y-32969000D02*
X76372600Y-41037599D01*
X230661428Y-73712481D02*
X229808109Y-73712481D01*
X89282500Y-73782000D02*
X89282500Y-75407812D01*
X85578500Y-76384074D02*
X85578503Y-76324991D01*
X75048787Y-73237824D02*
X82388296Y-73237824D01*
X88822686Y-75867626D02*
X86094948Y-75867626D01*
X230661435Y-73712488D02*
X230661428Y-73712481D01*
X85578500Y-76381545D02*
X85578504Y-76337512D01*
X80725700Y-53047000D02*
X80725700Y-56150857D01*
X81224300Y-41495500D02*
X76830501Y-41495500D01*
X240417100Y-43606767D02*
X240417100Y-55184984D01*
X229348060Y-74172523D02*
X229348043Y-76380680D01*
X242176782Y-95921671D02*
G75*
G03*
X242636571Y-95461911I18J459771D01*
G01*
X85108639Y-75867696D02*
G75*
G02*
X85578504Y-76337512I61J-469804D01*
G01*
X76830501Y-41495500D02*
G75*
G02*
X76372600Y-41037599I-1J457900D01*
G01*
X229348081Y-74172523D02*
G75*
G02*
X229808109Y-73712481I460019J23D01*
G01*
X88822686Y-75867600D02*
G75*
G03*
X89282500Y-75407812I14J459800D01*
G01*
X73098126Y-70169430D02*
G75*
G02*
X72638870Y-69710185I-26J459230D01*
G01*
X242636500Y-86711242D02*
G75*
G03*
X242177829Y-86252500I-458700J42D01*
G01*
X213021200Y-96381540D02*
G75*
G02*
X213481040Y-95921700I459800J40D01*
G01*
X75048787Y-73237800D02*
G75*
G02*
X74589300Y-72778337I13J459500D01*
G01*
X239957384Y-55644700D02*
G75*
G03*
X240417100Y-55184984I16J459700D01*
G01*
X72638900Y-57070017D02*
G75*
G02*
X73098387Y-56610500I459500J17D01*
G01*
X74589359Y-70628562D02*
G75*
G03*
X74130179Y-70169441I-459159J-38D01*
G01*
X80266057Y-56610500D02*
G75*
G03*
X80725700Y-56150857I43J459600D01*
G01*
X82847176Y-73696728D02*
G75*
G03*
X82388296Y-73237824I-458876J28D01*
G01*
X86035938Y-75867603D02*
G75*
G03*
X85578503Y-76324991I-38J-457397D01*
G01*
X83306977Y-75867600D02*
G75*
G02*
X82847200Y-75407849I23J459800D01*
G01*
X242643800Y-45513400D02*
X242643800Y-48955710D01*
X109874200Y-75717600D02*
X109874200Y-73123405D01*
X107927568Y-81063900D02*
X101921457Y-81063900D01*
X162419800Y-43979000D02*
X162419800Y-43283424D01*
X246713600Y-49874540D02*
X246713600Y-53923826D01*
X260624900Y-41084666D02*
X260624900Y-33439200D01*
X248672400Y-74254200D02*
X248672400Y-73992469D01*
X256460900Y-53520200D02*
X257314800Y-53520200D01*
X108387384Y-75717580D02*
X108387384Y-80604099D01*
X114459900Y-97004228D02*
X114459900Y-101405400D01*
X101921227Y-96544600D02*
X114000272Y-96544600D01*
X256460900Y-62356880D02*
X256460900Y-53520200D01*
X171403600Y-42364036D02*
X171403600Y-39480538D01*
X101461900Y-81523457D02*
X101461900Y-96085273D01*
X171863438Y-39020700D02*
X179013600Y-39020700D01*
X101378348Y-54983600D02*
X99789500Y-54983600D01*
X242643800Y-45513400D02*
X242643800Y-42003982D01*
X250435107Y-62816573D02*
X250435107Y-54843354D01*
X250435107Y-62816573D02*
X256001207Y-62816573D01*
X100966008Y-57854425D02*
X100966008Y-56160104D01*
X242173000Y-102382000D02*
X246139099Y-102382000D01*
X248672437Y-71225915D02*
X248672437Y-74254167D01*
X162879692Y-42823532D02*
X170944104Y-42823532D01*
X243103290Y-49415200D02*
X246254260Y-49415200D01*
X109874200Y-73123405D02*
X109874200Y-74230736D01*
X250435107Y-70766731D02*
X249131628Y-70766726D01*
X246599000Y-101922099D02*
X246599000Y-85335000D01*
X96301400Y-43295300D02*
X96301400Y-35227596D01*
X243103382Y-41544400D02*
X260165166Y-41544400D01*
X247173582Y-54383808D02*
X249975561Y-54383808D01*
X249975561Y-54383893D02*
G75*
G02*
X250435107Y-54843354I39J-459507D01*
G01*
X246713600Y-49874540D02*
G75*
G03*
X246254260Y-49415200I-459300J40D01*
G01*
X247173582Y-54383800D02*
G75*
G02*
X246713600Y-53923826I18J460000D01*
G01*
X162879692Y-42823500D02*
G75*
G03*
X162419800Y-43283424I8J-459900D01*
G01*
X243103382Y-41544400D02*
G75*
G03*
X242643800Y-42003982I18J-459600D01*
G01*
X95976370Y-34902600D02*
G75*
G02*
X96301400Y-35227596I30J-325000D01*
G01*
X171863438Y-39020700D02*
G75*
G03*
X171403600Y-39480538I-38J-459800D01*
G01*
X114459900Y-97004228D02*
G75*
G03*
X114000272Y-96544600I-459600J28D01*
G01*
X101921227Y-96544600D02*
G75*
G02*
X101461900Y-96085273I-27J459300D01*
G01*
X108387370Y-75717500D02*
G75*
G03*
X109874200Y-74230736I30J1486800D01*
G01*
X101461900Y-81523457D02*
G75*
G02*
X101921457Y-81063900I459600J-43D01*
G01*
X246599000Y-101922099D02*
G75*
G02*
X246139099Y-102382000I-459900J-1D01*
G01*
X99789470Y-54983592D02*
G75*
G02*
X100966008Y-56160104I30J-1176508D01*
G01*
X256460873Y-62356880D02*
G75*
G02*
X256001207Y-62816573I-459673J-20D01*
G01*
X171403632Y-42364036D02*
G75*
G02*
X170944104Y-42823532I-459532J36D01*
G01*
X260624900Y-41084666D02*
G75*
G02*
X260165166Y-41544400I-459700J-34D01*
G01*
X248672426Y-71225915D02*
G75*
G02*
X249131628Y-70766726I459174J15D01*
G01*
X243103290Y-49415200D02*
G75*
G02*
X242643800Y-48955710I10J459500D01*
G01*
X108387372Y-75717565D02*
G75*
G03*
X108387370Y-75717566I28J-35D01*
G01*
X107927568Y-81063884D02*
G75*
G03*
X108387384Y-80604099I32J459784D01*
G01*
X277404415Y-46957182D02*
X277404415Y-51367925D01*
X270567971Y-72805400D02*
X268059500Y-72805400D01*
X268059520Y-70241478D02*
X268059520Y-72805420D01*
X276701900Y-56530082D02*
X276701900Y-52070400D01*
X118779400Y-60040400D02*
X118779400Y-49696130D01*
X274250893Y-56989049D02*
X276242926Y-56989055D01*
X271027300Y-105067600D02*
X271027300Y-73264729D01*
X127882400Y-82490000D02*
X127882400Y-78900593D01*
X271011800Y-105067600D02*
X271027300Y-105067600D01*
X114982000Y-45246155D02*
X114982000Y-37514100D01*
X276701900Y-52070400D02*
X276815000Y-52070400D01*
X175405400Y-45525600D02*
X175405400Y-42020307D01*
X268459128Y-69782930D02*
X269315123Y-69782930D01*
X175865007Y-41560700D02*
X179013600Y-41560700D01*
X118779400Y-45704203D02*
X115440048Y-45704203D01*
X143645800Y-94219600D02*
X143645800Y-100710000D01*
X280012000Y-41982700D02*
X280012000Y-31992400D01*
X268059589Y-70241478D02*
G75*
G02*
X268459128Y-69782930I465111J-1922D01*
G01*
X114981997Y-45246155D02*
G75*
G03*
X115440048Y-45704203I458003J-45D01*
G01*
X269316530Y-69781491D02*
G75*
G02*
X269315123Y-69782930I-1430J-9D01*
G01*
X127310910Y-78329100D02*
G75*
G02*
X127882400Y-78900593I-10J-571500D01*
G01*
X175865007Y-41560700D02*
G75*
G03*
X175405400Y-42020307I-7J-459600D01*
G01*
X276701855Y-56530082D02*
G75*
G02*
X276242926Y-56989055I-458955J-18D01*
G01*
X276701920Y-52070415D02*
G75*
G03*
X277404415Y-51367925I-20J702515D01*
G01*
X270567971Y-72805400D02*
G75*
G02*
X271027300Y-73264729I29J-459300D01*
G01*
X287302600Y-68096946D02*
X287485400Y-68279746D01*
X138639979Y-52668418D02*
X138639979Y-59719957D01*
X138622370Y-62092249D02*
X138622370Y-59737566D01*
X287302600Y-68096946D02*
X287302600Y-71851356D01*
X139662500Y-62549300D02*
X139079421Y-62549300D01*
X148571008Y-43729284D02*
X148571008Y-46526288D01*
X299437500Y-34970000D02*
X299437500Y-31224100D01*
X147719000Y-80475600D02*
X147719000Y-75573200D01*
X136099668Y-42773144D02*
X135228310Y-42773123D01*
X296127900Y-47136700D02*
X296127900Y-51299100D01*
X147129900Y-80475600D02*
X147719000Y-80475600D01*
X134768300Y-42313102D02*
X134768300Y-39657600D01*
X138622370Y-59737579D02*
G75*
G03*
X138639979Y-59719957I30J17579D01*
G01*
X148571000Y-43729284D02*
G75*
G02*
X148589792Y-43710500I18800J-16D01*
G01*
X134768277Y-42313102D02*
G75*
G03*
X135228310Y-42773123I460023J2D01*
G01*
X138622300Y-62092249D02*
G75*
G03*
X139079421Y-62549300I457100J49D01*
G01*
X287485376Y-72034200D02*
G75*
G02*
X287302600Y-71851356I24J182800D01*
G01*
X317950000Y-51205000D02*
X317950000Y-71480473D01*
X178926100Y-61579900D02*
X178926100Y-52499364D01*
X317490473Y-71940000D02*
X314070000Y-71940000D01*
X173950000Y-47100185D02*
X173950000Y-52039900D01*
X158444500Y-66605326D02*
X158444500Y-54185100D01*
X174409485Y-46640700D02*
X179013600Y-46640700D01*
X305140677Y-77685193D02*
X313610721Y-77685193D01*
X178810000Y-61579900D02*
X178926100Y-61579900D01*
X314070000Y-71940000D02*
X314070000Y-77225914D01*
X158444500Y-53197823D02*
X158444500Y-54185100D01*
X317950000Y-31130000D02*
X318943800Y-31130000D01*
X166986200Y-81937000D02*
X166986200Y-67524219D01*
X166526881Y-67064900D02*
X158904074Y-67064900D01*
X304681300Y-93012500D02*
X304681300Y-78144570D01*
X178466636Y-52039900D02*
X173950000Y-52039900D01*
X154710500Y-41119000D02*
X157984935Y-41119000D01*
X158444500Y-41578565D02*
X158444500Y-53197823D01*
X317950000Y-51205000D02*
X317950000Y-31130000D01*
X305140677Y-77685200D02*
G75*
G03*
X304681300Y-78144570I23J-459400D01*
G01*
X173950000Y-47100185D02*
G75*
G02*
X174409485Y-46640700I459500J-15D01*
G01*
X166526881Y-67064900D02*
G75*
G02*
X166986200Y-67524219I19J-459300D01*
G01*
X314069993Y-77225914D02*
G75*
G02*
X313610721Y-77685193I-459293J14D01*
G01*
X158444500Y-66605326D02*
G75*
G03*
X158904074Y-67064900I459600J26D01*
G01*
X158444500Y-41578565D02*
G75*
G03*
X157984935Y-41119000I-459600J-35D01*
G01*
X317490473Y-71940000D02*
G75*
G03*
X317950000Y-71480473I27J459500D01*
G01*
X178466636Y-52039900D02*
G75*
G02*
X178926100Y-52499364I-36J-459500D01*
G01*
X179950976Y-49180700D02*
X179013600Y-49180700D01*
X173950000Y-66539900D02*
X179950593Y-66539900D01*
X180410200Y-66080293D02*
X180410200Y-49639924D01*
X179950976Y-49180700D02*
G75*
G02*
X180410200Y-49639924I24J-459200D01*
G01*
X180410200Y-66080293D02*
G75*
G02*
X179950593Y-66539900I-459600J-7D01*
G01*
X165555796Y-32127119D02*
X165555796Y-24239942D01*
X168950000Y-66539900D02*
X161563717Y-66539900D01*
X165096554Y-23780700D02*
X163793600Y-23780700D01*
X160325600Y-52700196D02*
X160325600Y-33045724D01*
X161104194Y-66080377D02*
X161104194Y-54161971D01*
X160863823Y-53581664D02*
X160568311Y-53286152D01*
X160784813Y-32586511D02*
X165096404Y-32586511D01*
X161104200Y-66080377D02*
G75*
G03*
X161563717Y-66539900I459500J-23D01*
G01*
X165096554Y-23780704D02*
G75*
G02*
X165555796Y-24239942I46J-459196D01*
G01*
X160863812Y-53581675D02*
G75*
G02*
X161104194Y-54161971I-580312J-580325D01*
G01*
X160325613Y-52700196D02*
G75*
G03*
X160568311Y-53286152I828687J-4D01*
G01*
X160784813Y-32586500D02*
G75*
G03*
X160325600Y-33045724I-13J-459200D01*
G01*
X165555811Y-32127119D02*
G75*
G02*
X165096404Y-32586511I-459411J19D01*
G01*
X170313300Y-47100487D02*
X170313300Y-55875100D01*
X163793600Y-46640700D02*
X169853513Y-46640700D01*
X170313300Y-47100487D02*
G75*
G03*
X169853513Y-46640700I-459800J-13D01*
G01*
M02*
