M48
; DRILL file {KiCad (6.0.11-0)} date 
; FORMAT={-:-/ absolute / metric / decimal}
; #@! TF.CreationDate,2023-08-21T21:02:41+09:00
; #@! TF.GenerationSoftware,Kicad,Pcbnew,(6.0.11-0)
; #@! TF.FileFunction,Plated,1,2,PTH
FMAT,2
METRIC
; #@! TA.AperFunction,Plated,PTH,ViaDrill
T1C0.400
; #@! TA.AperFunction,Plated,PTH,ComponentDrill
T2C0.700
; #@! TA.AperFunction,Plated,PTH,ComponentDrill
T3C0.800
; #@! TA.AperFunction,Plated,PTH,ComponentDrill
T4C0.813
; #@! TA.AperFunction,Plated,PTH,ComponentDrill
T5C1.000
; #@! TA.AperFunction,Plated,PTH,ComponentDrill
T6C1.300
; #@! TA.AperFunction,Plated,PTH,ComponentDrill
T7C2.000
; #@! TA.AperFunction,Plated,PTH,ComponentDrill
T8C2.700
%
G90
G05
T1
X42.319Y-64.426
X44.33Y-36.705
X44.33Y-51.203
X44.33Y-69.369
X44.582Y-26.945
X50.176Y-66.27
X56.972Y-38.93
X60.526Y-67.148
X61.624Y-49.177
X63.739Y-27.432
X68.642Y-63.338
X73.883Y-66.27
X78.156Y-63.338
X81.224Y-41.495
X81.224Y-50.148
X84.361Y-96.347
X84.65Y-94.858
X85.439Y-67.148
X96.301Y-43.295
X100.966Y-57.854
X102.29Y-94.846
X103.038Y-30.887
X105.675Y-51.393
X106.857Y-69.714
X109.874Y-73.123
X111.46Y-64.228
X114.145Y-71.755
X114.562Y-94.378
X117.715Y-33.166
X118.779Y-45.704
X118.779Y-49.696
X118.779Y-60.04
X126.18Y-53.491
X127.882Y-82.49
X135.05Y-73.491
X136.1Y-42.773
X138.64Y-52.668
X139.662Y-62.549
X143.646Y-94.22
X145.104Y-53.566
X145.748Y-28.825
X147.719Y-75.573
X148.571Y-46.526
X148.59Y-43.71
X149.019Y-76.298
X154.846Y-96.336
X158.029Y-71.176
X158.445Y-53.198
X162.42Y-43.979
X163.293Y-54.572
X163.974Y-62.278
X164.412Y-56.882
X166.189Y-69.678
X170.313Y-55.875
X175.405Y-45.526
X176.772Y-72.631
X183.068Y-53.707
X186.419Y-32.479
X189.06Y-72.548
X190.633Y-73.701
X193.957Y-74.551
X195.971Y-72.548
X196.379Y-49.441
X196.379Y-54.015
X199.204Y-73.701
X203.437Y-89.71
X204.051Y-35.054
X204.459Y-56.367
X207.137Y-32.949
X208.637Y-95.169
X211.381Y-75.453
X212.552Y-60.726
X218.547Y-44.177
X221.857Y-41.502
X222.722Y-31.769
X223.639Y-53.501
X230.661Y-73.712
X237.331Y-64.723
X238.502Y-44.566
X240.417Y-43.607
X241.21Y-86.252
X241.407Y-30.785
X241.625Y-94.583
X242.644Y-45.513
X243.592Y-50.577
X244.218Y-44.563
X246.599Y-85.335
X250.435Y-62.817
X250.435Y-70.767
X258.822Y-49.032
X260.773Y-98.338
X262.14Y-28.882
X269.317Y-69.781
X269.547Y-76.882
X274.251Y-56.989
X277.404Y-46.957
X280.012Y-41.983
X287.303Y-68.097
X296.128Y-47.137
X299.438Y-34.97
X302.78Y-61.61
T4
X163.794Y-18.701
X163.794Y-21.241
X163.794Y-23.781
X163.794Y-26.321
X163.794Y-28.861
X163.794Y-31.401
X163.794Y-33.941
X163.794Y-36.481
X163.794Y-39.021
X163.794Y-41.561
X163.794Y-44.101
X163.794Y-46.641
X163.794Y-49.181
X179.014Y-18.701
X179.014Y-21.241
X179.014Y-23.781
X179.014Y-26.321
X179.014Y-28.861
X179.014Y-31.401
X179.014Y-33.941
X179.014Y-36.481
X179.014Y-39.021
X179.014Y-41.561
X179.014Y-44.101
X179.014Y-46.641
X179.014Y-49.181
T5
X33.219Y-93.013
X33.219Y-107.512
X35.719Y-107.512
X38.219Y-93.013
X38.219Y-107.512
X304.681Y-93.013
X304.681Y-107.512
X307.181Y-107.512
X309.681Y-93.013
X309.681Y-107.512
T6
X143.976Y-21.2
X150.476Y-21.2
T8
X165.9Y-59.04
X177.0Y-59.04
T2
G00X169.1Y-52.04
M15
G01X168.8Y-52.04
M16
G05
G00X169.1Y-66.54
M15
G01X168.8Y-66.54
M16
G05
G00X171.6Y-66.54
M15
G01X171.3Y-66.54
M16
G05
G00X174.1Y-52.04
M15
G01X173.8Y-52.04
M16
G05
G00X174.1Y-66.54
M15
G01X173.8Y-66.54
M16
G05
T3
G00X192.029Y-20.64
M15
G01X192.029Y-20.64
M16
G05
G00X194.529Y-20.64
M15
G01X194.529Y-20.64
M16
G05
G00X197.029Y-20.64
M15
G01X197.029Y-20.64
M16
G05
T7
G00X30.119Y-100.412
M15
G01X30.119Y-99.612
M16
G05
G00X41.319Y-100.412
M15
G01X41.319Y-99.612
M16
G05
G00X301.581Y-100.412
M15
G01X301.581Y-99.612
M16
G05
G00X312.781Y-100.412
M15
G01X312.781Y-99.612
M16
G05
T0
M30
