G04 #@! TF.GenerationSoftware,KiCad,Pcbnew,(6.0.11-0)*
G04 #@! TF.CreationDate,2023-08-21T21:01:56+09:00*
G04 #@! TF.ProjectId,SYMMETRIA,53594d4d-4554-4524-9941-2e6b69636164,rev?*
G04 #@! TF.SameCoordinates,Original*
G04 #@! TF.FileFunction,Legend,Top*
G04 #@! TF.FilePolarity,Positive*
%FSLAX46Y46*%
G04 Gerber Fmt 4.6, Leading zero omitted, Abs format (unit mm)*
G04 Created by KiCad (PCBNEW (6.0.11-0)) date 2023-08-21 21:01:56*
%MOMM*%
%LPD*%
G01*
G04 APERTURE LIST*
%ADD10C,0.150000*%
%ADD11C,0.120000*%
%ADD12C,2.000000*%
%ADD13C,4.000000*%
G04 APERTURE END LIST*
D10*
X41275050Y-95250000D02*
X41275050Y-94456250D01*
X30162550Y-95250000D02*
X30162550Y-94456250D01*
X30162550Y-105568750D02*
X30956300Y-105568750D01*
X30162550Y-94456250D02*
X30956300Y-94456250D01*
X40481300Y-105568750D02*
X41275050Y-105568750D01*
X30162550Y-104775000D02*
X30162550Y-105568750D01*
X41275050Y-94456250D02*
X40481300Y-94456250D01*
X41275050Y-105568750D02*
X41275050Y-104775000D01*
D11*
X167650000Y-66539900D02*
X167350000Y-66839900D01*
D10*
X176450000Y-66039900D02*
X178450000Y-66039900D01*
X166450000Y-52039900D02*
X164450000Y-52039900D01*
D11*
X167350000Y-66239900D02*
X167650000Y-66539900D01*
D10*
X164450000Y-64039900D02*
X164450000Y-66039900D01*
X164450000Y-66039900D02*
X166450000Y-66039900D01*
X164450000Y-52039900D02*
X164450000Y-54039900D01*
X178450000Y-66039900D02*
X178450000Y-64039900D01*
D11*
X167350000Y-66839900D02*
X167350000Y-66239900D01*
D10*
X178450000Y-52039900D02*
X176450000Y-52039900D01*
X178450000Y-54039900D02*
X178450000Y-52039900D01*
X301625050Y-95250000D02*
X301625050Y-94456250D01*
X301625050Y-104775000D02*
X301625050Y-105568750D01*
X301625050Y-94456250D02*
X302418800Y-94456250D01*
X301625050Y-105568750D02*
X302418800Y-105568750D01*
X312737550Y-94456250D02*
X311943800Y-94456250D01*
X312737550Y-105568750D02*
X312737550Y-104775000D01*
X311943800Y-105568750D02*
X312737550Y-105568750D01*
X312737550Y-95250000D02*
X312737550Y-94456250D01*
X190029100Y-22090400D02*
X190029100Y-19340400D01*
X199029100Y-22090400D02*
X190029100Y-22090400D01*
X199029100Y-19340400D02*
X199029100Y-22090400D01*
X190029100Y-19340400D02*
X199029100Y-19340400D01*
D12*
X126878229Y-55908995D03*
D13*
X131930400Y-56440000D03*
D12*
X136982571Y-56971005D03*
D13*
X230699600Y-54064000D03*
D12*
X225669038Y-54770999D03*
X235730162Y-53357001D03*
D13*
X30540000Y-28550000D03*
D12*
X35620000Y-28550000D03*
X25460000Y-28550000D03*
D13*
X211315400Y-56440000D03*
D12*
X216367571Y-55908995D03*
X206263229Y-56971005D03*
X40798800Y-69360000D03*
D13*
X35718800Y-69360000D03*
D12*
X30638800Y-69360000D03*
D13*
X108409200Y-33985000D03*
D12*
X113439762Y-34691999D03*
X103378638Y-33278001D03*
D13*
X272849100Y-29907000D03*
D12*
X267781475Y-30261363D03*
X277916725Y-29552637D03*
X200237825Y-37702637D03*
D13*
X195170200Y-38057000D03*
D12*
X190102575Y-38411363D03*
X240437625Y-99674363D03*
D13*
X235370000Y-99320000D03*
D12*
X230302375Y-98965637D03*
X306863800Y-28550000D03*
X317023800Y-28550000D03*
D13*
X311943800Y-28550000D03*
D12*
X316030000Y-48625000D03*
X305870000Y-48625000D03*
D13*
X310950000Y-48625000D03*
X250083500Y-51686000D03*
D12*
X245031329Y-52217005D03*
X255135671Y-51154995D03*
X78990325Y-50339363D03*
D13*
X73922700Y-49985000D03*
D12*
X68855075Y-49630637D03*
D13*
X292351700Y-28890000D03*
D12*
X287274795Y-29067289D03*
X297428605Y-28712711D03*
D13*
X89284400Y-31605000D03*
D12*
X94336571Y-32136005D03*
X84232229Y-31073995D03*
X125768662Y-75506999D03*
X115707538Y-74093001D03*
D13*
X120738100Y-74800000D03*
D12*
X123024129Y-35828995D03*
X133128471Y-36891005D03*
D13*
X128076300Y-36360000D03*
X206021200Y-98130000D03*
D12*
X211101200Y-98130000D03*
X200941200Y-98130000D03*
X246493271Y-71888995D03*
X236388929Y-72951005D03*
D13*
X241441100Y-72420000D03*
D12*
X186792475Y-58489363D03*
X196927725Y-57780637D03*
D13*
X191860100Y-58135000D03*
X202673100Y-77178000D03*
D12*
X207725271Y-76646995D03*
X197620929Y-77709005D03*
D13*
X82479500Y-70720000D03*
D12*
X77411875Y-70365637D03*
X87547125Y-71074363D03*
X96643229Y-71888995D03*
D13*
X101695400Y-72420000D03*
D12*
X106747571Y-72951005D03*
D13*
X289042100Y-48965000D03*
D12*
X294119005Y-48787711D03*
X283965195Y-49142289D03*
D13*
X307070000Y-69360000D03*
D12*
X301990000Y-69360000D03*
X312150000Y-69360000D03*
D13*
X253393600Y-31605000D03*
D12*
X248341429Y-32136005D03*
X258445771Y-31073995D03*
X209573429Y-36891005D03*
X219677771Y-35828995D03*
D13*
X214625600Y-36360000D03*
X54718800Y-48965000D03*
D12*
X59795705Y-49142289D03*
X49641895Y-48787711D03*
X58189195Y-69522711D03*
D13*
X63266100Y-69700000D03*
D12*
X68343005Y-69877289D03*
X156709125Y-58489363D03*
X146573875Y-57780637D03*
D13*
X151641500Y-58135000D03*
D12*
X112364625Y-98965637D03*
X102229375Y-99674363D03*
D13*
X107297000Y-99320000D03*
D12*
X98149671Y-52217005D03*
D13*
X93097500Y-51686000D03*
D12*
X88045329Y-51154995D03*
X217026538Y-75506999D03*
X227087662Y-74093001D03*
D13*
X222057100Y-74800000D03*
D12*
X259267629Y-101238995D03*
D13*
X264319800Y-101770000D03*
D12*
X269371971Y-102301005D03*
X285476505Y-69522711D03*
D13*
X280399600Y-69700000D03*
D12*
X275322695Y-69877289D03*
X135385729Y-76646995D03*
D13*
X140437900Y-77178000D03*
D12*
X145490071Y-77709005D03*
D13*
X160183200Y-78875000D03*
D12*
X165250825Y-79229363D03*
X155115575Y-78520637D03*
D13*
X260896600Y-70720000D03*
D12*
X255828975Y-71074363D03*
X265964225Y-70365637D03*
D13*
X31956300Y-48625000D03*
D12*
X37036300Y-48625000D03*
X26876300Y-48625000D03*
X83399371Y-101238995D03*
D13*
X78347200Y-101770000D03*
D12*
X73295029Y-102301005D03*
X107176038Y-53357001D03*
D13*
X112206600Y-54064000D03*
D12*
X117237162Y-54770999D03*
X264471375Y-50339363D03*
D13*
X269539000Y-49985000D03*
D12*
X274606625Y-49630637D03*
X141725800Y-98130000D03*
X131565800Y-98130000D03*
D13*
X136645800Y-98130000D03*
X69569600Y-29907000D03*
D12*
X64501975Y-29552637D03*
X74637225Y-30261363D03*
X239040162Y-33278001D03*
X228979038Y-34691999D03*
D13*
X234009600Y-33985000D03*
X50066600Y-28890000D03*
D12*
X55143505Y-29067289D03*
X44989695Y-28712711D03*
X150476000Y-21200200D03*
X143976000Y-21200200D03*
X178150075Y-79229363D03*
X188285325Y-78520637D03*
D13*
X183217700Y-78875000D03*
X147907500Y-38057000D03*
D12*
X142839875Y-37702637D03*
X152975125Y-38411363D03*
M02*
